<?xml version="1.0" encoding="UTF-8" standalone="no"?>
<!-- Created with Inkscape (http://www.inkscape.org/) -->

<svg
   version="1.1"
   id="svg1"
   width="306"
   height="135"
   viewBox="0 0 306 135"
   sodipodi:docname="wray.svg"
   inkscape:version="1.4.4 (dcaf3e7, 2026-05-05)"
   xmlns:inkscape="http://www.inkscape.org/namespaces/inkscape"
   xmlns:sodipodi="http://sodipodi.sourceforge.net/DTD/sodipodi-0.dtd"
   xmlns="http://www.w3.org/2000/svg"
   xmlns:svg="http://www.w3.org/2000/svg">
  <defs
     id="defs1">
    <filter
       style="color-interpolation-filters:sRGB"
       inkscape:label="Drop Shadow"
       id="filter6"
       x="-0.024211049"
       y="-0.065572753"
       width="1.1337658"
       height="1.5865118">
      <feFlood
         result="flood"
         in="SourceGraphic"
         flood-opacity="0.007843"
         flood-color="rgb(0,0,0)"
         id="feFlood5" />
      <feGaussianBlur
         result="blur"
         in="SourceGraphic"
         stdDeviation="3.000000"
         id="feGaussianBlur5" />
      <feOffset
         result="offset"
         dx="25.379940"
         dy="50.000000"
         id="feOffset5"
         in="blur" />
      <feComposite
         result="comp1"
         operator="in"
         in="offset"
         in2="flood"
         id="feComposite5" />
      <feComposite
         result="comp2"
         operator="over"
         in="SourceGraphic"
         in2="comp1"
         id="feComposite6" />
    </filter>
    <filter
       style="color-interpolation-filters:sRGB"
       inkscape:label="Blur Double"
       id="filter1252"
       x="-0.088854551"
       y="-0.240652"
       width="1.3483966"
       height="2.3920367"
       inkscape:menu="Blurs"
       inkscape:menu-tooltip="Overlays two copies with different blur amounts and modifiable blend and composite">
      <feFlood
         result="flood"
         in="SourceGraphic"
         flood-opacity="0.501961"
         flood-color="rgb(117,117,117)"
         id="feFlood1251" />
      <feGaussianBlur
         result="blur"
         in="SourceGraphic"
         stdDeviation="3.000000"
         id="feGaussianBlur1251" />
      <feOffset
         result="offset"
         in="blur"
         dx="25.379940"
         dy="50.000000"
         id="feOffset1251" />
      <feComposite
         result="comp1"
         operator="in"
         in="flood"
         in2="offset"
         id="feComposite1251" />
      <feComposite
         result="fbSourceGraphic"
         operator="atop"
         in="comp1"
         in2="comp1"
         id="feComposite1252" />
      <feColorMatrix
         result="fbSourceGraphicAlpha"
         in="fbSourceGraphic"
         values="0 0 0 -1 0 0 0 0 -1 0 0 0 0 -1 0 0 0 0 1 0"
         id="feColorMatrix22" />
      <feColorMatrix
         id="feColorMatrix23"
         values="0.560748 0 0 0.610199 0.219626 0 0.560748 0 0.610199 0.219626 0 0 0.560748 0.610199 0.219626 0 0 0 1 0"
         in="fbSourceGraphic"
         result="fbSourceGraphic" />
      <feColorMatrix
         result="fbSourceGraphicAlpha"
         in="fbSourceGraphic"
         values="0 0 0 -1 0 0 0 0 -1 0 0 0 0 -1 0 0 0 0 1 0"
         id="feColorMatrix24" />
      <feGaussianBlur
         id="feGaussianBlur24"
         stdDeviation="5"
         result="fbSourceGraphic"
         in="fbSourceGraphic" />
      <feGaussianBlur
         id="feGaussianBlur25"
         stdDeviation="0.01"
         in="fbSourceGraphic"
         result="result1" />
      <feComposite
         id="feComposite25"
         in2="result1"
         operator="arithmetic"
         in="fbSourceGraphic"
         k2="0.5"
         k3="0.5"
         result="result2"
         k1="0"
         k4="0" />
      <feBlend
         id="feBlend25"
         in2="fbSourceGraphic"
         mode="normal"
         result="result3" />
    </filter>
  </defs>
  <sodipodi:namedview
     id="namedview1"
     pagecolor="#ffffff"
     bordercolor="#666666"
     borderopacity="1.0"
     inkscape:showpageshadow="2"
     inkscape:pageopacity="0.0"
     inkscape:pagecheckerboard="true"
     inkscape:deskcolor="#d1d1d1"
     inkscape:zoom="1.44"
     inkscape:cx="151.04167"
     inkscape:cy="129.51389"
     inkscape:window-width="1920"
     inkscape:window-height="1009"
     inkscape:window-x="-8"
     inkscape:window-y="-8"
     inkscape:window-maximized="1"
     inkscape:current-layer="layer1" />
  <g
     inkscape:groupmode="layer"
     id="layer1"
     inkscape:label="shadow"
     style="fill:#ffffff;filter:url(#filter1252)"
     transform="matrix(0.8425072,0,0,0.91370796,-56.984958,-81.423185)">
    <path
       id="path431"
       style="display:inline;fill:#ffffff;fill-opacity:1;stroke:#000000;stroke-width:0.561798;stroke-opacity:0"
       d="m 148.75935,122.38727 c -3.95466,0.10976 -8.07325,0.74408 -8.8125,1.50195 -0.85592,0.87748 1.33404,2.79761 4.92578,4.86133 0.41711,-0.6608 1.07553,-1.02354 1.80273,-1.04102 1.26523,-0.0304 2.73751,0.98431 3.50586,3.29297 0.056,0.16833 0.11146,0.33708 0.16602,0.50586 3.22976,1.44122 6.80253,2.75199 10.11719,3.60156 7.05397,1.80799 17.11072,2.40392 16.64453,0.98633 -0.37845,-1.15082 -4.04518,-2.93633 -8.1211,-3.95312 -2.10048,-0.52399 -8.38972,-2.0789 -13.97656,-3.45508 -10.26891,-2.52949 -13.1582,-3.48184 -13.1582,-4.33984 0,-0.81561 1.91168,-0.53882 14.22265,2.05468 14.79946,3.11775 17.57814,3.53484 16.96875,2.54883 -1.33539,-2.1607 -13.0739,-5.87138 -20.51562,-6.48437 -1.15043,-0.0948 -2.45131,-0.11667 -3.76953,-0.0801 z" />
    <path
       id="path430"
       style="display:inline;fill:#ffffff;fill-opacity:1;stroke:#000000;stroke-width:0.561798;stroke-opacity:0"
       d="m 70.204,69.430075 c -1.412802,0.0279 -1.393958,1.637236 -0.269874,4.835456 1.262569,3.592236 4.672837,9.054237 8.640933,13.837873 6.106374,7.361385 18.82693,14.760016 34.556311,20.096976 4.75068,1.6119 9.27613,3.47749 10.05467,4.14716 1.95057,1.67781 1.44987,3.91169 -2.14414,9.59168 -2.65757,4.20003 -4.15148,8.10643 -6.43737,16.82382 -1.20045,4.57797 -1.22855,15.51646 -0.0495,19.57209 1.60395,5.51738 5.82238,10.42933 9.81452,11.43129 1.97333,0.49527 5.65842,-0.94838 6.9796,-2.73341 1.02776,-1.38861 1.06195,-1.78283 0.42833,-5.05581 -0.37799,-1.95252 -1.56746,-6.58203 -2.6418,-10.2899 -2.83338,-9.77898 -2.69409,-11.30829 1.4088,-15.63786 2.39215,-2.52432 4.51251,-3.74605 6.50422,-3.74605 0.75109,0 4.49169,1.15463 8.47009,2.60713 -0.23459,-0.8151 -0.48719,-1.62434 -0.75763,-2.42887 -0.37747,-1.12295 -0.42649,-2.07451 -0.25502,-2.82501 -1.64757,-1.00898 -3.06973,-2.06478 -4.19914,-3.13946 -1.00421,-0.95555 -1.82227,-2.03974 -1.82227,-2.40906 0,-1.40003 4.37699,-2.47839 10.05963,-2.47839 9.54157,0 20.09546,2.70342 24.40011,6.25168 2.17088,1.78942 2.79298,3.58644 1.07207,3.09489 -2.83518,-0.80982 -28.95786,-5.99707 -29.16377,-5.79116 -0.32157,0.32158 6.86837,2.19475 15.5413,4.05059 13.45373,2.87884 18.9744,5.19022 17.63593,7.38565 -0.50169,0.8229 -1.41642,1.03405 -4.77356,1.09435 -4.76173,0.0855 -5.18669,0.0292 -12.02056,-1.55982 -3.72758,-0.86674 -7.29572,-2.01751 -10.48549,-3.35239 0.43169,1.44341 0.80984,2.90008 1.13397,4.36999 2.42397,0.8254 4.61853,1.53078 5.86544,1.87179 3.86621,1.05735 16.62675,2.80768 20.46589,2.80768 h 1.81979 l -0.31939,2.66903 c -0.68031,5.68935 -3.08947,9.29092 -12.39194,18.51735 -9.55221,9.47412 -9.97113,10.26516 -7.16281,13.60266 1.22409,1.45475 1.85338,1.73067 3.96393,1.73067 10.62388,0 18.06604,-5.65735 27.16819,-20.64911 2.18908,-3.60552 4.32544,-6.43338 5.33559,-7.05883 0.92685,-0.57387 3.58268,-2.11737 5.9001,-3.43161 2.31742,-1.31425 5.66589,-3.28709 7.44259,-4.38237 1.77669,-1.09527 4.55769,-2.42246 6.17987,-2.94881 1.62218,-0.52635 8.38553,-3.10373 15.02879,-5.72678 l 12.07998,-4.76861 27.80697,0.61403 c 30.65655,0.67578 38.10402,0.38472 47.82472,-1.86436 14.1891,-3.28294 26.3077,-8.37001 37.48035,-15.7369 6.34306,-4.18242 9.63873,-7.06055 9.63873,-8.41315 0,-1.38663 -3.24383,-1.16602 -7.71247,0.52242 -10.47327,3.95725 -22.37113,5.86543 -36.57169,5.86543 -10.20656,0 -15.71439,-0.51614 -24.81607,-2.32488 -9.92725,-1.97279 -22.64868,-6.68831 -23.41223,-8.678072 -1.09023,-2.841099 2.32775,-5.588982 11.83981,-9.519882 11.67256,-4.823739 22.0341,-7.666099 49.91192,-13.691795 14.86051,-3.212049 21.26714,-5.046914 14.74901,-4.223906 -5.80394,0.732831 -37.03008,7.151114 -50.28083,10.334457 -14.46519,3.4751 -25.9986,5.630225 -30.12442,5.630225 -2.83511,0 -2.94563,-0.323098 -1.59944,-4.761179 1.53793,-5.070181 1.31557,-5.08651 -10.07201,-0.784864 l -7.24452,2.735882 -3.70892,-1.10178 c -6.51769,-1.936623 -15.26324,-3.880082 -24.21689,-5.382634 -6.12505,-1.027871 -8.55162,-1.531322 -12.34985,-3.411806 -0.46481,0.130955 -0.93114,0.256181 -1.40137,0.366435 -0.46329,0.108627 -0.98973,0.228129 -1.56478,0.354055 0.43513,0.414619 0.71059,0.779251 0.71059,1.020076 0,0.661249 -0.69591,0.854189 -3.07013,0.854189 -2.03208,0 -2.85672,-0.133256 -3.36476,-0.680875 -0.64801,0.13151 -1.30373,0.26421 -1.95845,0.396146 l 0.66354,4.107538 11.02772,-0.289682 c 22.30229,-0.590657 34.92775,2.979851 52.7493,14.919847 10.04533,6.729945 17.03702,9.890805 28.01743,12.674195 10.26393,2.60177 16.95976,3.37398 29.13653,3.35238 13.07932,-0.0232 18.39024,-0.7559 30.76073,-4.23876 4.5587,-1.28348 8.47717,-2.14259 8.70779,-1.90893 1.14245,1.15751 -11.78471,9.42865 -21.24085,13.59029 -6.8039,2.99439 -14.83829,5.41912 -21.87964,6.60078 -11.38025,1.9098 -17.59727,2.131 -48.31247,1.74056 -21.95609,-0.27909 -31.34095,-0.2011 -34.82123,0.28473 -5.93967,0.82914 -8.01126,1.8819 -2.96119,1.50536 1.93118,-0.144 3.51084,-0.0582 3.51084,0.19064 0,0.55362 -7.48766,3.72076 -16.68022,7.05388 -3.76667,1.36575 -8.0461,3.24106 -9.50998,4.16943 -1.42975,0.90672 -2.69351,1.56586 -2.85225,1.49546 h -0.002 l -0.002,-0.002 c -0.10815,-0.10816 0.085,-0.92722 0.42833,-1.8198 0.34335,-0.89257 0.84888,-2.63389 1.12407,-3.86985 0.18778,-0.84336 0.2989,-1.31264 0.3491,-1.35927 h 0.002 l 0.002,-0.002 0.002,-0.002 h 0.002 v 0.002 h 0.002 0.002 v 0.002 c 0.0458,0.0602 -0.005,0.79845 -0.13122,2.31002 l -0.2674,3.19888 2.38926,-1.3568 c 1.31384,-0.74668 6.65262,-2.94556 11.86457,-4.88497 9.28772,-3.45605 9.43473,-3.53499 7.43021,-4.04812 -2.5945,-0.66415 -2.32371,-1.47797 0.83438,-2.52048 2.03799,-0.67275 9.5122,-0.88391 41.52848,-1.17358 33.67314,-0.30465 39.7404,-0.48716 44.10095,-1.32461 12.06831,-2.31773 19.67021,-4.84392 28.52003,-9.47532 6.15364,-3.22041 15.21378,-8.85209 14.84062,-9.22525 -0.12443,-0.12443 -3.48443,0.65691 -7.46735,1.73809 -10.4142,2.82697 -16.19475,3.7317 -26.11097,4.08526 -12.85894,0.45848 -24.50027,-0.92104 -36.73016,-4.35513 -8.30097,-2.33087 -14.73559,-5.30644 -23.92969,-11.062378 -13.79853,-8.638527 -18.33753,-10.817497 -28.05704,-13.476389 -5.01631,-1.372275 -6.28555,-1.47341 -21.1641,-1.70838 l -15.83098,-0.250067 -0.69821,-3.916893 -0.10646,-0.596695 c -1.54661,0.311265 -3.06452,0.614633 -4.43684,0.893804 -3.78458,4.147796 -3.85118,4.187562 -8.17546,5.127615 -13.76752,2.992907 -25.62907,7.287917 -35.87349,12.988635 -8.02635,4.466418 -10.34188,5.402538 -10.34188,4.189248 0,-0.29018 1.64356,-1.742082 3.65197,-3.228594 1.91426,-1.416832 3.3235,-2.635585 3.25087,-2.800257 v -0.0025 l -0.002,-0.0025 -0.002,-0.0025 v -0.0025 c -0.003,-0.0021 -0.0106,-0.0057 -0.0149,-0.0074 -0.23173,-0.06197 -5.35153,-0.377878 -11.37681,-0.703159 -24.68824,-1.332818 -35.894482,-4.529858 -53.84119,-15.363035 -5.04759,-3.046879 -9.277532,-5.439291 -9.401039,-5.315784 -0.382834,0.382833 4.555884,7.560421 7.712467,11.208455 4.525844,5.230476 11.264833,10.696833 16.687648,13.538287 2.669377,1.398705 9.130554,4.230317 14.357814,6.288817 5.22726,2.05851 10.98463,4.48956 12.79304,5.40244 3.58403,1.80922 4.1832,1.72991 6.59335,-0.84676 1.89567,-2.02666 2.45011,-1.82307 2.01787,0.73534 -0.22718,1.34467 -0.13663,2.33182 0.23274,2.5601 1.48124,0.91546 0.49126,2.53728 -2.74579,4.50368 -8.40455,5.1055 -12.43579,13.63016 -12.44889,26.32885 -0.0141,13.63464 3.51041,22.07074 9.0247,21.60729 1.85954,-0.15629 2.00584,-0.30899 2.16643,-2.2407 0.0948,-1.14055 -0.71504,-5.56509 -1.79999,-9.83185 -1.08495,-4.26677 -2.12217,-8.48053 -2.30508,-9.3639 -0.1829,-0.88337 -1.58407,-2.92986 -3.11469,-4.54825 -1.53061,-1.6184 -2.78293,-3.36146 -2.78293,-3.87233 0,-1.55875 1.80268,-1.04343 4.06297,1.16368 2.40585,2.34925 1.92111,2.48274 7.09102,-1.91636 1.88355,-1.60272 3.87389,-3.17988 4.42198,-3.50341 0.88749,-0.52387 0.69294,-0.85482 -1.77028,-3.02804 -3.12306,-2.75538 -3.15395,-3.63644 -0.20055,-5.43711 1.00348,-0.61181 1.42812,-0.95916 1.35185,-1.05721 -0.15731,-0.16686 -1.94481,0.47143 -4.90726,1.82227 -2.28368,1.04133 -4.59874,1.88319 -5.14495,1.87179 -0.89551,-0.0186 -0.87557,-0.14511 0.19065,-1.28005 1.55101,-1.65097 6.66528,-4.34216 11.03762,-5.80849 3.70838,-1.24366 7.63551,-1.50434 9.86651,-0.65611 0.74463,0.28311 4.98438,1.18188 9.42084,1.99806 9.37728,1.72514 13.79923,3.08078 17.56412,5.38263 1.48823,0.90989 2.82134,1.65391 2.96119,1.65391 0.13988,0 0.0949,-0.63137 -0.099,-1.40384 -0.48005,-1.91266 0.68701,-1.83888 3.53312,0.22283 2.39654,1.73605 6.92519,8.00117 6.88799,9.52979 -0.0123,0.50552 -0.50531,-0.0531 -1.0993,-1.24291 -2.01932,-4.0451 -7.27409,-9.57202 -8.21013,-8.63598 -0.16993,0.16993 0.79001,1.65921 2.13176,3.30782 1.34176,1.64861 3.14181,4.19718 4.00108,5.66488 0.85927,1.46769 1.99277,2.6892 2.52047,2.7136 0.64785,0.0299 0.71917,0.14131 0.21788,0.34168 -0.40832,0.16321 -1.29273,-0.22181 -1.96587,-0.85419 l -1.2231,-1.14882 -0.01,5.44453 c -0.009,4.95986 -0.22719,6.06768 -2.45363,12.46621 l -2.44373,7.02169 -6.39528,6.55374 c -3.51742,3.60465 -6.39528,6.85251 -6.39528,7.21729 0,0.47656 1.47957,0.60775 5.24646,0.46794 5.24174,-0.19456 5.24609,-0.197 8.52951,-2.7235 3.9684,-3.05358 9.80121,-10.24396 12.1394,-14.96689 1.96803,-3.97526 3.25633,-5.32681 8.60875,-9.0346 4.74527,-3.2872 5.6706,-4.50551 6.91522,-9.09898 0.56714,-2.09313 1.33029,-3.70219 1.8198,-3.83519 0.27069,-0.0735 0.42992,-0.0848 0.46794,-0.0446 0.0297,0.0423 -0.0506,0.13784 -0.24264,0.28225 -0.33932,0.25527 -0.7882,1.56021 -0.99779,2.90177 -0.75674,4.84376 -3.02062,7.95243 -7.77684,10.67366 -3.56667,2.04064 -7.18014,5.50201 -7.18014,6.87808 0,1.64129 -5.63771,9.54047 -9.82195,13.76112 -2.16789,2.18674 -5.09842,4.52553 -6.50917,5.19694 -1.9337,0.92028 -3.52281,1.20287 -6.45965,1.15377 -2.14261,-0.0358 -4.3393,-0.18056 -4.88003,-0.32186 -1.92052,-0.50189 -0.92495,-2.37176 3.37219,-6.34082 2.68537,-2.48035 3.86956,-3.88432 3.08994,-3.66435 -1.79546,0.50658 -1.56974,-0.5484 0.42091,-1.96587 1.649,-1.17419 2.33979,-0.87653 1.02255,0.44071 -0.36565,0.36564 -0.52574,0.80383 -0.35406,0.97551 0.62453,0.62453 5.51138,-5.45881 5.51138,-6.86075 0,-0.76452 0.73743,-3.07483 1.63906,-5.13504 3.11214,-7.11126 3.51629,-13.99428 1.11664,-19.00015 -1.52715,-3.18575 -5.98195,-7.21323 -10.17353,-9.19554 -3.66234,-1.73201 -9.94365,-3.28489 -19.2205,-4.7488 -3.06473,-0.48363 -5.91455,-1.16227 -6.33091,-1.50783 -1.01416,-0.84167 -6.06621,-0.21944 -9.85661,1.2132 -3.55488,1.34361 -9.08559,4.45516 -8.66569,4.87507 0.16496,0.16496 1.64254,-0.45625 3.28306,-1.37909 4.43714,-2.49601 8.30732,-3.57936 12.06512,-3.38457 l 3.27811,0.16589 -3.21374,0.7403 c -3.49341,0.80293 -9.98783,3.8156 -9.98783,4.63243 0,0.27888 1.26274,1.44878 2.80769,2.60218 1.54494,1.15341 2.81016,2.40317 2.81016,2.7755 0,0.37233 -0.94829,1.26153 -2.107,1.97578 -1.1587,0.71423 -3.55912,2.63019 -5.33312,4.25857 -1.774,1.62837 -3.35913,2.96119 -3.52322,2.96119 -0.001,0 -0.006,1.2e-4 -0.007,0 -0.1953,-0.0321 -1.44944,-1.06872 -2.81759,-2.32984 -1.38987,-1.28113 -2.68203,-2.17323 -2.87206,-1.9832 -0.58218,0.58218 1.32536,2.9932 3.36477,4.25362 1.88885,1.16738 2.59916,2.49944 2.61456,4.90725 0.004,0.65826 1.01712,4.70395 2.25308,8.98756 3.01975,10.46594 2.98107,12.2754 -0.27978,12.88713 -4.32009,0.81046 -7.84709,-2.84432 -9.53226,-9.87642 -2.38686,-9.96018 -1.51966,-21.78071 2.16643,-29.54258 2.23781,-4.71218 4.99486,-7.6811 9.49017,-10.21809 3.29727,-1.86087 3.88637,-2.70482 2.31498,-3.30782 -0.66709,-0.25599 -0.80868,-0.78464 -0.55213,-2.06739 l 0.34662,-1.72571 -1.86436,1.80494 c -2.21514,2.147 -2.8462,2.21462 -4.86021,0.51995 -0.8402,-0.70699 -4.03664,-2.25337 -7.1034,-3.43905 C 95.552362,99.262162 92.155723,97.47137 84.549435,90.321822 77.176124,83.391263 70.066038,73.52702 71.446908,72.14615 c 0.02612,-0.02612 0.0681,-0.04036 0.123796,-0.04457 0.657248,-0.04973 3.344181,1.413519 7.395549,4.030785 13.219109,8.539819 22.132617,12.384471 34.459747,14.872804 6.04126,1.219479 12.37793,1.821462 30.53542,2.894342 2.81349,0.166242 5.11359,0.463226 5.17218,0.66602 v 0.0025 0.0025 0.0025 0.0025 c -0.0132,0.202905 -1.80424,1.590585 -3.98126,3.08251 -2.15151,1.474441 -3.79864,2.802259 -3.69406,2.976049 v 0.002 h 0.002 0.002 l 0.002,0.002 v 0.002 l 0.002,0.002 c 0.2288,0.0952 3.06014,-1.391881 6.36309,-3.347432 3.35538,-1.986591 7.36587,-4.249069 8.91081,-5.026102 5.26521,-2.648147 20.1122,-7.410877 27.52719,-8.831578 5.46224,-1.046556 6.52746,-1.438059 9.27972,-4.662143 -1.07347,0.220387 -2.02414,0.42058 -2.78045,0.586791 -0.23303,0.05121 -0.46543,0.103602 -0.6982,0.155983 -1.95827,1.038266 -4.6207,1.844847 -9.36638,3.134505 -3.91043,1.062674 -11.4076,3.37534 -16.66041,5.142469 l -9.5496,3.213734 h -17.13578 c -15.86775,0 -17.56292,-0.09478 -22.94428,-1.299854 C 101.66771,86.855977 90.704728,82.012057 79.060338,74.087265 74.461823,70.957664 71.616802,69.402172 70.204,69.430075 Z m 196.56019,11.404051 c 0.13216,-0.0063 0.22046,0.01 0.25997,0.04952 0.17039,0.170396 -0.11263,1.657266 -0.63136,3.302867 -1.2207,3.872524 -1.18955,4.724122 0.18817,5.03353 0.39918,0.08965 0.62891,0.151901 0.67593,0.183217 h 0.002 l 0.002,0.0025 0.002,0.0025 v 0.0025 0.0025 h -0.002 v 0.0025 l -0.002,0.0025 h -0.002 c -0.0486,0.02061 -0.32081,0.01182 -0.81705,-0.01733 -1.0708,-0.06289 -1.26836,-0.385748 -1.24786,-2.040151 0.0134,-1.081461 0.2213,-2.784449 0.46299,-3.783194 l 0.44072,-1.814844 -2.35707,0.831907 c -4.00299,1.41234 -8.96281,3.771481 -8.96281,4.26352 0,0.501393 5.92728,4.582454 11.64422,8.017004 l 3.49599,2.099574 3.42418,-2.849775 c 1.88361,-1.567549 4.44322,-3.371413 5.68717,-4.006026 1.1662,-0.59495 2.0564,-1.159396 2.07482,-1.309758 4e-5,-0.0018 -1.1e-4,-0.0073 0,-0.0099 v -0.0025 c -2.4e-4,-4.8e-4 -0.004,-0.0037 -0.005,-0.005 v -0.0025 l -0.002,-0.0025 h -0.002 c -0.12558,-0.09526 -1.47042,0.03202 -3.00329,0.287206 -1.54495,0.257204 -4.45122,0.448537 -6.45965,0.425857 l -3.65197,-0.04209 4.49378,-0.458044 c 4.52519,-0.460636 10.39783,-1.461302 11.85467,-2.020344 0.43219,-0.165847 0.78734,-0.05959 0.78734,0.235212 0,0.2948 -2.08575,1.647824 -4.63491,3.008233 -2.54916,1.36041 -5.81916,3.674735 -7.2668,5.14247 -1.44764,1.467736 -2.71785,2.669033 -2.82007,2.669033 -1.10374,0 -17.30167,-10.597863 -17.30167,-11.31987 0,-0.840663 11.69196,-5.786283 13.67446,-5.880292 z m -52.43734,41.917194 h 0.002 0.002 c 0.26911,0 0.62826,0.22766 0.79972,0.50509 0.39022,0.6314 -1.18592,5.59683 -2.22832,7.01673 -0.69785,0.95058 -3.63464,1.81244 -3.63464,1.06712 0,-0.7399 4.58966,-8.52812 5.05829,-8.58894 z m -79.8036,1.10178 c 0.0231,-0.001 0.0474,-4.9e-4 0.0718,0 0.86024,0.0172 2.57199,1.21239 4.71661,3.37962 1.82659,1.84585 3.1841,3.49344 3.01814,3.6594 -0.6227,0.62271 -8.34132,-5.2197 -8.34135,-6.31358 -1e-5,-0.46786 0.18883,-0.7042 0.5348,-0.72544 z m 66.42377,9.13612 c 0.2517,0.0119 0.47093,0.0409 0.65364,0.0867 2.32621,0.58384 1.50766,1.69087 -1.64153,2.2209 -1.52194,0.25615 -4.86478,1.11078 -7.42526,1.89902 -2.54048,0.78207 -4.74627,1.29719 -4.92954,1.15625 -0.49396,-0.49396 10.28305,-3.80052 12.38699,-3.80052 1.21685,0 1.90065,-0.2269 1.69352,-0.56204 -0.56659,-0.91677 -2.33654,-0.66209 -8.34878,1.20577 -3.1318,0.97299 -6.01151,2.15785 -6.39775,2.63437 -0.62934,0.77651 -0.70316,0.77326 -0.70316,-0.0421 0,-1.52866 10.93628,-4.97757 14.71187,-4.79831 z" />
    <path
       id="path429"
       style="display:inline;fill:#ffffff;fill-opacity:1;stroke:#000000;stroke-width:0.561798;stroke-opacity:0"
       d="m 206.85207,76.060567 c -1.30831,0.282115 -2.82436,0.595497 -4.4096,0.918564 0.49408,0.187911 1.25787,0.267398 2.39173,0.267398 1.51188,0 2.74881,-0.189164 2.74826,-0.420905 -3.2e-4,-0.133656 -0.28583,-0.415643 -0.73039,-0.765057 z" />
    <path
       id="path98"
       style="display:inline;fill:#ffffff;fill-opacity:1;filter:url(#filter6)"
       d="m 70.424356,68.880422 c -0.772132,3.39e-4 -1.254993,0.395802 -1.52021,1.166155 -1.161449,3.373553 5.251144,14.42055 12.456314,21.458731 6.169681,6.026691 18.72779,12.856112 30.31012,16.484622 5.5,1.72304 10.56057,3.56474 11.24807,4.09268 2.09647,1.60992 1.40707,5.24457 -1.75047,9.21782 -1.65093,2.07742 -3.5034,5.62756 -4.11497,7.88826 -0.61156,2.2607 -1.7357,6.10147 -2.4982,8.53695 -1.6846,5.3807 -1.80684,16.53307 -0.23273,21.174 2.92378,8.62011 9.39763,13.21411 14.73168,10.45577 1.57288,-0.81337 3.11172,-2.43894 3.41923,-3.61483 0.3075,-1.1759 -0.75932,-6.42524 -2.37192,-11.66402 -1.61259,-5.23877 -2.93148,-10.41318 -2.93148,-11.49814 0,-2.75405 3.60618,-7.52707 7.02416,-9.29457 2.68731,-1.38967 3.39628,-1.27201 11.17379,1.85941 0.0828,0.0333 0.16292,0.066 0.24512,0.099 -0.26082,-0.9272 -0.54458,-1.84695 -0.85172,-2.76065 -0.41669,-1.23964 -0.43452,-2.27068 -0.19559,-3.0528 -3.8962,-2.3813 -6.59516,-4.83507 -5.71688,-5.66736 4.94894,-4.68976 29.3947,-1.04671 34.93512,5.20684 1.87175,2.11267 1.86706,2.12443 -0.61403,1.52764 -1.375,-0.33073 -8.12408,-1.71923 -14.99908,-3.08498 -6.875,-1.36575 -13.40141,-2.8046 -14.50141,-3.19641 -1.60437,-0.57147 -1.76395,-0.4554 -0.8022,0.58432 0.65941,0.71286 7.18335,2.52144 14.49894,4.0184 14.94578,3.05829 20.80262,5.15043 20.80262,7.43022 0,3.08181 -14.71636,1.32783 -26.1803,-3.11965 -0.43239,-0.16775 -0.86901,-0.34669 -1.30233,-0.53232 0.50314,1.66108 0.93706,3.34497 1.29738,5.04095 6.54542,2.2453 11.77363,3.23441 19.68598,3.94908 l 7.99967,0.72049 -0.31692,2.93396 c -0.64119,5.92824 -4.98196,11.58302 -16.93276,22.06285 -4.59994,4.03377 -5.28099,6.69521 -2.50067,9.77738 1.4441,1.60088 2.64855,1.84646 6.88799,1.41127 2.82562,-0.29007 6.61042,-1.28747 8.41067,-2.21842 5.0553,-2.6142 12.3924,-10.88148 16.3633,-18.43812 2.77397,-5.27887 4.30361,-7.09093 6.69734,-7.92539 1.70689,-0.59502 5.75278,-2.88738 8.98757,-5.09543 3.23479,-2.20804 6.40369,-4.01593 7.04149,-4.01593 0.63779,0 7.38812,-2.50168 15.00403,-5.55842 l 13.84777,-5.55842 30.75579,0.70563 c 22.0536,0.50532 32.73559,0.36908 37.75518,-0.48032 11.31498,-1.9147 24.33352,-5.97455 32.95687,-10.27752 9.00044,-4.49113 20.38476,-12.26156 21.24332,-14.49894 1.17779,-3.06928 -1.31761,-3.33438 -7.73475,-0.81952 -21.37579,8.3771 -53.15506,8.07337 -76.28533,-0.73287 -4.30077,-1.6374 -8.06761,-3.626281 -8.37105,-4.417032 -1.15903,-3.020372 3.39519,-5.892429 18.69066,-11.785342 7.24535,-2.791427 24.20785,-7.052909 45.8737,-11.525371 13.85248,-2.859554 16.00169,-3.508495 14.98917,-4.521016 -0.60978,-0.609782 -42.79368,7.789239 -52.15261,10.383976 -9.39842,2.605687 -20.27719,4.82131 -27.90849,5.684694 -6.1082,0.691064 -6.11301,0.691958 -5.37768,-1.703427 1.82441,-5.943172 1.83831,-6.897892 0.10647,-6.897892 -0.93499,0 -5.11822,1.36961 -9.29705,3.042896 l -7.5961,3.042897 -6.5686,-1.978254 c -5.80092,-1.747405 -17.10427,-4.000477 -28.25511,-5.6327 -1.30963,-0.1917 -3.41257,-1.011786 -5.48414,-2.082243 -0.49643,0.140922 -0.99544,0.273378 -1.49793,0.391195 -0.50967,0.119501 -1.09483,0.251027 -1.73809,0.391194 0.54921,0.457662 0.90618,0.841146 0.90618,1.042359 0,0.952904 -5.39791,1.054359 -6.33338,0.118843 -0.008,-0.0078 -0.0147,-0.01653 -0.0223,-0.02476 -0.74676,0.151631 -1.50543,0.303471 -2.26051,0.455568 0.0332,0.194907 0.0662,0.390948 0.099,0.586791 l 0.64621,3.854996 8.18536,-0.433285 c 23.69363,-1.249474 39.25999,3.066761 56.68601,15.714615 21.06574,15.289578 59.0776,20.050008 87.36257,10.941058 4.32561,-1.39302 8.05904,-2.33979 8.29678,-2.10205 0.8044,0.8044 -9.11273,7.40956 -17.22492,11.4709 -18.54397,9.284 -37.23505,11.85177 -74.15605,10.1859 -23.48549,-1.05966 -39.48425,-0.22539 -41.77854,2.17633 -0.69402,0.72652 0.37783,0.82455 3.50094,0.32682 2.475,-0.39444 4.26337,-0.46747 3.97631,-0.16341 -0.68286,0.7233 -21.09478,8.6756 -22.26835,8.6756 -0.49618,0 -2.29055,0.98943 -3.9887,2.19861 -2.88807,2.0565 -3.03469,2.07271 -2.27536,0.25006 1.50475,-3.61194 1.74933,-6.21023 0.64869,-6.89046 -0.65556,-0.40516 -1.09435,0.14271 -1.09435,1.36423 0,4.31543 -3.08891,9.87332 -6.20464,11.16389 -3.88807,1.61049 -8.79444,5.70775 -8.79444,7.34603 0,2.63893 -7.86845,13.22969 -12.49345,16.81639 -4.18909,3.24865 -5.54024,3.75101 -10.11163,3.75101 -2.90228,0 -5.55932,-0.45478 -5.90257,-1.01017 -0.34325,-0.55539 0.86802,-2.22549 2.69131,-3.71387 6.3323,-5.16917 11.98619,-11.19194 11.3991,-12.14187 -0.32474,-0.52543 0.55344,-3.23148 1.95102,-6.014 3.00992,-5.99262 3.49038,-14.23503 1.10178,-18.85407 -3.80851,-7.36486 -12.25608,-11.84228 -25.3162,-13.41944 -5.40156,-0.6523 -10.11237,-1.62531 -10.47063,-2.16395 -1.14544,-1.72219 -9.88462,0.19135 -15.47445,3.38953 -2.95641,1.69148 -5.37521,3.49691 -5.37521,4.01345 0,0.51653 1.68603,-0.11644 3.74853,-1.40632 4.90714,-3.06891 9.80675,-4.70562 13.64971,-4.5631 l 3.09984,0.11389 -3.49846,0.70811 c -3.92836,0.79266 -10.00174,3.73107 -9.99774,4.83793 0.002,0.39838 1.34902,1.6235 2.99586,2.7235 3.65432,2.4409 3.68869,2.7964 0.40605,4.55321 -1.42832,0.76442 -3.6508,2.63844 -4.93697,4.16696 -2.90184,3.44865 -3.78325,3.46829 -6.41014,0.12874 -1.14763,-1.45896 -2.40005,-2.33635 -2.7854,-1.95101 -1.01321,1.01322 1.03458,3.94055 3.56036,5.09047 1.4543,0.66211 2.16642,1.88639 2.16642,3.71882 0,1.50259 1.12037,6.15399 2.48582,10.33693 3.03998,9.31272 2.98269,11.97997 -0.25997,12.24834 -5.99674,0.49631 -9.0567,-4.63207 -10.3097,-17.29177 -1.46518,-14.80345 3.50457,-27.54968 12.37956,-31.75852 3.72621,-1.7671 4.68547,-3.24888 2.56257,-3.95651 -0.85183,-0.28395 -0.84344,-0.94172 0.0347,-2.58238 1.61667,-3.02078 0.49905,-2.76389 -2.37687,0.54718 -2.22366,2.56013 -2.47873,2.62907 -3.70149,1.00027 -0.7224,-0.96228 -6.32399,-3.49564 -12.44889,-5.63023 C 97.633467,100.37661 90.770869,96.466987 82.665266,88.328712 76.399267,82.037456 70.390331,73.242342 71.558324,72.074349 c 0.01151,-0.0096 0.03095,-0.01868 0.05447,-0.01981 0.521638,-0.02502 3.946533,2.00679 7.868449,4.679474 16.774793,11.431584 31.407847,15.934952 55.027147,16.935239 l 14.83814,0.628882 -4.69928,3.305342 c -6.34999,4.468554 -5.04057,5.168104 1.66381,0.888853 2.94757,-1.881371 7.61301,-4.562881 10.3716,-5.957045 5.98158,-3.023037 23.07085,-8.367302 29.73323,-9.299526 3.85145,-0.538909 4.94489,-1.086978 7.58619,-4.550727 -1.26043,0.257577 -2.37202,0.489067 -3.23354,0.6784 -0.33039,0.07261 -0.66048,0.145469 -0.99036,0.220356 -1.849,0.951996 -4.38154,1.623102 -9.11631,2.812637 -5.49661,1.380933 -13.81759,3.931214 -18.49259,5.664887 -8.16601,3.028278 -9.10804,3.152921 -23.99901,3.179071 C 126.891,91.260195 120.42699,90.777317 114.43865,89.470108 101.0185,86.540602 88.619433,80.994736 78.518113,73.401438 74.429919,70.328287 71.898425,68.879777 70.424356,68.880422 Z M 266.64535,81.059434 c 0.0768,-0.0012 0.12941,0.01057 0.1535,0.03466 0.23463,0.234628 -0.0363,1.64247 -0.60164,3.129553 -2.10369,5.53311 -1.72246,5.845684 6.14274,5.055813 3.9435,-0.396031 8.4437,-1.083718 10.0002,-1.530114 1.60749,-0.461022 2.49516,-0.641805 2.62447,-0.51499 0.002,0.0027 0.008,0.0094 0.01,0.01238 0.10606,0.239203 -1.66006,1.250757 -5.43216,3.159264 -3.09418,1.565514 -6.2967,3.86765 -7.11577,5.11771 -0.81907,1.250061 -1.77261,2.24507 -2.12185,2.21099 -0.99575,-0.09717 -17.05617,-10.376541 -17.08627,-10.936104 -0.0366,-0.680162 11.86589,-5.713855 13.42687,-5.739165 z m -52.06348,41.966716 c -0.3314,0.0252 -0.75517,0.55952 -1.05227,1.37908 -0.37744,1.04122 -1.54433,3.12983 -2.59228,4.64233 -1.82288,2.63095 -1.45719,3.54537 0.78982,1.98321 1.44581,-1.00515 3.85533,-7.15258 3.09984,-7.90806 -0.063,-0.063 -0.13549,-0.0948 -0.21293,-0.0966 -0.0105,-2.5e-4 -0.0215,-8.2e-4 -0.0322,0 z m -39.30511,0.77248 c -1.00837,0 -0.48876,1.06361 1.58458,3.2484 1.69632,1.7875 3.81839,4.71177 4.71909,6.49927 1.58457,3.14471 3.59008,4.36583 3.59008,2.18623 0,-3.17876 -7.25887,-11.9339 -9.89375,-11.9339 z m -40.55296,0.0272 c 0.73847,0.0157 2.21752,1.17127 4.44673,3.47122 1.7346,1.78965 3.00104,3.25379 2.97357,3.42419 l -0.002,0.002 v 0.002 l -0.002,0.002 v 0.002 0.002 l -0.002,0.002 h -0.002 -0.002 -0.002 l -0.002,0.002 c -0.004,3.1e-4 -0.008,-0.002 -0.0124,-0.002 -1.19803,-0.16141 -7.9452,-5.31889 -7.9452,-6.07342 0,-0.52788 0.16119,-0.80724 0.48528,-0.83438 0.0223,-0.002 0.0455,-0.003 0.0693,-0.002 z m 65.37893,9.36637 c -1.12714,-0.0387 -2.59445,0.31084 -4.76118,1.08197 -2.5699,0.9146 -5.68515,1.91031 -6.92265,2.21099 -1.2375,0.30068 -2.2506,0.99282 -2.2506,1.53755 0,0.55927 0.76228,0.66661 1.75047,0.24759 5.71485,-2.42326 9.14913,-3.39295 12.25081,-3.45885 2.96616,-0.063 3.21996,-0.2359 1.67124,-1.13645 -0.50845,-0.29566 -1.06181,-0.45961 -1.73809,-0.4828 z m -27.958,28.59926 h 0.002 0.002 0.002 c 0.003,4.6e-4 0.005,0.002 0.007,0.002 h 0.002 l 0.002,0.002 h 0.002 0.002 v 0.002 l 0.002,0.002 v 0.002 l 0.002,0.002 v 0.002 c 0.008,0.0896 -0.29295,0.49392 -0.87647,1.23796 -1.30637,1.66575 -2.12928,2.19717 -2.12928,1.37413 0,-0.20765 0.78797,-0.99562 1.75047,-1.75047 0.71869,-0.56362 1.11842,-0.86588 1.22557,-0.87895 z" />
  </g>
  <g
     inkscape:groupmode="layer"
     inkscape:label="Image"
     id="g1"
     style="display:inline">
    <path
       style="display:inline;fill:#004455;filter:url(#filter6)"
       d="m 94.75,115.28251 c -2.780324,-3.08217 -2.099944,-5.74291 2.5,-9.77668 11.9508,-10.479834 16.29174,-16.136325 16.93293,-22.064563 l 0.31707,-2.931469 -8,-0.722596 C 96.124201,78.850014 90.366506,77.439942 80.197534,73.345673 72.420016,70.21426 71.713685,70.096699 69.026372,71.486363 65.608391,73.253869 62,78.027324 62,80.781382 c 0,1.084953 1.319397,6.258911 2.931993,11.497687 1.612596,5.238775 2.680399,10.487141 2.372896,11.663041 -0.307504,1.17589 -1.845999,2.80347 -3.41888,3.61684 -5.334049,2.75834 -11.809277,-1.83806 -14.733057,-10.458173 -1.574115,-4.640928 -1.451181,-15.791942 0.233418,-21.172638 0.762503,-2.435477 1.886741,-6.277802 2.498305,-8.538502 0.611564,-2.260699 2.462698,-5.810076 4.11363,-7.887504 C 59.15584,55.528891 59.84647,51.894909 57.75,50.284991 57.0625,49.757048 52,47.915336 46.5,46.192298 34.917669,42.56379 22.361794,35.734736 16.192113,29.708046 8.9869423,22.669864 2.5748666,11.623553 3.7363158,8.25 4.507858,6.0089733 7.1184087,6.9194816 13.348037,11.602378 c 10.10132,7.593298 22.50261,13.14127 35.922765,16.070786 5.988343,1.307209 12.449931,1.788958 23.729198,1.769152 14.890966,-0.02615 15.833986,-0.151074 24,-3.179352 4.675,-1.733673 12.99722,-4.281987 18.49383,-5.66292 9.6322,-2.419936 10.15109,-2.693325 14.34003,-7.555416 C 132.22427,10.270083 134.8254,8 135.61414,8 c 0.78874,0 3.7019,1.559988 6.47368,3.46664 2.77179,1.906652 6.69844,3.709454 8.7259,4.006226 11.15084,1.632223 22.45407,3.885717 28.25499,5.633122 l 6.56871,1.978685 7.59788,-3.042336 C 197.41413,18.369051 201.59817,17 202.53316,17 c 1.73184,0 1.71699,0.95353 -0.10742,6.896702 -0.73533,2.395385 -0.73237,2.396322 5.37583,1.705258 7.6313,-0.863384 18.51095,-3.079642 27.90937,-5.685329 9.35893,-2.594737 51.54438,-10.9946444 52.15416,-10.3848624 1.01252,1.0125204 -1.13862,1.6612294 -14.9911,4.5207844 -21.66585,4.472461 -38.62865,8.734337 -45.874,11.525764 -15.29547,5.892913 -19.84988,8.76455 -18.69085,11.784922 0.30344,0.790751 4.07051,2.777422 8.37128,4.414823 23.13027,8.806235 54.90907,9.112647 76.28486,0.735542 6.41714,-2.514857 8.9152,-2.250516 7.73741,0.818759 -0.85856,2.237382 -12.24517,10.008444 -21.24561,14.499574 -8.62335,4.302969 -21.64211,8.362806 -32.95709,10.277508 -5.01959,0.849406 -15.70097,0.985162 -37.75457,0.479843 l -30.75456,-0.704686 -13.84711,5.557699 C 156.52785,76.499035 149.77481,79 149.13702,79 c -0.6378,0 -3.80628,1.806583 -7.04107,4.014629 -3.23479,2.208045 -7.27798,4.501467 -8.98487,5.096492 -2.39373,0.834459 -3.92588,2.646974 -6.69985,7.925846 -3.9709,7.556643 -11.30778,15.823933 -16.36308,18.438133 -1.80025,0.93095 -5.58505,1.92995 -8.41067,2.22002 -4.239436,0.43519 -5.443384,0.18827 -6.88748,-1.41261 z M 113.50735,109.25 C 118.13235,105.6633 126,95.072786 126,92.433857 c 0,-1.638277 4.90711,-5.738525 8.79518,-7.349018 C 137.91091,83.794263 141,78.236177 141,73.920747 c 0,-1.221522 0.43861,-1.767708 1.09417,-1.362547 1.10064,0.680231 0.85601,3.278375 -0.64874,6.890322 -0.75933,1.822642 -0.6123,1.806491 2.27577,-0.25 C 145.41935,77.989335 147.21471,77 147.71089,77 c 1.17357,0 21.58432,-7.952345 22.26718,-8.67564 0.28706,-0.304063 -1.50307,-0.230119 -3.97807,0.164319 -3.12311,0.497727 -4.19402,0.396859 -3.5,-0.329663 2.29429,-2.401715 18.29435,-3.234655 41.77984,-2.174996 36.921,1.665863 55.61059,-0.901157 74.15456,-10.185152 8.11219,-4.061343 18.03173,-10.666072 17.22733,-11.470469 -0.23774,-0.237746 -3.97139,0.707484 -8.297,2.100509 C 259.07976,55.537855 221.06574,50.777023 200,35.48745 182.57398,22.839596 167.00826,18.524774 143.31463,19.774248 l -8.18538,0.431652 -0.64652,-3.85295 c -0.35558,-2.119122 -0.74533,-4.25994 -0.8661,-4.757373 -0.12077,-0.497433 -1.88484,1.364111 -3.92015,4.136763 -3.30821,4.506691 -4.20397,5.111624 -8.44852,5.705537 -6.66238,0.932224 -23.75077,6.277787 -29.73235,9.300824 -2.758585,1.394164 -7.427259,4.074147 -10.37483,5.955518 -6.704384,4.279262 -8.011348,3.581158 -1.661355,-0.887399 L 84.178545,32.5 69.339272,31.871551 C 45.719974,30.871264 31.08559,26.367319 14.310797,14.935735 10.195999,12.131608 6.6314412,10.035226 6.3895581,10.277109 c -1.1679939,1.167993 4.8422699,9.962033 11.1082689,16.253289 8.105603,8.138275 14.967052,12.048343 30.866008,17.589315 6.124891,2.134596 11.727218,4.668404 12.449616,5.630685 1.222764,1.6288 1.478372,1.559728 3.702034,-1.000398 2.875918,-3.311073 3.992976,-3.568584 2.376301,-0.547799 -0.878051,1.640652 -0.887023,2.299387 -0.03518,2.583333 2.122909,0.707636 1.162863,2.189496 -2.563345,3.956596 -8.874986,4.208834 -13.84242,16.954419 -12.37724,31.75787 1.253002,12.659701 4.310739,17.78988 10.307479,17.29357 3.242658,-0.26837 3.299116,-2.93729 0.259137,-12.250013 C 61.117186,87.360614 60,82.708818 60,81.206232 c 0,-1.832439 -0.713908,-3.056999 -2.168205,-3.719104 -2.525783,-1.149924 -4.573648,-4.078609 -3.56043,-5.091827 0.385345,-0.385344 1.639589,0.493072 2.787211,1.952037 2.626893,3.339553 3.50718,3.322183 6.409029,-0.12647 1.286167,-1.528522 3.507115,-3.404563 4.93544,-4.168979 C 71.685685,68.295073 71.654325,67.940895 68,65.5 66.353163,64.4 65.004457,63.174056 65.002875,62.77568 64.998481,61.668815 71.071645,58.728891 75,57.936228 l 3.5,-0.70623 -3.100777,-0.114999 C 71.556264,56.972475 66.657145,58.610938 61.75,61.679851 59.6875,62.969732 58,63.60247 58,63.085935 c 0,-0.516534 2.418879,-2.323096 5.375286,-4.014581 5.589838,-3.198181 14.32789,-5.113073 15.473337,-3.390889 0.358257,0.538641 5.070835,1.513048 10.472396,2.165349 13.060121,1.577159 21.508051,6.055383 25.316561,13.420246 2.3886,4.619037 1.90601,12.861216 -1.10391,18.853836 -1.39758,2.782524 -2.27537,5.489033 -1.95063,6.014465 0.58709,0.949929 -5.06582,6.970709 -11.39812,12.139879 -1.823287,1.48838 -3.034229,3.16057 -2.690978,3.71596 0.34325,0.55539 2.998688,1.0098 5.900968,1.0098 4.57139,0 5.92335,-0.50135 10.11244,-3.75 z M 121,76.223566 c 0,-0.544726 1.0125,-1.236424 2.25,-1.537106 1.2375,-0.300682 4.35264,-1.295009 6.92254,-2.209615 3.46677,-1.233797 5.14413,-1.388705 6.5,-0.600292 1.54872,0.900551 1.29362,1.073963 -1.67254,1.136931 -3.10168,0.06585 -6.53515,1.035188 -12.25,3.458445 -0.98819,0.419022 -1.75,0.310905 -1.75,-0.248363 z M 116.41373,71.75 c -0.9007,-1.7875 -3.02553,-4.7125 -4.72185,-6.5 C 109.61854,63.065206 109.0993,62 110.10767,62 112.74255,62 120,70.755498 120,73.934259 120,76.11386 117.9983,74.894706 116.41373,71.75 Z m 29.35545,-4.5 c 1.04795,-1.5125 2.21419,-3.601908 2.59163,-4.643128 0.37745,-1.041221 0.96125,-1.61815 1.29733,-1.282065 0.75549,0.755485 -1.65556,6.90473 -3.10137,7.90988 -2.24701,1.562162 -2.61047,0.646261 -0.78759,-1.984687 z m -39.64162,34 c 1.24387,-1.586056 1.2085,-1.621426 -0.37756,-0.37756 -0.9625,0.75485 -1.75,1.54235 -1.75,1.75 0,0.82304 0.82119,0.29331 2.12756,-1.37244 z M 113,74.448973 c 0,-2.279788 -5.8553,-4.371086 -20.801075,-7.429379 -7.315592,-1.496959 -13.840592,-3.304991 -14.5,-4.017848 -0.961759,-1.039714 -0.803294,-1.155181 0.801075,-0.583711 1.1,0.391816 7.625,1.829828 14.5,3.195583 6.875,1.365754 13.625,2.75379 15,3.084523 2.48109,0.596784 2.48573,0.585231 0.61398,-1.527448 C 103.07356,60.91715 78.629216,57.2729 73.680276,61.962654 72.299217,63.271385 79.762702,68.592572 86.81904,71.330104 98.282984,75.777584 113,77.530783 113,74.448973 Z M 74,65.5 c -3.347094,-3.453325 -5,-4.324505 -5,-2.635297 0,0.754532 6.748145,5.913778 7.946167,6.075186 C 77.191559,68.97295 75.865783,67.425 74,65.5 Z M 207.2592,33.727163 c 0.81907,-1.25006 4.02083,-3.553712 7.11501,-5.119226 6.2705,-3.172583 6.99496,-3.860999 2.79581,-2.656697 -1.5565,0.446396 -6.0565,1.135655 -10,1.531686 -7.8652,0.789871 -8.24573,0.476595 -6.14204,-5.056515 0.56539,-1.487083 0.83601,-2.895756 0.60138,-3.130384 -0.5139,-0.513897 -13.61867,4.99036 -13.58027,5.703973 0.0301,0.559563 16.09015,10.840864 17.0859,10.938034 0.34924,0.03408 1.30514,-0.96081 2.12421,-2.210871 z M 143,15.215608 C 143,14.445806 137.76518,11 136.59571,11 c -0.81362,0 -0.75621,3.506166 0.071,4.333333 C 137.60218,16.268849 143,16.168512 143,15.215608 Z"
       id="path1"
       sodipodi:insensitive="true" />
    <path
       style="fill:#ffffff;fill-opacity:1;stroke:#000000;stroke-width:0.561798;stroke-opacity:0"
       d="m 58.988764,103.11571 c -3.06099,-1.2661 -4.907341,-4.897879 -6.169439,-12.135283 -2.841782,-16.295983 1.569995,-30.242877 11.304467,-35.736674 3.937365,-2.222109 4.551186,-3.009604 3.36636,-4.318824 -0.764158,-0.84438 -0.814753,-1.331804 -0.293483,-2.827128 0.95414,-2.737046 0.188162,-2.756973 -2.375691,-0.0618 -1.944512,2.044105 -2.462815,2.32665 -3.231405,1.761532 C 59.83401,48.506716 53.876935,45.893456 46.067416,42.98824 37.235185,39.702565 31.065136,36.776825 26.304934,33.617183 22.164625,30.869003 14.666007,23.497023 11.253789,18.820225 8.5343871,15.093002 6.2132222,11.015242 6.5941567,10.634308 c 0.1165263,-0.116527 3.3574772,1.825717 7.2021133,4.316097 13.200465,8.550658 23.576462,12.888096 36.102535,15.0918 7.186617,1.264337 17.695594,2.24406 24.258498,2.261552 2.47191,0.0066 5.446607,0.16936 6.610433,0.361713 l 2.116051,0.349734 -3.239647,2.360933 c -7.632101,5.561989 -5.425741,5.724266 3.778118,0.277878 3.673843,-2.174 8.274753,-4.673852 10.224236,-5.555226 5.166939,-2.336006 18.792296,-6.607325 25.321786,-7.937948 3.10937,-0.633652 6.11121,-1.397099 6.67074,-1.69655 0.55952,-0.299451 2.44889,-2.316277 4.19858,-4.481836 1.74969,-2.165559 3.2831,-3.835538 3.40757,-3.711064 0.12448,0.124474 0.54365,1.945674 0.93149,4.047112 l 0.70518,3.820796 14.30065,0.06637 c 11.26964,0.0523 15.28327,0.274369 18.93671,1.047734 10.66878,2.258379 19.18763,6.060209 30.53929,13.629218 3.89701,2.598426 9.23599,5.732178 11.8644,6.963893 16.95305,7.944469 40.63457,11.20679 60.82542,8.379195 5.61782,-0.786737 8.63912,-1.465869 16.46882,-3.701878 3.80503,-1.086644 7.04816,-1.845802 7.20695,-1.687018 0.51882,0.51883 -11.59648,8.162096 -17.42348,10.992066 -7.73747,3.757819 -14.39829,6.019303 -22.48737,7.634929 -12.2242,2.44153 -17.89808,2.699884 -50.05705,2.279306 -20.54341,-0.268669 -31.28086,-0.197784 -34.63117,0.228623 -8.11508,1.032837 -11.0365,2.634888 -5.39692,2.959579 l 2.94944,0.169809 -7.02247,2.743483 c -3.86236,1.508915 -8.74607,3.349427 -10.85269,4.090022 -2.10662,0.740596 -4.85783,1.995247 -6.1138,2.788107 l -2.28358,1.441562 0.46234,-1.599 c 0.78299,-2.708028 0.63355,-6.093388 -0.26899,-6.093388 -0.51598,0 -1.02328,1.092725 -1.43448,3.089888 -1.08717,5.280241 -2.9301,7.78841 -7.35233,10.006348 -2.07541,1.040899 -2.97799,1.115185 -9.98151,0.821545 l -7.69977,-0.322831 0.41699,-2.022197 c 0.81776,-3.965702 0.40798,-9.912455 -0.8596,-12.47445 -1.40252,-2.834747 -1.15224,-3.728898 0.30381,-1.085359 2.52177,4.578449 4.65237,5.934084 4.65237,2.960163 0,-2.610832 -5.18377,-9.37009 -8.53553,-11.12971 -2.05418,-1.078411 -2.64653,-0.007 -0.97804,1.76901 1.79776,1.913625 1.09404,2.189913 -1.20082,0.471455 -4.86833,-3.645548 -10.768981,-5.632199 -21.588981,-7.268648 -3.398876,-0.514057 -7.03228,-1.289517 -8.074224,-1.723246 -1.04195,-0.433729 -2.522315,-0.788597 -3.289697,-0.788597 -4.183,0 -13.535753,3.724952 -17.172609,6.839394 -2.770958,2.372923 -0.682109,1.985314 5.047514,-0.936624 3.11264,-1.587356 5.99223,-2.634131 7.758679,-2.820401 l 2.808989,-0.296205 -2.247191,0.761552 c -3.525129,1.194634 -7.044326,3.158915 -7.421786,4.142552 -0.229057,0.596912 0.297932,1.422312 1.571977,2.462139 l 1.916545,1.564205 -3.403494,-0.308618 c -3.32045,-0.301086 -3.441832,-0.263055 -4.974698,1.558652 -1.415071,1.681713 -1.54752,2.194669 -1.332882,5.162022 l 0.238321,3.294753 -1.835765,-2.003842 c -1.009671,-1.102118 -2.227868,-2.003849 -2.707104,-2.003849 -1.696014,0 -0.832766,1.867405 2.218549,4.799231 2.38383,2.290477 3.089888,3.349736 3.089888,4.635595 0,0.916685 1.011236,5.171478 2.247191,9.45509 2.350606,8.146815 2.697713,10.771922 1.573033,11.896602 -0.763915,0.76391 -2.990604,0.8299 -4.662921,0.13818 z M 126.64158,75.254809 c 1.93639,-0.786826 5.14823,-1.582567 7.13743,-1.768326 3.97518,-0.371208 4.80715,-0.90014 2.96584,-1.885579 -1.43297,-0.766904 -2.6867,-0.549567 -10.08032,1.747456 -3.64984,1.133915 -5.59711,2.016893 -5.59711,2.53796 0,1.165579 1.59667,0.984686 5.57416,-0.631511 z m 20.54825,-6.433275 c 1.38677,-1.532365 3.16119,-6.881895 2.50368,-7.548126 -0.64058,-0.649083 -0.44861,-0.900546 -3.29533,4.31648 -2.09371,3.837045 -2.24803,4.353932 -1.29988,4.353932 0.59173,0 1.53291,-0.505028 2.09153,-1.122286 z"
       id="path1254" />
    <path
       style="display:inline;fill:#ffffff;fill-opacity:1;stroke:#000000;stroke-width:0.561798;stroke-opacity:0"
       d="m 113.57718,107.04506 c -0.56626,-0.57622 -1.59225,-1.1889 -2.27998,-1.36151 -0.68772,-0.17261 -2.20767,-0.7138 -3.37767,-1.20266 l -2.12725,-0.88882 2.86229,-3.02645 c 1.57425,-1.664549 2.88163,-3.231191 2.90527,-3.481429 0.3985,-4.218054 0.46174,-4.25155 7.34808,-3.89165 3.44284,0.179933 6.3568,0.424236 6.47546,0.542897 0.37855,0.378548 -5.29681,8.403712 -8.08645,11.434522 -2.6196,2.84609 -2.7172,2.89529 -3.71975,1.8751 z"
       id="path1255" />
    <path
       style="fill:#ffffff;fill-opacity:1;stroke:#000000;stroke-width:0.561798;stroke-opacity:0"
       d="m 114.46629,92.019251 c -1.37068,-0.264005 -1.51025,-0.592153 -0.75739,-1.780725 0.36313,-0.573288 1.2671,-0.68555 3.50264,-0.434986 1.65725,0.185749 4.47573,0.343862 6.26328,0.351362 3.0743,0.0129 3.21758,0.07442 2.64878,1.137233 -0.53607,1.001647 -1.13272,1.115292 -5.4973,1.047089 -2.69278,-0.04208 -5.46478,-0.186067 -6.16001,-0.319973 z"
       id="path1256" />
    <path
       style="fill:#ffffff;fill-opacity:1;stroke:#000000;stroke-width:0.369004;stroke-opacity:0"
       d="m 59.086716,75.415129 c -0.37051,-1.852551 -0.265924,-5.468746 0.183463,-6.343447 0.227751,-0.4433 0.848892,-1.271924 1.380314,-1.841388 0.951943,-1.020087 1.022323,-1.033916 4.761921,-0.935691 3.449106,0.0906 3.8706,0.179577 4.615996,0.974485 l 0.820298,0.874786 -0.871138,0.706661 c -1.028179,0.834052 -1.748078,0.870762 -3.0034,0.153155 -1.506168,-0.861003 -3.7915,-0.701354 -4.762974,0.332733 -1.003356,1.068024 -1.384315,3.420181 -0.817351,5.046576 0.489949,1.405467 0.04557,2.185267 -1.245301,2.185267 -0.635742,0 -0.885433,-0.271163 -1.061828,-1.153137 z"
       id="path1257" />
    <path
       style="fill:#ffffff;fill-opacity:1;stroke:#000000;stroke-width:0.369004;stroke-opacity:0"
       d="m 61.66213,75.050228 c -0.465418,-1.475155 -0.52592,-2.497581 -0.226204,-3.822635 0.566496,-2.5045 2.237113,-3.188034 5.377576,-2.200237 1.997823,0.628392 2.041883,0.669616 1.209268,1.131426 -0.475254,0.2636 -1.536608,0.485157 -2.358563,0.492349 -1.848909,0.01618 -2.380074,0.516909 -2.380074,2.243707 0,1.453653 -1.298853,3.179626 -1.622003,2.15539 z"
       id="path1258" />
    <path
       style="fill:#ffffff;fill-opacity:1;stroke:#000000;stroke-width:0.369004;stroke-opacity:0"
       d="m 58.671587,103.07592 c -3.521307,-1.94277 -5.448141,-6.63751 -6.487384,-15.806547 -1.121358,-9.89351 0.736203,-19.399487 5.062517,-25.907196 1.954048,-2.939306 3.748365,-4.536535 7.506269,-6.681771 3.455454,-1.972579 3.832225,-2.532111 2.522694,-3.746376 l -0.984834,-0.913189 0.780413,-1.847188 c 0.429229,-1.015956 0.661292,-1.966314 0.515697,-2.11191 -0.145597,-0.145595 -1.419298,0.881013 -2.83045,2.281353 l -2.56573,2.54607 -1.021694,-0.978845 C 59.747779,48.548624 55.113491,46.448119 46.678967,43.342632 39.313076,40.630602 31.730659,37.229703 28.42511,35.155332 21.252901,30.654471 12.877784,22.12605 8.0341691,14.391144 6.7821286,12.391725 6.1548198,10.516605 6.737968,10.516605 c 0.1982251,0 2.3333851,1.275104 4.7448,2.833565 11.622577,7.511493 17.325167,10.497484 25.172852,13.181012 10.434391,3.568056 19.474612,4.934447 38.029195,5.747949 4.545281,0.199282 8.332484,0.430664 8.416,0.514182 0.08352,0.08352 -1.164435,1.079464 -2.773232,2.213214 -4.900387,3.453398 -6.63083,5.462905 -3.678897,4.27219 0.6661,-0.268683 3.369764,-1.760441 6.008141,-3.315016 7.646531,-4.505461 9.338922,-5.377588 13.837638,-7.130844 7.230015,-2.817706 18.760985,-6.198963 24.723245,-7.24966 4.10502,-0.723405 5.17005,-1.400345 8.20951,-5.218048 3.24572,-4.076759 3.87952,-4.682695 4.13463,-3.952833 0.16918,0.484015 1.30541,6.897166 1.30782,7.381661 6.5e-4,0.13023 5.77147,0.218913 12.82406,0.197073 13.90719,-0.04307 16.80607,0.213068 24.5159,2.166139 8.73596,2.213009 16.00105,5.667803 26.30815,12.510422 10.3265,6.85549 17.47887,10.09412 28.41949,12.868485 10.88802,2.761026 20.33028,3.77386 32.28406,3.462974 11.32713,-0.294583 17.29327,-1.270114 29.6332,-4.845372 6.53141,-1.892349 6.83699,-1.946253 6.11729,-1.079061 -1.66913,2.011175 -10.57469,7.529691 -17.85788,11.066012 -9.98649,4.848897 -20.55527,7.7781 -33.387,9.253414 -4.97925,0.572479 -8.15542,0.636505 -24.53875,0.494649 -37.29725,-0.322941 -47.62115,-0.229646 -51.41118,0.464605 -6.35773,1.164594 -7.57642,2.743539 -1.76877,2.29162 1.85045,-0.143989 3.28143,-0.184974 3.17995,-0.09108 -0.33993,0.314546 -11.55965,4.764369 -17.48276,6.933793 -3.22253,1.180295 -6.76674,2.748605 -7.87602,3.485126 -1.10928,0.736524 -2.10508,1.250937 -2.21288,1.143136 -0.1078,-0.107801 0.0739,-0.870454 0.4037,-1.69479 0.79157,-1.978321 0.80992,-5.485387 0.0303,-5.784564 -0.78587,-0.301565 -0.8835,-0.135941 -1.25477,2.128587 -0.83634,5.101132 -3.25806,8.754177 -7.08364,10.685324 l -2.16971,1.095266 -8.02212,-0.09944 c -7.77358,-0.09635 -8.01964,-0.122299 -7.94205,-0.837443 0.044,-0.405904 0.25823,-2.123756 0.476,-3.81745 0.50367,-3.917332 7e-4,-7.81572 -1.37894,-10.687797 -1.31218,-2.731639 -5.1315,-6.571657 -8.27917,-8.324041 -4.95491,-2.758516 -8.313099,-3.668775 -21.253298,-5.760841 -2.488794,-0.402369 -5.261052,-1.066852 -6.160565,-1.476631 -1.956088,-0.8911 -2.404133,-0.90607 -5.842823,-0.195247 -5.230889,1.081299 -12.214653,4.416498 -14.624409,6.984103 -1.475052,1.571672 -0.142701,1.189956 5.036874,-1.443052 4.993842,-2.538594 8.048753,-3.524516 10.787631,-3.481538 l 1.67524,0.02629 -2.216834,0.635085 c -2.795649,0.800904 -7.127771,2.814694 -8.180867,3.802882 -0.441982,0.414738 -0.718446,0.975985 -0.614365,1.247211 0.104077,0.271228 1.420498,1.419863 2.925372,2.552524 1.504879,1.13266 2.736141,2.219402 2.736141,2.414981 0,0.692303 -2.971768,2.21879 -4.845949,2.489188 -2.042856,0.294735 -2.284789,0.543842 -2.774915,2.857214 -0.196402,0.927026 -0.518587,1.476015 -0.866221,1.476015 -0.304428,0 -0.6431,0.332103 -0.752602,0.738007 -0.118144,0.437941 -0.568243,0.781329 -1.107011,0.844558 -0.69297,0.08132 -1.429339,-0.421 -3.110387,-2.121772 -2.248292,-2.274682 -2.916845,-2.625151 -3.267008,-1.712645 -0.353682,0.92169 1.078285,2.952332 3.298034,4.676874 1.961251,1.523712 2.201531,1.863052 2.482228,3.505535 0.417244,2.441498 2.228096,9.573362 3.413089,13.442137 1.273753,4.15855 1.575199,7.747848 0.722328,8.600718 -0.725476,0.72548 -3.999347,0.84847 -5.184206,0.19476 z M 127.42525,74.913277 c 2.46626,-0.879273 4.76403,-1.430222 6.51809,-1.562882 3.25098,-0.245871 4.01961,-0.607561 2.97875,-1.401687 -1.224,-0.933863 -3.70734,-0.622586 -9.17749,1.150358 -5.53486,1.793916 -7.07081,2.518642 -6.67956,3.15169 0.34595,0.559768 2.03477,0.204631 6.36021,-1.337479 z m -7.54026,-1.391705 c -0.10191,-3.366875 -7.8349,-12.380867 -9.93126,-11.576417 -0.29927,0.114841 -0.54414,0.344196 -0.54414,0.509675 0,0.165476 1.06196,1.57817 2.3599,3.139318 1.29793,1.561144 3.06228,3.963254 3.92076,5.338014 1.95027,3.123148 2.93674,4.21772 3.66619,4.067949 0.39928,-0.08198 0.55743,-0.524366 0.52855,-1.478539 z M 61.331092,72.052273 c -0.08826,-0.459007 -0.16383,-0.170354 -0.167926,0.641454 -0.0041,0.811808 0.06812,1.187362 0.16048,0.834561 0.09236,-0.352801 0.09571,-1.017008 0.0074,-1.476015 z m 1.262104,-2.77183 c 0.458992,-0.585262 0.445941,-0.598314 -0.139321,-0.139321 -0.355167,0.278542 -0.645757,0.569133 -0.645757,0.645756 0,0.303705 0.303022,0.108233 0.785078,-0.506435 z m 84.471354,-0.479008 c 1.77409,-1.899162 3.39112,-7.239531 2.30834,-7.623457 -0.24617,-0.08729 -0.87878,0.713719 -1.42541,1.804867 -0.54054,1.078993 -1.54524,2.896808 -2.23267,4.039594 -0.68743,1.142786 -1.24987,2.263635 -1.24987,2.490775 0,0.819185 1.5714,0.388934 2.59961,-0.711779 z M 65.77921,68.565653 c -0.3528,-0.09236 -1.017007,-0.09571 -1.476014,-0.0074 -0.459008,0.08826 -0.170355,0.16383 0.641453,0.167926 0.811809,0.0041 1.187362,-0.06812 0.834561,-0.16048 z"
       id="path1259" />
    <path
       style="fill:#ffffff;fill-opacity:1;stroke:#000000;stroke-width:0.369004;stroke-opacity:0"
       d="m 58.302583,102.81524 c -2.658,-1.65082 -4.148029,-4.517653 -5.394878,-10.379816 -1.12393,-5.284247 -1.223967,-15.667273 -0.193757,-20.110701 1.02969,-4.441199 2.634506,-8.290136 4.657886,-11.171324 2.053398,-2.923934 3.819609,-4.468063 7.622232,-6.663827 3.102735,-1.791627 3.53431,-2.505044 2.172358,-3.591026 l -0.9608,-0.766118 0.764837,-1.784295 c 0.420661,-0.981362 0.704,-1.965957 0.629639,-2.187986 -0.07436,-0.222029 -1.318041,0.737733 -2.763738,2.132805 L 62.207823,50.829446 60.99321,49.800015 C 59.329037,48.389565 55.182037,46.530028 46.678967,43.381438 36.892412,39.757588 29.278624,36.006882 24.685815,32.547168 18.869,28.165422 11.605108,20.25546 8.0127418,14.391144 6.7838331,12.385026 6.16538,10.516605 6.7302579,10.516605 c 0.1939846,0 1.8309896,0.938582 3.6377891,2.085737 9.703843,6.161071 12.545359,7.8304 17.189345,10.098373 12.201766,5.958951 24.276073,8.535355 44.029324,9.394937 2.638376,0.114811 6.416767,0.306007 8.396428,0.42488 l 3.59938,0.216131 -3.230376,2.320752 c -3.375026,2.424671 -5.719539,4.610482 -4.945229,4.610482 0.652553,0 2.844583,-1.162251 8.910424,-4.724458 2.942805,-1.728183 6.678967,-3.7593 8.302583,-4.513594 6.074321,-2.821987 20.630464,-7.365103 27.824534,-8.684313 4.72623,-0.866671 5.88651,-1.557056 8.84088,-5.260463 2.85462,-3.578357 3.95281,-4.684019 4.21109,-4.239734 0.0962,0.165435 0.47215,2.014326 0.83551,4.108646 l 0.66064,3.807856 9.80998,-0.25574 c 13.63524,-0.35546 20.83694,0.334573 29.54499,2.830864 7.93229,2.273909 14.36162,5.430904 24.07995,11.823974 7.41218,4.875996 14.26146,8.421443 20.20709,10.459943 12.96345,4.444605 26.55967,6.423281 40.95951,5.96089 10.97527,-0.352429 16.75786,-1.293716 28.57479,-4.651398 3.64049,-1.034414 6.78239,-1.826313 6.98201,-1.759775 1.17403,0.391345 -8.30475,6.647232 -16.07039,10.606272 -17.83524,9.092679 -32.21021,11.492639 -64.87387,10.830956 -21.55574,-0.436664 -41.08163,-0.352768 -45.14102,0.193956 -3.56725,0.480446 -6.80994,1.512741 -6.51949,2.075457 0.10549,0.204388 1.60528,0.3061 3.50245,0.237528 1.82488,-0.06596 3.23632,-0.04287 3.13653,0.05131 -0.45069,0.425384 -9.83757,4.132147 -18.85686,7.446347 -2.35636,0.865863 -5.23889,2.184941 -6.40562,2.931284 -1.16672,0.746347 -2.20488,1.273428 -2.30702,1.171291 -0.10213,-0.102133 0.0821,-0.971513 0.40931,-1.931948 0.32725,-0.960439 0.59501,-2.537129 0.59501,-3.503756 0,-3.19951 -1.55662,-2.630192 -1.95271,0.714184 -0.28632,2.417494 -1.73523,5.558948 -3.42824,7.432904 -0.78284,0.866513 -2.52526,2.118295 -3.94084,2.83117 l -2.53754,1.277885 -7.76419,-0.05784 -7.76419,-0.05784 0.26351,-1.527959 C 116.51354,79.390107 116.29061,74.81628 114.83096,71.65255 111.46834,64.364225 103.69452,59.963472 90.590406,57.929996 83.095332,56.766923 80.45393,56.212498 78.795782,55.454339 c -1.555538,-0.711243 -1.869269,-0.732771 -4.433018,-0.304214 -3.386004,0.566012 -7.040258,1.845333 -10.766937,3.769406 -3.039133,1.569096 -5.832938,3.747373 -5.388738,4.201495 0.150428,0.153793 2.475151,-0.821952 5.166051,-2.168318 5.293118,-2.648365 8.24079,-3.58635 11.150882,-3.54835 l 1.859742,0.02428 -1.845019,0.498937 c -4.692254,1.268897 -9.409594,3.671321 -9.409594,4.792074 0,0.589089 0.971598,1.537332 3.661067,3.573063 0.89735,0.679229 1.696955,1.433587 1.776896,1.676354 0.216816,0.658406 -2.758863,2.385277 -4.48452,2.602495 -1.921963,0.241922 -2.654114,0.891465 -2.931096,2.600383 -0.241288,1.488701 -1.944088,3.396318 -3.031668,3.396318 -0.356155,0 -1.68511,-0.99631 -2.953232,-2.214022 -1.268118,-1.217713 -2.486096,-2.214023 -2.706616,-2.214023 -0.220517,0 -0.400941,0.472794 -0.400941,1.05065 0,1.040347 1.144291,2.383867 4.353088,5.110985 1.040181,0.884037 1.265897,1.381679 1.556875,3.432461 0.187177,1.319189 0.945011,4.557196 1.684085,7.195572 2.532405,9.040329 2.738055,9.916428 2.738055,11.664555 0,1.10015 -0.215613,1.96698 -0.579864,2.33123 -0.830959,0.83096 -4.098413,0.76546 -5.508697,-0.11043 z M 126.82729,75.066616 c 2.70363,-0.92993 5.49378,-1.615358 7.32849,-1.800317 1.62948,-0.164269 3.07941,-0.415388 3.22207,-0.558041 0.14265,-0.142657 -0.0725,-0.509354 -0.47806,-0.814889 -1.11035,-0.836443 -4.04866,-0.420974 -9.59352,1.356491 -5.01103,1.606339 -6.62948,2.372697 -6.26304,2.965612 0.36388,0.588764 1.23562,0.415617 5.78406,-1.148856 z m -6.89708,-0.724996 c 0.77206,-2.432565 -6.50519,-11.91348 -9.40274,-12.250037 -1.4125,-0.164063 -1.22119,0.550587 0.76682,2.86452 1.04078,1.211414 2.81173,3.614008 3.93544,5.3391 3.15023,4.836148 4.17094,5.714827 4.70048,4.046417 z m 26.63446,-5.069384 c 1.20372,-0.949553 2.79845,-4.429513 2.99469,-6.534908 l 0.17259,-1.851719 -0.78848,0.702948 c -0.43367,0.38662 -0.78849,0.866465 -0.78849,1.066321 0,0.19986 -0.73766,1.590672 -1.63925,3.090698 -2.06861,3.441653 -2.32279,4.183343 -1.4299,4.172417 0.36885,-0.0045 1.03432,-0.295104 1.47884,-0.645757 z"
       id="path1260" />
    <path
       style="fill:#ffffff;fill-opacity:1;stroke:#000000;stroke-width:0.369004;stroke-opacity:0"
       d="m 58.302583,102.81524 c -2.658,-1.65082 -4.148029,-4.517653 -5.394878,-10.379816 -1.12393,-5.284247 -1.223967,-15.667273 -0.193757,-20.110701 2.008458,-8.662749 5.643395,-14.092273 11.702971,-17.480782 1.130413,-0.632126 2.436767,-1.55538 2.903011,-2.051672 l 0.847719,-0.902354 -0.953557,-0.883727 -0.953557,-0.883727 0.724317,-1.906251 c 0.972524,-2.559471 0.400591,-2.477048 -2.455756,0.353912 L 62.248668,50.83028 60.829129,49.689531 C 59.135786,48.328745 55.09679,46.544954 46.125461,43.195768 37.50299,39.976818 29.236832,35.940915 25.276753,33.016508 19.382916,28.664077 11.632579,20.362363 8.2263913,14.753145 6.803281,12.409605 6.1370981,10.516605 6.7354718,10.516605 c 0.1968523,0 2.4980639,1.353097 5.1138042,3.006883 11.221658,7.094823 15.337901,9.337243 21.823321,11.888763 9.837492,3.870305 22.086318,6.007284 38.283123,6.679027 2.841328,0.11784 6.621136,0.311094 8.399572,0.429451 l 3.233516,0.215196 -3.233516,2.329054 c -3.380595,2.434991 -5.166499,4.084455 -4.809181,4.44177 0.281162,0.281165 2.853922,-1.052053 8.217727,-4.258475 2.435424,-1.455869 6.088561,-3.459017 8.118081,-4.45144 6.029579,-2.948428 21.070531,-7.684323 29.335791,-9.236869 4.08439,-0.767209 4.98408,-1.433992 10.08148,-7.471597 0.97839,-1.158855 1.9094,-2.026348 2.06892,-1.927762 0.15952,0.09859 0.5913,1.936917 0.95953,4.08518 l 0.6695,3.905934 9.8077,-0.248736 c 10.66449,-0.270465 17.04943,0.09438 23.52669,1.344366 9.17657,1.770897 18.86179,5.920291 28.26289,12.10855 12.32059,8.110013 18.79142,11.142114 29.97583,14.046096 9.87724,2.56458 17.76614,3.508008 29.33381,3.508008 12.57356,0 19.38703,-0.945661 31.36531,-4.353281 3.14576,-0.894915 6.30074,-1.738026 7.01107,-1.873579 l 1.29152,-0.24646 -1.73182,1.582396 c -3.78772,3.460902 -15.90545,10.210326 -24.04617,13.393403 -5.54001,2.166185 -14.05005,4.323469 -20.96325,5.314152 -10.10904,1.44866 -18.59464,1.688933 -43.44124,1.230059 -24.15589,-0.446115 -34.87768,-0.225679 -39.33782,0.808782 -4.78521,1.109856 -4.72966,1.911893 0.12376,1.786808 l 3.19727,-0.0824 -2.02952,0.932885 c -1.11623,0.513089 -5.5166,2.262406 -9.77859,3.887373 -11.43136,4.358432 -11.45365,4.367742 -13.71026,5.726598 -1.14553,0.6898 -2.15964,1.177317 -2.25359,1.083369 -0.094,-0.09395 0.0969,-0.956628 0.42419,-1.917063 0.65942,-1.935295 0.77142,-4.454399 0.23572,-5.301734 -0.5455,-0.86282 -1.06551,-0.04667 -1.51316,2.374852 -0.91669,4.958882 -3.31692,8.320328 -7.41452,10.383852 l -2.50273,1.260351 h -7.80019 -7.80018 l 0.31865,-1.752768 c 0.17526,-0.964022 0.31865,-3.915343 0.31865,-6.558487 0,-4.688129 -0.0297,-4.866025 -1.21381,-7.270398 -0.716,-1.453856 -2.09745,-3.362151 -3.36839,-4.652978 -4.61064,-4.682771 -10.43571,-7.003465 -22.724074,-9.053199 -4.261993,-0.710912 -8.690196,-1.653037 -9.840454,-2.093609 -2.0581,-0.788295 -2.140295,-0.791137 -5.166052,-0.178602 -5.132528,1.03903 -11.19407,3.74965 -14.329288,6.407816 -2.239192,1.898476 -0.897926,1.718978 3.321473,-0.444502 5.302391,-2.718782 8.934269,-3.930406 11.688239,-3.899284 l 2.14896,0.02428 -1.956701,0.526631 c -4.994583,1.344255 -9.643653,3.895624 -9.200915,5.049384 0.121682,0.317096 1.395022,1.513081 2.829649,2.657745 1.434624,1.144664 2.60841,2.238104 2.60841,2.429867 0,0.585916 -2.948919,2.249558 -4.375392,2.468392 -2.06642,0.317007 -2.576258,0.724332 -3.02414,2.416095 -0.477391,1.803214 -2.002288,3.59151 -3.06252,3.59151 -0.401435,0 -1.779273,-1.007676 -3.06186,-2.239281 -1.28259,-1.231605 -2.500568,-2.135088 -2.706616,-2.007745 -0.987303,0.610188 -0.269742,1.949826 2.389011,4.46014 l 2.76607,2.611642 0.553517,3.174103 c 0.304435,1.745757 1.32097,5.801144 2.25897,9.011975 1.963203,6.720158 2.427646,10.328956 1.454546,11.302056 -0.875221,0.87522 -4.099494,0.83695 -5.55321,-0.0659 z M 126.78913,75.079745 c 2.52773,-0.869435 5.59001,-1.632498 7.36286,-1.834697 1.66938,-0.190395 3.13649,-0.447424 3.26023,-0.57117 0.12375,-0.123745 -0.10685,-0.474756 -0.51243,-0.780022 -1.02222,-0.769376 -3.60695,-0.46279 -8.34159,0.989439 -4.99279,1.53141 -7.34049,2.547473 -7.34049,3.176904 0,0.784864 0.89899,0.626661 5.57142,-0.980454 z m -7.00494,-0.633251 c 0.0884,-1.343605 -0.13808,-2.174022 -1.0562,-3.872483 -2.21503,-4.097653 -7.36121,-9.068974 -8.81176,-8.512343 -0.64063,0.24583 -0.15808,1.095147 2.26699,3.989993 0.85008,1.01476 2.55992,3.365 3.79965,5.222756 2.04376,3.062627 2.6285,3.698852 3.48207,3.788701 0.15222,0.01602 0.29588,-0.261457 0.31925,-0.616624 z m 26.87227,-5.316531 c 1.16793,-1.088092 2.66857,-4.482188 2.89357,-6.544546 l 0.18543,-1.699808 -0.79023,0.702948 c -0.43464,0.38662 -0.79408,0.884775 -0.79875,1.107011 -0.005,0.222233 -0.83494,1.814163 -1.84502,3.537617 -1.01008,1.723457 -1.83652,3.259435 -1.83652,3.413284 0,0.574092 1.36662,0.252 2.19152,-0.516506 z"
       id="path1261" />
    <path
       style="fill:#ffffff;fill-opacity:1;stroke:#000000;stroke-width:0.369004;stroke-opacity:0"
       d="m 117.08078,89.946863 -3.21442,-0.122778 0.42936,-1.000604 c 0.23615,-0.550331 0.47947,-1.070503 0.54073,-1.155936 0.12812,-0.178699 2.26412,-0.133019 9.5047,0.203265 l 5.15295,0.239327 -1.26448,1.055632 c -1.37629,1.148983 -1.42604,1.152468 -11.14884,0.781094 z"
       id="path1262" />
    <path
       style="fill:#ffffff;fill-opacity:1;stroke:#000000;stroke-width:0.369004;stroke-opacity:0"
       d="m 128.44733,88.431477 c -0.10434,-0.168834 -3.13138,-0.417949 -6.72675,-0.553588 -3.59537,-0.135638 -6.60808,-0.317665 -6.69492,-0.404503 -0.61494,-0.614943 1.05834,-0.735143 7.97685,-0.573017 l 7.87336,0.184502 -1.11941,0.826789 c -0.61567,0.454735 -1.20478,0.688652 -1.30913,0.519817 z"
       id="path1263" />
    <path
       style="display:inline;fill:#ffffff;fill-opacity:1;stroke:#000000;stroke-width:0.369004;stroke-opacity:0"
       d="m 125.20503,93.716712 c -0.42342,-0.423421 -10.46804,-0.911542 -11.66251,-0.566744 -1.14774,0.331311 -1.20335,0.305009 -0.96892,-0.458283 0.13679,-0.445371 0.2717,-0.839553 0.29981,-0.875958 0.0281,-0.03641 0.83666,0.101351 1.79678,0.306125 0.96012,0.204774 3.87472,0.317586 6.47689,0.250694 l 4.73121,-0.121623 -0.15929,0.830258 c -0.17015,0.886941 -0.21147,0.938032 -0.51397,0.635531 z"
       id="path1264" />
    <path
       style="fill:#ffffff;fill-opacity:1;stroke:#000000;stroke-width:0.369004;stroke-opacity:0"
       d="m 111.99262,108.85785 c -0.50738,-0.28907 -2.62454,-1.14872 -4.70479,-1.91033 l -3.78228,-1.38475 1.01475,-0.83085 c 0.55812,-0.45696 1.17256,-0.83681 1.36544,-0.84411 0.72649,-0.0275 7.19235,2.65268 7.60812,3.15365 0.23878,0.28771 0.69183,0.52312 1.00679,0.52312 0.43912,0 0.37057,0.21509 -0.29401,0.9225 -1.00125,1.06579 -0.99575,1.06487 -2.21402,0.37077 z"
       id="path1265" />
    <path
       style="display:inline;fill:#ffffff;fill-opacity:1;stroke:#000000;stroke-width:0.369004;stroke-opacity:0"
       d="m 107.38007,111.06866 c -0.8118,-0.27807 -2.78459,-0.98745 -4.38396,-1.5764 l -2.90795,-1.07082 1.20848,-0.86051 1.20847,-0.86051 3.54449,1.22827 c 1.94947,0.67555 4.02987,1.47029 4.62311,1.76609 l 1.07862,0.53782 -0.89412,0.6873 c -1.04979,0.80698 -1.49938,0.82621 -3.47714,0.14876 z"
       id="path1266" />
    <path
       style="fill:#ffffff;fill-opacity:1;stroke:#000000;stroke-width:0.369004;stroke-opacity:0"
       d="m 104.4597,110.12986 c -2.21505,-0.80105 -4.0927,-1.52177 -4.17253,-1.60161 -0.0798,-0.0798 0.37152,-0.51306 1.00301,-0.96272 l 1.14817,-0.81757 3.20887,1.12349 c 1.76488,0.61793 3.86447,1.39882 4.66576,1.73533 l 1.45689,0.61183 -0.90339,0.6943 c -1.23978,0.95284 -1.79398,0.8851 -6.40678,-0.78305 z"
       id="path1267" />
    <path
       style="fill:#ffffff;fill-opacity:1;stroke:#000000;stroke-width:0.369004;stroke-opacity:0"
       d="m 111.62362,110.22676 c 0,-0.20912 -1.99225,-1.10122 -4.42721,-1.98245 -4.0797,-1.47648 -5.43972,-2.42274 -3.28157,-2.28322 1.11982,0.0724 8.81579,3.08716 8.81579,3.45344 0,0.15054 -0.24908,0.48042 -0.55351,0.73307 -0.32866,0.27277 -0.5535,0.30492 -0.5535,0.0792 z"
       id="path1268" />
    <path
       style="display:inline;fill:#ffffff;fill-opacity:1;stroke:#000000;stroke-width:0.369004;stroke-opacity:0"
       d="m 98.735845,112.42545 c -1.34341,-0.40323 -1.313859,-0.97004 0.134137,-2.5728 l 1.312908,-1.45323 3.87047,1.42759 c 2.12876,0.78518 4.41233,1.43425 5.07461,1.44238 l 1.20413,0.0148 -1.10701,0.61859 c -0.82404,0.46047 -2.19173,0.64068 -5.35055,0.70499 -2.33395,0.0475 -4.646362,-0.0345 -5.138695,-0.18229 z"
       id="path1269" />
    <path
       style="fill:#ffffff;fill-opacity:1;stroke:#000000;stroke-width:0.369004;stroke-opacity:0"
       d="m 98.735845,112.42545 c -1.519063,-0.45596 -1.303863,-1.1543 1.065852,-3.45878 2.061653,-2.0049 2.396783,-2.19856 3.442633,-1.98939 1.08753,0.21751 1.11411,0.19806 0.43317,-0.31676 -0.70475,-0.53282 -0.69912,-0.54898 0.19704,-0.56587 0.64854,-0.0122 0.77629,-0.11008 0.43015,-0.3295 -0.37895,-0.24021 -0.26678,-0.48954 0.48697,-1.08244 0.77449,-0.60921 1.17195,-0.69712 1.90015,-0.42026 1.36573,0.51925 1.56889,0.39789 0.39737,-0.23738 l -1.0289,-0.55792 2.76568,-2.97699 c 2.31402,-2.490817 2.80549,-3.242488 3.00948,-4.602761 0.15577,-1.038746 0.52429,-1.82224 1.0206,-2.169871 0.42724,-0.299255 0.57381,-0.544096 0.3257,-0.544096 -0.24811,0 -0.45111,-0.21896 -0.45111,-0.486572 0,-0.382609 1.08409,-0.471414 5.0738,-0.415628 l 5.0738,0.07095 -4.49045,-0.230129 c -2.46975,-0.126572 -4.61483,-0.354919 -4.76685,-0.507439 -0.15203,-0.15252 -0.0908,-0.650675 0.13607,-1.107011 2.51624,-5.061473 3.04161,-14.589517 1.03727,-18.812089 -2.73332,-5.758347 -8.88042,-10.129756 -17.21899,-12.245007 -1.914162,-0.485568 -6.219929,-1.329417 -9.568376,-1.875218 -3.348446,-0.545804 -7.286808,-1.400181 -8.751911,-1.898616 -2.400126,-0.816535 -2.881598,-0.866757 -4.86365,-0.507343 -4.591273,0.832557 -9.924472,2.984502 -13.62573,5.497978 -2.198111,1.492708 -2.87886,2.149501 -2.559211,2.469151 0.08923,0.08922 2.053819,-0.76614 4.365768,-1.900801 5.572236,-2.73476 8.973623,-3.85055 11.662634,-3.825808 l 2.14896,0.01977 -2.767528,0.826428 c -2.99076,0.893093 -7.482575,2.980838 -8.154051,3.789915 -0.647226,0.779864 -0.212857,1.387211 2.593612,3.626443 1.434624,1.144664 2.60841,2.238104 2.60841,2.429867 0,0.614609 -2.801768,2.141801 -4.845786,2.641347 -1.907701,0.466236 -2.001203,0.547823 -2.534288,2.211292 -0.637214,1.988413 -2.018675,3.623358 -3.061579,3.623358 -0.395403,0 -1.797993,-1.009425 -3.116868,-2.243166 -1.607797,-1.504019 -2.520243,-2.120875 -2.769081,-1.872037 -0.74804,0.74804 0.152314,2.268461 2.666528,4.502963 2.056579,1.827782 2.618251,2.557756 2.789734,3.625668 0.44638,2.779841 1.033329,5.203391 2.647388,10.931221 1.967217,6.981085 2.418376,10.738171 1.380583,11.497021 -0.888565,0.64974 -3.996583,0.63498 -5.259827,-0.025 -2.659922,-1.3896 -4.38959,-4.615597 -5.65631,-10.549542 -1.196048,-5.602878 -1.21966,-16.075206 -0.04675,-20.733121 2.132473,-8.468569 5.427358,-13.339255 11.372439,-16.811366 1.410012,-0.823494 2.871163,-1.837048 3.247,-2.252347 0.668923,-0.739147 0.662775,-0.774147 -0.291335,-1.658387 -0.96751,-0.896657 -0.970259,-0.914358 -0.373797,-2.405066 1.03052,-2.575523 0.443701,-2.597095 -2.177543,-0.08005 l -2.46373,2.365797 -0.827189,-0.76883 C 60.244081,49.069919 56.236358,47.107908 51.476015,45.261201 39.288413,40.533203 36.557033,39.408431 33.210332,37.739458 26.880654,34.582898 23.688276,32.220931 17.892065,26.405831 12.458506,20.954562 8.1185714,15.410128 6.9646598,12.445648 5.9060867,9.7260983 5.9258015,9.732889 14.02214,14.876573 c 14.574097,9.259067 23.248019,12.812031 37.084871,15.1905 5.114074,0.879077 14.114295,1.729427 21.402214,2.0221 2.942805,0.11818 6.642642,0.31199 8.221864,0.43069 l 2.871306,0.215817 -3.055808,2.218616 c -3.330557,2.418091 -5.085332,3.942794 -5.085332,4.418586 0,0.522017 2.23469,-0.592928 8.275306,-4.128764 3.204583,-1.875781 7.178509,-4.043069 8.830952,-4.816196 5.687088,-2.660812 17.982107,-6.563138 26.692037,-8.471807 2.67763,-0.586767 5.36489,-1.323586 5.97169,-1.637376 0.6068,-0.31379 1.98613,-1.595828 3.06517,-2.848973 3.75811,-4.364486 4.81662,-5.466807 5.0883,-5.298899 0.15039,0.09294 0.57369,1.920762 0.94068,4.06182 l 0.66726,3.892834 9.99445,-0.23989 c 10.81315,-0.259541 16.70513,0.08788 23.46308,1.383492 9.25988,1.775275 18.66227,5.862911 28.96679,12.593147 7.39738,4.831477 11.48739,7.130006 16.43194,9.234519 15.54035,6.614325 35.98172,9.285864 55.33928,7.232443 4.93887,-0.523907 9.84927,-1.545955 17.52768,-3.648193 3.65313,-1.000177 7.14022,-1.931379 7.74907,-2.069338 l 1.10702,-0.250833 -0.92251,1.016211 c -1.68944,1.861039 -9.67459,6.835939 -16.22368,10.107648 -11.32385,5.657033 -19.79484,8.10462 -34.32983,9.919162 -4.35088,0.543163 -9.46627,0.623867 -40.4059,0.637465 -32.75748,0.0144 -35.60314,0.06487 -37.79918,0.670402 -3.99862,1.10258 -3.99647,1.52565 0.009,1.738429 l 3.473,0.184501 -6.64206,2.653299 c -3.65314,1.459314 -8.71771,3.418366 -11.25462,4.35345 -2.5369,0.935082 -5.75898,2.358502 -7.16017,3.163152 -1.4012,0.804653 -2.61637,1.394265 -2.70039,1.310254 -0.084,-0.08401 0.10763,-1.029524 0.42587,-2.10114 0.64984,-2.188251 0.74043,-4.308136 0.21932,-5.132387 -0.55504,-0.877915 -1.02028,-0.0691 -1.61964,2.815745 -0.97728,4.703779 -3.21928,7.880801 -6.85748,9.717358 -1.12976,0.570303 -3.0721,1.802151 -4.31632,2.737446 -1.24421,0.935296 -2.63337,1.700536 -3.08701,1.700536 -0.6295,0 -0.73172,0.112151 -0.43172,0.473631 0.57188,0.689073 -0.024,1.401808 -1.45428,1.739468 l -1.24696,0.294384 1.19926,0.03777 c 1.26432,0.03982 1.79345,1.139583 0.55351,1.150432 -0.46152,0.004 -0.51399,0.08932 -0.18388,0.298915 0.76584,0.486262 -4.51297,7.914471 -9.13763,12.858251 -1.94373,2.07785 -2.38541,2.37739 -3.24469,2.20045 -0.54708,-0.11266 -0.78712,-0.11455 -0.53343,-0.004 0.91819,0.39934 0.4209,1.11465 -1.64587,2.36742 -2.05233,1.24401 -2.21785,1.27915 -6.36531,1.35123 -2.34201,0.0407 -4.661013,-0.0469 -5.153345,-0.19468 z m 11.411755,-4.49187 c -0.30443,-0.19674 -0.71956,-0.3577 -0.92251,-0.3577 -0.20295,0 -0.11992,0.16096 0.1845,0.3577 0.30443,0.19674 0.71956,0.3577 0.92251,0.3577 0.20296,0 0.11993,-0.16096 -0.1845,-0.3577 z m -4.42804,-0.369 c -0.30443,-0.19674 -0.71956,-0.35771 -0.92251,-0.35771 -0.20295,0 -0.11993,0.16097 0.1845,0.35771 0.30443,0.19673 0.71956,0.3577 0.92251,0.3577 0.20295,0 0.11993,-0.16097 -0.1845,-0.3577 z m 8.48708,-0.16895 c 0,-0.28202 -3.07376,-1.9523 -4.05904,-2.20569 -0.50738,-0.13048 0.15683,0.3333 1.47602,1.03061 2.83601,1.49911 2.58302,1.38402 2.58302,1.17508 z m -7.01107,-0.56906 c -0.30443,-0.19674 -0.71956,-0.3577 -0.92251,-0.3577 -0.20295,0 -0.11992,0.16096 0.1845,0.3577 0.30443,0.19674 0.71956,0.3577 0.92251,0.3577 0.20296,0 0.11993,-0.16096 -0.1845,-0.3577 z m 15.76668,-13.553433 c -0.7656,-0.07988 -1.92796,-0.07854 -2.58302,0.003 -0.65508,0.08152 -0.0287,0.146875 1.39199,0.145237 1.42066,-0.0016 1.95663,-0.06833 1.19103,-0.148214 z m -5.53505,-0.369004 c -0.7656,-0.07988 -1.92796,-0.07854 -2.58303,0.003 -0.65507,0.08152 -0.0287,0.146874 1.39199,0.145236 1.42067,-0.0016 1.95663,-0.06833 1.19104,-0.148214 z m 9.26427,-17.821321 c 2.46112,-0.817 5.84401,-1.657144 7.51755,-1.866989 1.67353,-0.209841 3.1187,-0.457439 3.21147,-0.550214 0.52189,-0.521886 -0.99161,-1.074092 -2.84568,-1.038262 -3.19811,0.0618 -13.3571,3.429207 -13.3571,4.42748 0,0.75852 0.56061,0.658966 5.47376,-0.972015 z m -6.94977,-1.300399 c 0,-1.663118 -0.68008,-3.001919 -3.23994,-6.378158 -2.1739,-2.867185 -4.90004,-5.227133 -6.03822,-5.227133 -1.11749,0 -0.81774,0.652398 1.84137,4.007771 1.38947,1.753292 3.12729,4.136875 3.86182,5.296852 1.44813,2.286916 2.62342,3.610506 3.20596,3.610506 0.20296,0 0.36901,-0.589428 0.36901,-1.309838 z m 27.0997,-5.055476 c 0.65761,-0.659594 1.55429,-2.160288 1.99262,-3.334874 0.7975,-2.137015 1.07489,-4.537266 0.48201,-4.170849 -0.34437,0.21283 -4.85109,8.077502 -4.85109,8.465631 0,0.639565 1.30892,0.110867 2.37646,-0.959908 z"
       id="path1270" />
    <path
       style="fill:#ffffff;fill-opacity:1;stroke:#000000;stroke-width:0.369004;stroke-opacity:0"
       d="m 98.735845,112.42545 c -1.518804,-0.45588 -1.303952,-1.15421 1.063395,-3.45639 1.81407,-1.76413 2.46596,-2.18347 3.18165,-2.04666 0.72717,0.13901 0.8199,0.0754 0.48269,-0.33089 -0.32424,-0.39068 -0.27892,-0.50295 0.20305,-0.50295 0.34126,0 0.52606,-0.15276 0.41067,-0.33946 -0.34633,-0.56037 1.56952,-1.82037 2.4769,-1.62898 0.76124,0.16057 0.77224,0.14016 0.14048,-0.26071 -0.63442,-0.40256 -0.55003,-0.57596 1.13473,-2.33166 2.92977,-3.053119 3.70978,-4.179518 3.97296,-5.737244 0.13636,-0.807167 0.4669,-1.649296 0.73451,-1.871392 0.26761,-0.222096 0.40131,-0.729811 0.29712,-1.128254 -0.14861,-0.568292 -0.001,-0.725657 0.68385,-0.730089 0.62278,-0.004 0.73132,-0.09564 0.37835,-0.31935 -0.39941,-0.253152 -0.27227,-0.962192 0.65872,-3.673672 0.91681,-2.670173 1.1988,-4.214428 1.37353,-7.521978 0.36491,-6.907151 -0.91943,-10.248649 -5.63446,-14.659332 -4.46085,-4.172908 -10.28478,-6.335151 -22.471112,-8.342834 -3.247232,-0.534978 -7.110439,-1.365705 -8.584904,-1.846063 -2.349594,-0.765461 -2.942328,-0.827136 -4.797048,-0.499121 -4.74614,0.839372 -11.080882,3.493623 -14.662328,6.143505 -2.852129,2.110262 -1.238096,1.92269 3.378745,-0.392657 4.951664,-2.483262 8.413159,-3.580579 11.14352,-3.532572 l 2.082901,0.03662 -2.12976,0.558605 c -2.844192,0.745993 -8.910753,3.820052 -9.052037,4.586867 -0.07034,0.381768 0.920044,1.449225 2.675277,2.883484 1.53283,1.252516 2.786963,2.430609 2.786963,2.617978 0,0.530981 -2.840277,2.193243 -4.161949,2.435767 -1.822317,0.334395 -2.740483,1.075214 -3.229704,2.605889 -0.542506,1.697377 -2.08279,3.426355 -3.052417,3.426355 -0.391547,0 -1.698358,-0.913284 -2.904026,-2.029521 -2.342436,-2.168679 -3.25707,-2.515738 -3.25707,-1.235889 0,0.505889 0.994092,1.743583 2.741826,3.413716 l 2.74183,2.620077 0.757609,3.689609 c 0.416683,2.029284 1.432856,6.014332 2.258163,8.855661 1.824428,6.28107 2.290468,10.376265 1.266077,11.125315 -0.891686,0.65202 -3.998007,0.63888 -5.263535,-0.0223 -3.219472,-1.68193 -5.129779,-5.934561 -6.167077,-13.728837 -2.057532,-15.460285 2.156114,-28.657296 10.758494,-33.695296 4.660971,-2.729704 5.30724,-3.545749 3.784542,-4.778756 -0.744195,-0.602613 -0.751575,-0.684284 -0.184501,-2.041484 1.156649,-2.768255 0.53783,-2.767398 -2.366938,0.0033 l -2.164845,2.064911 -1.245771,-0.950195 C 59.1601,48.474369 54.553871,46.418462 45.571956,42.983761 31.688794,37.674814 26.137506,34.477518 19.164931,27.774483 12.138801,21.019963 5.3805626,11.83961 6.5634587,10.656713 c 0.2734193,-0.273419 1.9707293,0.650974 6.1031763,3.323925 5.933747,3.838069 12.331252,7.519449 16.136481,9.285576 11.766956,5.461417 23.958124,7.89398 44.259615,8.831335 2.435424,0.112448 5.809402,0.300145 7.497723,0.417105 l 3.069683,0.212654 -2.331676,1.683149 c -3.232583,2.333484 -5.837206,4.526012 -5.837206,4.913664 0,0.55469 1.632173,-0.250149 8.012387,-3.95098 3.385572,-1.963794 7.492697,-4.196766 9.126948,-4.962161 5.724462,-2.681029 18.74467,-6.796105 27.39816,-8.659274 5.25063,-1.130503 6.22275,-1.714452 9.61688,-5.776826 1.40604,-1.682863 2.8296,-3.286017 3.16345,-3.562564 0.76161,-0.630864 0.77477,-0.598577 1.63337,4.008348 l 0.65333,3.505535 13.09442,0.0081 c 8.87878,0.0055 13.98539,0.159511 15.86194,0.478332 12.99342,2.207557 21.22162,5.56112 34.17198,13.927476 7.63782,4.934281 15.93269,9.153486 21.73208,11.054082 13.26539,4.347381 28.09307,6.21544 42.63567,5.371437 9.76671,-0.566827 16.00707,-1.721174 28.02776,-5.1846 4.81748,-1.388022 5.19123,-1.401957 4.03189,-0.150323 -2.85969,3.087336 -16.14646,10.609967 -24.61479,13.936266 -6.9284,2.721431 -15.60548,4.778136 -25.35728,6.010372 -4.61368,0.582982 -8.93404,0.65393 -40.40591,0.663532 -35.70184,0.01089 -37.14354,0.05911 -40.31365,1.348173 -1.74635,0.710122 -1.12717,1.028661 2.21402,1.138989 l 3.22878,0.106616 -7.56457,3.014214 c -4.16052,1.65782 -9.39115,3.698259 -11.62362,4.53431 -2.23247,0.836052 -5.03562,2.100856 -6.22922,2.810679 -1.19361,0.709823 -2.24273,1.218048 -2.33138,1.129395 -0.0887,-0.08866 0.0992,-1.037967 0.41742,-2.109583 0.6562,-2.209686 0.73997,-4.318937 0.20395,-5.135472 -0.52435,-0.79876 -0.92715,-0.04783 -1.61997,3.020055 -1.05995,4.693594 -3.12321,7.513509 -7.0947,9.696517 -1.31902,0.725022 -3.27418,1.979583 -4.3448,2.787911 -1.07062,0.808329 -2.23986,1.469687 -2.59829,1.469687 -0.40762,0 -0.57731,0.19387 -0.45307,0.517638 0.25506,0.664675 -0.46376,1.585081 -1.41119,1.806952 -0.66475,0.155672 -0.65559,0.177074 0.0923,0.215631 0.75539,0.03895 1.26044,1.149815 0.52275,1.149815 -0.16912,0 -0.3075,0.21379 -0.3075,0.475089 0,1.791118 -10.62807,15.023061 -12.06672,15.023061 -0.33133,0 -0.60241,0.21399 -0.60241,0.47554 0,0.26155 -0.9482,1.05029 -2.10712,1.75277 -2.05233,1.24401 -2.21785,1.27915 -6.36531,1.35123 -2.34201,0.0407 -4.661013,-0.0469 -5.153345,-0.19468 z m 13.832005,-6.16412 c -0.39396,-0.29798 -0.89211,-0.53589 -1.10701,-0.5287 -0.2149,0.007 0.0244,0.25039 0.53178,0.54043 1.1953,0.6833 1.48629,0.67736 0.57523,-0.0117 z m 9.65694,-12.941836 c -0.12262,-0.122616 -0.44089,-0.135723 -0.70726,-0.02913 -0.29437,0.117794 -0.20693,0.205233 0.22294,0.222938 0.38899,0.01602 0.60693,-0.07119 0.48432,-0.193808 z M 117.994,92.175672 c -0.45385,-0.08759 -1.28411,-0.08986 -1.84501,-0.005 -0.56091,0.08481 -0.18958,0.156479 0.82518,0.159251 1.01476,0.0028 1.47369,-0.06663 1.01983,-0.154214 z m 8.62668,-17.086089 c 2.49981,-0.813277 5.83539,-1.656018 7.4124,-1.872756 3.34912,-0.460292 3.93843,-0.823964 2.27488,-1.403879 -1.58523,-0.552612 -4.12458,-0.08314 -9.7223,1.797447 -4.24259,1.425317 -5.36795,1.977535 -5.36795,2.634048 0,0.531092 0.64364,0.393516 5.40297,-1.15486 z m -6.87898,-1.397576 c 0,-2.969369 -6.88385,-11.514885 -9.27583,-11.514885 -1.10484,0 -0.82492,0.641561 1.58602,3.635015 1.25031,1.552402 2.99081,3.940365 3.8678,5.306586 2.58193,4.02231 3.82201,4.857229 3.82201,2.573284 z m 26.68019,-4.512649 c 0.52219,-0.410764 1.3731,-1.614638 1.89088,-2.675277 0.99366,-2.035406 1.72981,-5.7319 1.05893,-5.317269 -0.36686,0.22673 -4.90676,8.120402 -4.90676,8.531539 0,0.457778 1.0614,0.165439 1.95695,-0.538993 z"
       id="path1271" />
    <path
       style="fill:#ffffff;fill-opacity:1;stroke:#000000;stroke-width:0.369004;stroke-opacity:0"
       d="m 200,32.791263 c -7.9114,-4.961257 -11.6416,-7.555882 -11.40746,-7.934724 0.46304,-0.749229 12.54169,-5.76413 12.93526,-5.370558 0.0856,0.08557 -0.26257,1.465015 -0.77365,3.065429 -1.67804,5.254703 -1.46462,5.510552 4.3324,5.193679 3.66718,-0.200454 11.37716,-1.302805 13.372,-1.911892 1.18885,-0.362995 0.0484,0.355362 -4.25191,2.678208 -2.83229,1.529887 -4.54519,2.765981 -6.36768,4.595158 -1.37124,1.376261 -2.69965,2.493123 -2.95203,2.481914 -0.25239,-0.01121 -2.45151,-1.269954 -4.88693,-2.797214 z"
       id="path1272" />
    <path
       style="fill:#ffffff;fill-opacity:1;stroke:#000000;stroke-width:0.369004;stroke-opacity:0"
       d="m 136.99262,15.284096 c -0.47739,-0.278053 -0.64576,-0.852389 -0.64576,-2.202801 0,-1.110236 0.1633,-1.826682 0.41634,-1.826682 0.48261,0 3.78502,1.883545 5.07954,2.897135 0.49225,0.385427 0.7685,0.877422 0.62398,1.111272 -0.32326,0.523038 -4.58412,0.539442 -5.4741,0.02108 z"
       id="path1273" />
    <path
       style="fill:#ffffff;fill-opacity:1;stroke:#000000;stroke-width:0.369004;stroke-opacity:0"
       d="M 104.42804,75.578362 C 98.142874,74.776007 89.558264,72.426663 84.517189,70.129371 81.039559,68.544564 76.369287,65.54202 74.723247,63.83279 l -1.291513,-1.341093 0.86519,-0.705976 c 1.530356,-1.248739 3.683183,-1.620681 9.282412,-1.603715 10.397891,0.03151 21.004794,3.110867 24.962384,7.246997 1.31845,1.377922 1.35458,1.470635 0.49887,1.280263 -0.50738,-0.112879 -6.66131,-1.379214 -13.675406,-2.814079 -7.014093,-1.434864 -13.988263,-2.924319 -15.498155,-3.309899 -1.509892,-0.385581 -2.813428,-0.636174 -2.896747,-0.556873 -0.08332,0.0793 0.13276,0.458274 0.480175,0.842164 0.838771,0.926831 6.601823,2.559467 17.161895,4.861855 12.696798,2.768254 18.118278,4.740442 18.118278,6.590947 0,1.27047 -3.74589,1.836681 -8.30259,1.254981 z"
       id="path1274" />
    <path
       style="display:inline;fill:#ffffff;fill-opacity:1;stroke:#000000;stroke-width:0.185185;stroke-opacity:0"
       d="m 63.244808,73.684928 c 0.0069,-0.60075 0.665803,-1.84304 1.200547,-2.26367 0.546552,-0.429918 1.781339,-0.831542 2.268067,-0.737706 0.202717,0.03908 0.06493,0.210523 -0.435179,0.54146 -0.402502,0.26635 -1.250599,1.0079 -1.884662,1.647891 -0.840484,0.848342 -1.151738,1.068356 -1.148773,0.812025 z"
       id="path1275" />
    <path
       style="fill:#ffffff;fill-opacity:1;stroke:#000000;stroke-width:0.185185;stroke-opacity:0"
       d="m 99.351852,112.52512 c -0.970998,-0.15696 -1.666958,-0.49896 -1.665974,-0.81867 0.0021,-0.67937 1.802357,-2.7656 3.487042,-4.04094 1.0791,-0.8169 1.27271,-0.89882 1.86735,-0.79007 0.64908,0.1187 0.65642,0.11344 0.33936,-0.24349 -0.45471,-0.51187 -0.40953,-0.61259 0.27778,-0.61932 0.53696,-0.005 0.56727,-0.0322 0.28111,-0.24946 -0.29401,-0.22327 -0.26313,-0.28975 0.37037,-0.79739 1.03868,-0.83234 1.509,-1.03267 2.14892,-0.91536 l 0.57923,0.10619 -0.50926,-0.27866 c -0.28009,-0.15327 -0.50926,-0.33033 -0.50926,-0.39348 0,-0.0631 0.73213,-0.87298 1.62697,-1.79964 2.48601,-2.574423 3.67545,-4.098834 3.88748,-4.982243 0.10252,-0.427163 0.28389,-1.193328 0.40304,-1.702587 0.11915,-0.509259 0.38421,-1.10445 0.58904,-1.322646 0.22349,-0.238085 0.29061,-0.423985 0.16785,-0.464906 -0.14872,-0.04957 -0.14747,-0.231931 0.005,-0.668094 0.1734,-0.49741 0.30446,-0.59991 0.76709,-0.59991 0.55793,0 0.55793,-1.6e-5 0.16421,-0.324074 -0.39236,-0.322933 -0.39251,-0.326683 -0.042,-1.064814 1.37666,-2.899208 2.01368,-5.504267 2.24822,-9.193893 0.20632,-3.245643 0.0161,-6.487956 -0.47647,-8.120922 -1.33947,-4.440771 -5.76844,-8.945321 -11.28443,-11.476993 -3.81469,-1.750831 -7.377629,-2.687542 -15.555551,-4.089622 -5.358341,-0.91867 -7.323841,-1.347011 -9.537038,-2.078402 -1.258681,-0.415955 -2.075414,-0.575031 -2.87037,-0.559067 -4.444805,0.08926 -13.724004,3.864952 -16.992492,6.914217 -0.798926,0.745339 -0.901321,0.906624 -0.579275,0.912437 0.507665,0.0092 2.25521,-0.729692 5.812508,-2.457502 3.38062,-1.641994 5.569079,-2.43902 7.733298,-2.816429 1.69457,-0.295508 4.304881,-0.373339 4.016702,-0.119765 -0.09676,0.08514 -0.880478,0.342776 -1.741595,0.572524 -2.832381,0.755681 -7.146255,2.723535 -8.562698,3.906033 -0.542611,0.452991 -0.587711,0.561884 -0.424553,1.025069 0.100401,0.285029 0.80755,1.053485 1.571438,1.707678 3.084528,2.641587 3.703704,3.224216 3.703704,3.485092 0,0.353622 -2.690311,2.07823 -3.470602,2.224809 -0.330127,0.06201 -0.5626,0.173641 -0.516607,0.24806 0.08858,0.143329 -3.248126,3.105409 -3.387826,3.007459 -0.045,-0.03155 -0.224778,0.260117 -0.399511,0.648148 -0.427308,0.948933 -1.8932,2.279587 -2.511269,2.279587 -0.708107,0 -1.116902,-0.267872 -2.954926,-1.936285 -2.461461,-2.234319 -3.084457,-2.570233 -3.292359,-1.775215 -0.188994,0.722719 0.659467,1.878872 3.041485,4.144465 l 2.389721,2.272917 0.281802,1.471133 c 0.544527,2.842694 1.431624,6.509752 2.52859,10.452615 1.578406,5.67332 1.991573,7.619324 1.993528,9.389436 0.002,1.78426 -0.207515,2.34904 -0.994567,2.68138 -0.930229,0.3928 -3.558101,0.30013 -4.581977,-0.16159 -3.131554,-1.41218 -5.221424,-5.74658 -6.263741,-12.991024 -1.067672,-7.420667 -0.765865,-14.685876 0.842392,-20.278375 1.192069,-4.145259 2.743867,-7.269444 5.030188,-10.127109 1.402164,-1.752561 3.214224,-3.241591 5.952812,-4.891624 2.372884,-1.429691 3.349904,-2.274096 3.349904,-2.895211 0,-0.254087 -0.300646,-0.74415 -0.725039,-1.181837 L 66.235107,50 66.76527,48.703704 c 1.090943,-2.667447 0.6062,-2.76135 -1.900998,-0.368261 -0.745742,0.711803 -1.661103,1.576513 -2.034137,1.921576 l -0.678241,0.627388 -0.890763,-0.788772 C 60.108972,49.075393 55.550733,46.860307 50.833333,45.028222 48.847222,44.25688 45.69558,43.035104 43.829681,42.313161 37.054515,39.691756 32.26618,37.463387 28.518519,35.187743 24.86195,32.967411 22.352672,30.931394 18.175528,26.795489 12.614778,21.289639 7.6449986,14.804005 6.6457415,11.748953 6.028812,9.8627992 6.3864241,10.004591 13.300782,14.387646 c 12.926696,8.194315 20.122985,11.550618 30.09909,14.038026 8.215804,2.0485 15.852343,2.981072 30.303832,3.700697 4.074074,0.202872 7.973663,0.420433 8.665753,0.48347 l 1.258349,0.114613 -1.165756,0.850176 c -5.588439,4.075607 -7.736187,5.962409 -6.787017,5.962409 0.349548,0 3.392619,-1.589602 6.356926,-3.320652 7.272628,-4.246957 10.383141,-5.855437 14.161697,-7.323172 5.680024,-2.206338 15.157354,-5.127515 21.028564,-6.481597 5.51511,-1.271952 6.58838,-1.55768 7.61291,-2.026725 1.22017,-0.558615 3.16285,-2.448376 6.05918,-5.89415 1.21908,-1.450333 2.11608,-2.361111 2.32541,-2.361111 0.38085,0 0.43117,0.192002 1.28611,4.907407 l 0.50363,2.777778 11.29157,0.01513 c 14.67986,0.01967 18.00302,0.299842 25.36564,2.13858 9.11033,2.275211 15.67689,5.376684 27.59259,13.032335 7.98293,5.128909 14.61846,8.410879 21.55531,10.661385 8.34724,2.708078 16.99997,4.320207 27.28728,5.084029 l 1.62037,0.120311 v 6.927821 c 0,3.810302 -0.0721,6.92782 -0.16024,6.92782 -0.0881,0 -1.35896,0.160624 -2.82407,0.356943 -7.46247,0.999937 -13.07158,1.129641 -43.40458,1.003678 -32.64083,-0.135549 -36.46865,-1.73e-4 -39.63815,1.40185 -1.45252,0.64252 -0.91081,0.838598 2.51744,0.911207 1.62472,0.03441 2.95405,0.128169 2.95405,0.208348 0,0.160041 -8.75068,3.68085 -15.46297,6.221478 -5.53701,2.09578 -7.9167,3.125441 -10.18394,4.406444 -1.01784,0.575084 -1.90702,1.045608 -1.97596,1.045608 -0.0689,0 0.11751,-0.895834 0.41434,-1.990741 0.666,-2.456696 0.74955,-4.748778 0.19793,-5.429996 l -0.34392,-0.42473 -0.3059,0.466861 c -0.16824,0.256772 -0.47548,1.243859 -0.68275,2.193524 -1.27045,5.821004 -2.98507,8.105404 -8.3235,11.08945 -0.76389,0.426995 -2.22222,1.401058 -3.24074,2.164587 -1.01852,0.763528 -2.16376,1.481711 -2.54497,1.595963 -0.52926,0.158617 -0.6469,0.263419 -0.49763,0.443287 0.29883,0.360067 -0.29914,1.354195 -0.99716,1.657784 l -0.58987,0.256552 0.60538,0.0072 c 0.5629,0.0067 0.59755,0.04298 0.49375,0.516507 -0.49099,2.239959 -5.82082,9.55066 -10.74409,14.73721 -1.4081,1.4834 -1.79904,1.79804 -2.11105,1.69901 -0.21061,-0.0668 -0.37096,-0.0528 -0.35634,0.0313 0.0718,0.41289 -0.12379,0.6138 -1.47337,1.51337 -2.43996,1.62639 -2.8728,1.73524 -7.15502,1.79938 -2.03704,0.0305 -4.078705,-0.005 -4.537038,-0.0792 z m 13.703708,-5.84335 c 0,-0.14969 -1.25028,-0.84834 -1.50334,-0.84007 -0.14076,0.005 0.11908,0.20917 0.57741,0.4546 0.92193,0.49366 0.92593,0.49533 0.92593,0.38547 z m 9.12389,-13.377314 c -0.12538,-0.05073 -0.37538,-0.05381 -0.55556,-0.0069 -0.18018,0.04695 -0.0776,0.08846 0.22796,0.09223 0.30556,0.0038 0.45298,-0.03464 0.3276,-0.08537 z m -4.72575,-1.12228 c -0.28009,-0.04243 -0.73842,-0.04243 -1.01851,0 -0.2801,0.04243 -0.0509,0.07715 0.50925,0.07715 0.56019,0 0.78936,-0.03472 0.50926,-0.07715 z m 8.60755,-16.929724 c 3.69145,-1.175413 6.45339,-1.845385 9.06618,-2.199206 0.8849,-0.119831 1.75351,-0.323615 1.93025,-0.45285 0.29593,-0.216383 0.28039,-0.261803 -0.19634,-0.57417 -1.31839,-0.863843 -4.20695,-0.433448 -10.03397,1.495057 -4.76685,1.577636 -6.25071,2.365619 -5.42071,2.878591 0.33829,0.20907 0.58698,0.147763 4.65459,-1.147422 z m -6.44722,-1.641341 c -0.0182,-1.408044 -0.41552,-2.302118 -2.18058,-4.907407 -1.32858,-1.961047 -4.87624,-5.622002 -5.99089,-6.182221 -1.05247,-0.52897 -1.53515,-0.515348 -1.53515,0.04332 0,0.48098 0.45455,1.151645 2.6389,3.893493 0.81064,1.01755 2.22512,2.972502 3.14326,4.344337 1.99741,2.984389 3.01174,4.144857 3.55503,4.067207 0.34669,-0.04955 0.38348,-0.174887 0.36943,-1.258733 z M 63.964426,72.083333 c 0.229698,-0.381944 0.375967,-0.694444 0.325041,-0.694444 -0.119897,0 -0.863541,1.201587 -0.863541,1.395315 0,0.184861 0.02683,0.149942 0.5385,-0.700871 z m 1.483105,-1.18249 c 0.254134,-0.222345 -0.348618,-0.01586 -0.643618,0.220485 -0.338946,0.27155 -0.333037,0.275405 0.103494,0.06751 0.25463,-0.121266 0.497686,-0.250863 0.540124,-0.287992 z m 80.319529,-1.296112 c 1.67352,-0.79414 3.76998,-4.984712 3.76998,-7.535761 0,-0.939581 -0.003,-0.944492 -0.35878,-0.582344 -0.34534,0.351557 -3.27334,5.351787 -4.20307,7.177724 -0.6339,1.244928 -0.41007,1.510735 0.79187,0.940381 z"
       id="path1276" />
    <path
       style="fill:#ffffff;fill-opacity:1;stroke:#000000;stroke-width:0.185185;stroke-opacity:0"
       d="m 99.259259,112.52494 c -0.904718,-0.16833 -1.574311,-0.51666 -1.573381,-0.81849 0.0021,-0.67743 1.89322,-2.86313 3.563852,-4.11897 1.01103,-0.76 1.21162,-0.84195 1.79358,-0.73277 0.6367,0.11944 0.64614,0.11287 0.33374,-0.23233 -0.43434,-0.47994 -0.40531,-0.60386 0.14147,-0.60386 0.45711,0 0.67967,-0.36333 0.23148,-0.3779 -0.28459,-0.009 0.86648,-1.02586 1.59972,-1.41286 0.32514,-0.1716 0.76088,-0.24091 1.11111,-0.17673 l 0.57621,0.10558 -0.50926,-0.27866 c -0.28009,-0.15327 -0.50926,-0.32425 -0.50926,-0.37997 0,-0.0557 0.9375,-1.09824 2.08333,-2.31671 2.46062,-2.616611 3.39171,-3.928531 3.56024,-5.016472 0.17632,-1.138281 0.47246,-2.042683 0.78687,-2.403129 0.14988,-0.171823 0.22368,-0.391417 0.16399,-0.487988 -0.0597,-0.09657 -0.018,-0.435153 0.0926,-0.752409 0.15437,-0.442841 0.31108,-0.576828 0.67463,-0.576828 0.43593,0 0.45095,-0.02574 0.18903,-0.324074 -0.25881,-0.294781 -0.21841,-0.487998 0.44695,-2.137635 1.42751,-3.539209 1.67088,-4.871607 1.76589,-9.66792 0.0675,-3.408326 0.0263,-4.536737 -0.20642,-5.648148 -0.77789,-3.715265 -3.94678,-7.785648 -8.25216,-10.599737 -4.11373,-2.688823 -8.935507,-4.186495 -19.220194,-5.96991 -5.38272,-0.93339 -7.13942,-1.319611 -9.348694,-2.055366 -1.320395,-0.439732 -1.685567,-0.485474 -3.178717,-0.398171 -2.756468,0.161171 -6.713052,1.367993 -10.839344,3.30618 -2.897737,1.361115 -6.645639,3.962176 -6.261974,4.345841 0.195507,0.195509 1.429731,-0.299756 5.136594,-2.061189 5.566615,-2.645156 8.431183,-3.49995 11.327689,-3.380209 1.549704,0.06406 1.560213,0.05685 -1.420281,0.974411 -3.567969,1.098411 -8.240741,3.520637 -8.240741,4.271753 0,0.514034 0.572378,1.170552 2.194292,2.516854 2.140139,1.776463 3.176078,2.778885 3.176078,3.073317 0,0.270765 -2.298302,1.818828 -3.131511,2.109287 -0.293968,0.102478 -0.98047,0.597233 -1.525561,1.099457 -0.545093,0.502224 -1.423061,1.267863 -1.951045,1.701419 -0.527983,0.433557 -1.057609,1.014274 -1.176948,1.290481 -0.340894,0.788991 -1.935381,2.182989 -2.496953,2.182989 -0.702047,0 -1.112591,-0.26392 -2.86613,-1.842505 C 55.456539,72.891989 54.931691,72.5 54.512063,72.5 c -0.268463,0 -0.345396,0.138437 -0.345396,0.621519 0,0.836016 0.772859,1.815507 3.319479,4.206977 l 2.056026,1.930763 0.658215,3.218502 c 0.362019,1.770174 1.244317,5.353508 1.960665,7.962963 0.716346,2.609454 1.501572,5.619461 1.744946,6.688906 0.478921,2.10449 0.590295,4.66556 0.236646,5.44173 -0.307972,0.67593 -1.155438,0.94765 -2.942574,0.94347 -1.344172,-0.003 -1.73314,-0.0797 -2.627792,-0.51745 -3.760921,-1.84005 -5.971654,-8.021289 -6.624197,-18.521345 -0.31327,-5.040804 0.208025,-10.472965 1.4042,-14.632504 1.939738,-6.745179 5.065597,-11.305231 9.795867,-14.290361 2.778471,-1.753409 4.19045,-2.751587 4.371919,-3.090664 0.284152,-0.530943 0.08416,-1.08513 -0.64753,-1.794308 l -0.642235,-0.622479 0.549591,-1.490567 c 0.923611,-2.504969 0.52229,-2.515393 -2.057671,-0.05344 -0.865741,0.826139 -1.795505,1.69598 -2.066144,1.93298 l -0.492071,0.430909 -0.992496,-0.808398 C 59.293078,48.527193 56.12165,47.075237 46.747626,43.453602 39.440026,40.630324 37.78702,39.939643 34.029111,38.139369 27.448467,34.98683 23.93785,32.479146 18.268163,26.881099 12.328723,21.016708 7.0071982,13.971176 6.4633398,11.251884 6.2120299,9.9953346 6.7791255,10.255395 13.425926,14.444805 c 11.989018,7.556556 18.471905,10.722101 26.906463,13.138225 9.076657,2.600057 17.40428,3.724892 33.649092,4.545079 4.023149,0.203124 7.854834,0.423326 8.514858,0.489337 1.181755,0.118189 1.193117,0.124558 0.745539,0.417952 -0.249978,0.163865 -1.74833,1.268132 -3.329672,2.453926 -2.86256,2.146537 -4.629099,3.7444 -4.396652,3.976846 0.204289,0.204289 2.93497,-1.204992 8.225315,-4.245016 8.22339,-4.725458 11.105468,-6.043997 18.740831,-8.573857 6.2333,-2.065308 11.20609,-3.457215 17.79608,-4.981207 1.98611,-0.459306 4.02778,-1.041152 4.53703,-1.292992 1.38897,-0.686872 2.41555,-1.662353 5.37713,-5.109443 1.66462,-1.937514 2.82229,-3.134025 3.03228,-3.134025 0.37089,0 0.56721,0.766653 1.37522,5.37037 l 0.40627,2.314815 11.10826,0.0088 c 11.94874,0.0095 14.90782,0.149636 19.66522,0.931397 7.13167,1.171916 13.69595,3.270128 20.1896,6.453426 3.50058,1.716043 6.5178,3.468821 11.99417,6.967728 6.87678,4.393635 12.18397,7.289272 17.24695,9.410063 6.92596,2.901167 15.97465,5.191752 25.34565,6.416002 1.83118,0.23923 8.0885,0.819494 8.93518,0.828596 0.18102,0.0019 0.23148,1.51616 0.23148,6.946932 0,3.819444 -0.0488,6.944444 -0.10837,6.944444 -0.0596,0 -1.70998,0.206106 -3.6675,0.458011 -6.82441,0.878211 -9.21341,0.930948 -39.46487,0.871163 -35.79708,-0.07074 -39.68024,0.05934 -42.7863,1.433297 -1.45087,0.641787 -0.91032,0.83809 2.51773,0.91434 1.62456,0.03614 2.95376,0.130373 2.95376,0.209419 0,0.163422 -10.00078,4.173637 -16.38889,6.571783 -2.49015,0.934821 -5.67373,2.306311 -7.66469,3.301956 -1.87298,0.936646 -3.46994,1.72837 -3.5488,1.759385 -0.0788,0.03102 0.0994,-0.883254 0.39617,-2.031709 0.65938,-2.551876 0.73729,-4.683887 0.19561,-5.352826 l -0.34392,-0.42473 -0.3059,0.466861 c -0.16824,0.256772 -0.47463,1.251169 -0.68085,2.209769 -0.5133,2.385953 -0.84141,3.356442 -1.69725,5.020089 -1.29656,2.520366 -2.61103,3.720807 -6.74336,6.158414 -0.82726,0.487987 -2.28234,1.459784 -3.23352,2.159547 -0.95117,0.699763 -2.00921,1.364637 -2.35118,1.4775 -0.42706,0.140942 -0.58921,0.290055 -0.5178,0.476161 0.15454,0.402722 -0.38231,1.310529 -0.96054,1.624276 l -0.50694,0.275057 0.50463,0.0074 c 0.46809,0.0069 0.49604,0.05036 0.38602,0.600478 -0.33905,1.695252 -4.87137,8.196376 -8.6238,12.369906 -3.35293,3.72919 -3.76675,4.12257 -4.1941,3.98694 -0.21827,-0.0693 -0.3849,-0.0572 -0.37028,0.0269 0.0748,0.4302 -0.13316,0.64519 -1.47867,1.52854 -2.47447,1.62454 -2.86687,1.72132 -7.24231,1.78627 -2.08797,0.031 -4.129633,-0.006 -4.537041,-0.0815 z m 13.796301,-5.85451 c 0,-0.0489 -0.33334,-0.25888 -0.74075,-0.46673 -0.4074,-0.20784 -0.74074,-0.33652 -0.74074,-0.28596 0,0.0506 0.3125,0.2569 0.69445,0.45854 0.78574,0.41481 0.78704,0.41529 0.78704,0.29415 z m 9.02392,-13.356387 c -0.0615,-0.06154 -0.22126,-0.06811 -0.35494,-0.01462 -0.14773,0.05911 -0.10385,0.102996 0.11188,0.111882 0.19522,0.008 0.30459,-0.03573 0.24306,-0.09726 z m -5,-1.111112 c -0.0615,-0.06154 -0.22126,-0.06811 -0.35494,-0.01462 -0.14773,0.05912 -0.10385,0.102996 0.11188,0.111881 0.19522,0.008 0.30459,-0.03573 0.24306,-0.09726 z m 8.88198,-16.919461 c 3.97652,-1.262055 5.84306,-1.728576 8.51015,-2.127013 2.38581,-0.356414 2.96748,-0.561353 2.65658,-0.935976 -0.3714,-0.447501 -1.66029,-0.697598 -2.96152,-0.574651 -1.57961,0.14925 -4.25604,0.842222 -7.68519,1.98982 -3.25098,1.087976 -5.15538,1.970307 -5.24303,2.429165 -0.10985,0.575085 1.05774,0.381928 4.72301,-0.781345 z m -6.31469,-0.841398 c 0.48611,-1.936807 -1.75034,-5.801837 -5.5727,-9.630748 -2.00554,-2.008983 -3.26021,-2.855972 -3.87893,-2.618548 -0.58568,0.224748 -0.23512,0.891626 1.98079,3.76803 1.24768,1.619587 2.9166,3.910959 3.70871,5.09194 2.40999,3.593139 3.47106,4.549058 3.76213,3.389326 z M 63.796296,72.314815 c 0.109019,-0.203704 0.15655,-0.370371 0.105624,-0.370371 -0.05093,0 -0.18179,0.166667 -0.290809,0.370371 -0.109018,0.203704 -0.15655,0.37037 -0.105624,0.37037 0.05093,0 0.181791,-0.166666 0.290809,-0.37037 z m 82.241594,-2.935443 c 1.66581,-1.056428 3.49915,-4.935615 3.49915,-7.403916 0,-0.689456 -0.0416,-0.782595 -0.26616,-0.596213 -0.25715,0.213414 -3.52477,5.761203 -4.34509,7.377109 -0.64174,1.264148 -0.2473,1.485126 1.1121,0.62302 z"
       id="path1277" />
  </g>
</svg>
