<?xml version="1.0" encoding="UTF-8" standalone="no"?>
<!-- Created with Inkscape (http://www.inkscape.org/) -->

<svg
   version="1.1"
   id="svg1"
   width="149.99893"
   height="66.176003"
   viewBox="0 0 149.99893 66.176003"
   sodipodi:docname="wray.svg"
   inkscape:version="1.4.4 (dcaf3e7, 2026-05-05)"
   xmlns:inkscape="http://www.inkscape.org/namespaces/inkscape"
   xmlns:sodipodi="http://sodipodi.sourceforge.net/DTD/sodipodi-0.dtd"
   xmlns="http://www.w3.org/2000/svg"
   xmlns:svg="http://www.w3.org/2000/svg">
  <defs
     id="defs1">
    <filter
       style="color-interpolation-filters:sRGB"
       inkscape:label="Drop Shadow"
       id="filter6"
       x="-0.024211049"
       y="-0.065572753"
       width="1.1337658"
       height="1.5865118">
      <feFlood
         result="flood"
         in="SourceGraphic"
         flood-opacity="0.007843"
         flood-color="rgb(0,0,0)"
         id="feFlood5" />
      <feGaussianBlur
         result="blur"
         in="SourceGraphic"
         stdDeviation="3.000000"
         id="feGaussianBlur5" />
      <feOffset
         result="offset"
         dx="25.379940"
         dy="50.000000"
         id="feOffset5"
         in="blur" />
      <feComposite
         result="comp1"
         operator="in"
         in="offset"
         in2="flood"
         id="feComposite5" />
      <feComposite
         result="comp2"
         operator="over"
         in="SourceGraphic"
         in2="comp1"
         id="feComposite6" />
    </filter>
    <filter
       style="color-interpolation-filters:sRGB"
       inkscape:label="Blur Double"
       id="filter1252"
       x="-0.088854551"
       y="-0.240652"
       width="1.3483966"
       height="2.3920367"
       inkscape:menu="Blurs"
       inkscape:menu-tooltip="Overlays two copies with different blur amounts and modifiable blend and composite">
      <feFlood
         result="flood"
         in="SourceGraphic"
         flood-opacity="0.501961"
         flood-color="rgb(117,117,117)"
         id="feFlood1251" />
      <feGaussianBlur
         result="blur"
         in="SourceGraphic"
         stdDeviation="3.000000"
         id="feGaussianBlur1251" />
      <feOffset
         result="offset"
         in="blur"
         dx="25.379940"
         dy="50.000000"
         id="feOffset1251" />
      <feComposite
         result="comp1"
         operator="in"
         in="flood"
         in2="offset"
         id="feComposite1251" />
      <feComposite
         result="fbSourceGraphic"
         operator="atop"
         in="comp1"
         in2="comp1"
         id="feComposite1252" />
      <feColorMatrix
         result="fbSourceGraphicAlpha"
         in="fbSourceGraphic"
         values="0 0 0 -1 0 0 0 0 -1 0 0 0 0 -1 0 0 0 0 1 0"
         id="feColorMatrix22" />
      <feColorMatrix
         id="feColorMatrix23"
         values="0.560748 0 0 0.610199 0.219626 0 0.560748 0 0.610199 0.219626 0 0 0.560748 0.610199 0.219626 0 0 0 1 0"
         in="fbSourceGraphic"
         result="fbSourceGraphic" />
      <feColorMatrix
         result="fbSourceGraphicAlpha"
         in="fbSourceGraphic"
         values="0 0 0 -1 0 0 0 0 -1 0 0 0 0 -1 0 0 0 0 1 0"
         id="feColorMatrix24" />
      <feGaussianBlur
         id="feGaussianBlur24"
         stdDeviation="5"
         result="fbSourceGraphic"
         in="fbSourceGraphic" />
      <feGaussianBlur
         id="feGaussianBlur25"
         stdDeviation="0.01"
         in="fbSourceGraphic"
         result="result1" />
      <feComposite
         id="feComposite25"
         in2="result1"
         operator="arithmetic"
         in="fbSourceGraphic"
         k2="0.5"
         k3="0.5"
         result="result2"
         k1="0"
         k4="0" />
      <feBlend
         id="feBlend25"
         in2="fbSourceGraphic"
         mode="normal"
         result="result3" />
    </filter>
  </defs>
  <sodipodi:namedview
     id="namedview1"
     pagecolor="#ffffff"
     bordercolor="#666666"
     borderopacity="1.0"
     inkscape:showpageshadow="2"
     inkscape:pageopacity="0.0"
     inkscape:pagecheckerboard="true"
     inkscape:deskcolor="#d1d1d1"
     inkscape:zoom="1.44"
     inkscape:cx="172.56944"
     inkscape:cy="171.875"
     inkscape:window-width="1920"
     inkscape:window-height="1009"
     inkscape:window-x="-8"
     inkscape:window-y="-8"
     inkscape:window-maximized="1"
     inkscape:current-layer="g1" />
  <g
     inkscape:groupmode="layer"
     id="layer1"
     inkscape:label="shadow"
     style="fill:#ffffff;filter:url(#filter1252)"
     transform="matrix(0.39616805,0,0,0.42964842,-21.655045,-35.871748)">
    <path
       id="path431"
       style="display:inline;fill:#ffffff;fill-opacity:1;stroke:#000000;stroke-width:0.561798;stroke-opacity:0"
       d="m 148.75935,122.38727 c -3.95466,0.10976 -8.07325,0.74408 -8.8125,1.50195 -0.85592,0.87748 1.33404,2.79761 4.92578,4.86133 0.41711,-0.6608 1.07553,-1.02354 1.80273,-1.04102 1.26523,-0.0304 2.73751,0.98431 3.50586,3.29297 0.056,0.16833 0.11146,0.33708 0.16602,0.50586 3.22976,1.44122 6.80253,2.75199 10.11719,3.60156 7.05397,1.80799 17.11072,2.40392 16.64453,0.98633 -0.37845,-1.15082 -4.04518,-2.93633 -8.1211,-3.95312 -2.10048,-0.52399 -8.38972,-2.0789 -13.97656,-3.45508 -10.26891,-2.52949 -13.1582,-3.48184 -13.1582,-4.33984 0,-0.81561 1.91168,-0.53882 14.22265,2.05468 14.79946,3.11775 17.57814,3.53484 16.96875,2.54883 -1.33539,-2.1607 -13.0739,-5.87138 -20.51562,-6.48437 -1.15043,-0.0948 -2.45131,-0.11667 -3.76953,-0.0801 z" />
    <path
       id="path430"
       style="display:inline;fill:#ffffff;fill-opacity:1;stroke:#000000;stroke-width:0.561798;stroke-opacity:0"
       d="m 70.204,69.430075 c -1.412802,0.0279 -1.393958,1.637236 -0.269874,4.835456 1.262569,3.592236 4.672837,9.054237 8.640933,13.837873 6.106374,7.361385 18.82693,14.760016 34.556311,20.096976 4.75068,1.6119 9.27613,3.47749 10.05467,4.14716 1.95057,1.67781 1.44987,3.91169 -2.14414,9.59168 -2.65757,4.20003 -4.15148,8.10643 -6.43737,16.82382 -1.20045,4.57797 -1.22855,15.51646 -0.0495,19.57209 1.60395,5.51738 5.82238,10.42933 9.81452,11.43129 1.97333,0.49527 5.65842,-0.94838 6.9796,-2.73341 1.02776,-1.38861 1.06195,-1.78283 0.42833,-5.05581 -0.37799,-1.95252 -1.56746,-6.58203 -2.6418,-10.2899 -2.83338,-9.77898 -2.69409,-11.30829 1.4088,-15.63786 2.39215,-2.52432 4.51251,-3.74605 6.50422,-3.74605 0.75109,0 4.49169,1.15463 8.47009,2.60713 -0.23459,-0.8151 -0.48719,-1.62434 -0.75763,-2.42887 -0.37747,-1.12295 -0.42649,-2.07451 -0.25502,-2.82501 -1.64757,-1.00898 -3.06973,-2.06478 -4.19914,-3.13946 -1.00421,-0.95555 -1.82227,-2.03974 -1.82227,-2.40906 0,-1.40003 4.37699,-2.47839 10.05963,-2.47839 9.54157,0 20.09546,2.70342 24.40011,6.25168 2.17088,1.78942 2.79298,3.58644 1.07207,3.09489 -2.83518,-0.80982 -28.95786,-5.99707 -29.16377,-5.79116 -0.32157,0.32158 6.86837,2.19475 15.5413,4.05059 13.45373,2.87884 18.9744,5.19022 17.63593,7.38565 -0.50169,0.8229 -1.41642,1.03405 -4.77356,1.09435 -4.76173,0.0855 -5.18669,0.0292 -12.02056,-1.55982 -3.72758,-0.86674 -7.29572,-2.01751 -10.48549,-3.35239 0.43169,1.44341 0.80984,2.90008 1.13397,4.36999 2.42397,0.8254 4.61853,1.53078 5.86544,1.87179 3.86621,1.05735 16.62675,2.80768 20.46589,2.80768 h 1.81979 l -0.31939,2.66903 c -0.68031,5.68935 -3.08947,9.29092 -12.39194,18.51735 -9.55221,9.47412 -9.97113,10.26516 -7.16281,13.60266 1.22409,1.45475 1.85338,1.73067 3.96393,1.73067 10.62388,0 18.06604,-5.65735 27.16819,-20.64911 2.18908,-3.60552 4.32544,-6.43338 5.33559,-7.05883 0.92685,-0.57387 3.58268,-2.11737 5.9001,-3.43161 2.31742,-1.31425 5.66589,-3.28709 7.44259,-4.38237 1.77669,-1.09527 4.55769,-2.42246 6.17987,-2.94881 1.62218,-0.52635 8.38553,-3.10373 15.02879,-5.72678 l 12.07998,-4.76861 27.80697,0.61403 c 30.65655,0.67578 38.10402,0.38472 47.82472,-1.86436 14.1891,-3.28294 26.3077,-8.37001 37.48035,-15.7369 6.34306,-4.18242 9.63873,-7.06055 9.63873,-8.41315 0,-1.38663 -3.24383,-1.16602 -7.71247,0.52242 -10.47327,3.95725 -22.37113,5.86543 -36.57169,5.86543 -10.20656,0 -15.71439,-0.51614 -24.81607,-2.32488 -9.92725,-1.97279 -22.64868,-6.68831 -23.41223,-8.678072 -1.09023,-2.841099 2.32775,-5.588982 11.83981,-9.519882 11.67256,-4.823739 22.0341,-7.666099 49.91192,-13.691795 14.86051,-3.212049 21.26714,-5.046914 14.74901,-4.223906 -5.80394,0.732831 -37.03008,7.151114 -50.28083,10.334457 -14.46519,3.4751 -25.9986,5.630225 -30.12442,5.630225 -2.83511,0 -2.94563,-0.323098 -1.59944,-4.761179 1.53793,-5.070181 1.31557,-5.08651 -10.07201,-0.784864 l -7.24452,2.735882 -3.70892,-1.10178 c -6.51769,-1.936623 -15.26324,-3.880082 -24.21689,-5.382634 -6.12505,-1.027871 -8.55162,-1.531322 -12.34985,-3.411806 -0.46481,0.130955 -0.93114,0.256181 -1.40137,0.366435 -0.46329,0.108627 -0.98973,0.228129 -1.56478,0.354055 0.43513,0.414619 0.71059,0.779251 0.71059,1.020076 0,0.661249 -0.69591,0.854189 -3.07013,0.854189 -2.03208,0 -2.85672,-0.133256 -3.36476,-0.680875 -0.64801,0.13151 -1.30373,0.26421 -1.95845,0.396146 l 0.66354,4.107538 11.02772,-0.289682 c 22.30229,-0.590657 34.92775,2.979851 52.7493,14.919847 10.04533,6.729945 17.03702,9.890805 28.01743,12.674195 10.26393,2.60177 16.95976,3.37398 29.13653,3.35238 13.07932,-0.0232 18.39024,-0.7559 30.76073,-4.23876 4.5587,-1.28348 8.47717,-2.14259 8.70779,-1.90893 1.14245,1.15751 -11.78471,9.42865 -21.24085,13.59029 -6.8039,2.99439 -14.83829,5.41912 -21.87964,6.60078 -11.38025,1.9098 -17.59727,2.131 -48.31247,1.74056 -21.95609,-0.27909 -31.34095,-0.2011 -34.82123,0.28473 -5.93967,0.82914 -8.01126,1.8819 -2.96119,1.50536 1.93118,-0.144 3.51084,-0.0582 3.51084,0.19064 0,0.55362 -7.48766,3.72076 -16.68022,7.05388 -3.76667,1.36575 -8.0461,3.24106 -9.50998,4.16943 -1.42975,0.90672 -2.69351,1.56586 -2.85225,1.49546 h -0.002 l -0.002,-0.002 c -0.10815,-0.10816 0.085,-0.92722 0.42833,-1.8198 0.34335,-0.89257 0.84888,-2.63389 1.12407,-3.86985 0.18778,-0.84336 0.2989,-1.31264 0.3491,-1.35927 h 0.002 l 0.002,-0.002 0.002,-0.002 h 0.002 v 0.002 h 0.002 0.002 v 0.002 c 0.0458,0.0602 -0.005,0.79845 -0.13122,2.31002 l -0.2674,3.19888 2.38926,-1.3568 c 1.31384,-0.74668 6.65262,-2.94556 11.86457,-4.88497 9.28772,-3.45605 9.43473,-3.53499 7.43021,-4.04812 -2.5945,-0.66415 -2.32371,-1.47797 0.83438,-2.52048 2.03799,-0.67275 9.5122,-0.88391 41.52848,-1.17358 33.67314,-0.30465 39.7404,-0.48716 44.10095,-1.32461 12.06831,-2.31773 19.67021,-4.84392 28.52003,-9.47532 6.15364,-3.22041 15.21378,-8.85209 14.84062,-9.22525 -0.12443,-0.12443 -3.48443,0.65691 -7.46735,1.73809 -10.4142,2.82697 -16.19475,3.7317 -26.11097,4.08526 -12.85894,0.45848 -24.50027,-0.92104 -36.73016,-4.35513 -8.30097,-2.33087 -14.73559,-5.30644 -23.92969,-11.062378 -13.79853,-8.638527 -18.33753,-10.817497 -28.05704,-13.476389 -5.01631,-1.372275 -6.28555,-1.47341 -21.1641,-1.70838 l -15.83098,-0.250067 -0.69821,-3.916893 -0.10646,-0.596695 c -1.54661,0.311265 -3.06452,0.614633 -4.43684,0.893804 -3.78458,4.147796 -3.85118,4.187562 -8.17546,5.127615 -13.76752,2.992907 -25.62907,7.287917 -35.87349,12.988635 -8.02635,4.466418 -10.34188,5.402538 -10.34188,4.189248 0,-0.29018 1.64356,-1.742082 3.65197,-3.228594 1.91426,-1.416832 3.3235,-2.635585 3.25087,-2.800257 v -0.0025 l -0.002,-0.0025 -0.002,-0.0025 v -0.0025 c -0.003,-0.0021 -0.0106,-0.0057 -0.0149,-0.0074 -0.23173,-0.06197 -5.35153,-0.377878 -11.37681,-0.703159 -24.68824,-1.332818 -35.894482,-4.529858 -53.84119,-15.363035 -5.04759,-3.046879 -9.277532,-5.439291 -9.401039,-5.315784 -0.382834,0.382833 4.555884,7.560421 7.712467,11.208455 4.525844,5.230476 11.264833,10.696833 16.687648,13.538287 2.669377,1.398705 9.130554,4.230317 14.357814,6.288817 5.22726,2.05851 10.98463,4.48956 12.79304,5.40244 3.58403,1.80922 4.1832,1.72991 6.59335,-0.84676 1.89567,-2.02666 2.45011,-1.82307 2.01787,0.73534 -0.22718,1.34467 -0.13663,2.33182 0.23274,2.5601 1.48124,0.91546 0.49126,2.53728 -2.74579,4.50368 -8.40455,5.1055 -12.43579,13.63016 -12.44889,26.32885 -0.0141,13.63464 3.51041,22.07074 9.0247,21.60729 1.85954,-0.15629 2.00584,-0.30899 2.16643,-2.2407 0.0948,-1.14055 -0.71504,-5.56509 -1.79999,-9.83185 -1.08495,-4.26677 -2.12217,-8.48053 -2.30508,-9.3639 -0.1829,-0.88337 -1.58407,-2.92986 -3.11469,-4.54825 -1.53061,-1.6184 -2.78293,-3.36146 -2.78293,-3.87233 0,-1.55875 1.80268,-1.04343 4.06297,1.16368 2.40585,2.34925 1.92111,2.48274 7.09102,-1.91636 1.88355,-1.60272 3.87389,-3.17988 4.42198,-3.50341 0.88749,-0.52387 0.69294,-0.85482 -1.77028,-3.02804 -3.12306,-2.75538 -3.15395,-3.63644 -0.20055,-5.43711 1.00348,-0.61181 1.42812,-0.95916 1.35185,-1.05721 -0.15731,-0.16686 -1.94481,0.47143 -4.90726,1.82227 -2.28368,1.04133 -4.59874,1.88319 -5.14495,1.87179 -0.89551,-0.0186 -0.87557,-0.14511 0.19065,-1.28005 1.55101,-1.65097 6.66528,-4.34216 11.03762,-5.80849 3.70838,-1.24366 7.63551,-1.50434 9.86651,-0.65611 0.74463,0.28311 4.98438,1.18188 9.42084,1.99806 9.37728,1.72514 13.79923,3.08078 17.56412,5.38263 1.48823,0.90989 2.82134,1.65391 2.96119,1.65391 0.13988,0 0.0949,-0.63137 -0.099,-1.40384 -0.48005,-1.91266 0.68701,-1.83888 3.53312,0.22283 2.39654,1.73605 6.92519,8.00117 6.88799,9.52979 -0.0123,0.50552 -0.50531,-0.0531 -1.0993,-1.24291 -2.01932,-4.0451 -7.27409,-9.57202 -8.21013,-8.63598 -0.16993,0.16993 0.79001,1.65921 2.13176,3.30782 1.34176,1.64861 3.14181,4.19718 4.00108,5.66488 0.85927,1.46769 1.99277,2.6892 2.52047,2.7136 0.64785,0.0299 0.71917,0.14131 0.21788,0.34168 -0.40832,0.16321 -1.29273,-0.22181 -1.96587,-0.85419 l -1.2231,-1.14882 -0.01,5.44453 c -0.009,4.95986 -0.22719,6.06768 -2.45363,12.46621 l -2.44373,7.02169 -6.39528,6.55374 c -3.51742,3.60465 -6.39528,6.85251 -6.39528,7.21729 0,0.47656 1.47957,0.60775 5.24646,0.46794 5.24174,-0.19456 5.24609,-0.197 8.52951,-2.7235 3.9684,-3.05358 9.80121,-10.24396 12.1394,-14.96689 1.96803,-3.97526 3.25633,-5.32681 8.60875,-9.0346 4.74527,-3.2872 5.6706,-4.50551 6.91522,-9.09898 0.56714,-2.09313 1.33029,-3.70219 1.8198,-3.83519 0.27069,-0.0735 0.42992,-0.0848 0.46794,-0.0446 0.0297,0.0423 -0.0506,0.13784 -0.24264,0.28225 -0.33932,0.25527 -0.7882,1.56021 -0.99779,2.90177 -0.75674,4.84376 -3.02062,7.95243 -7.77684,10.67366 -3.56667,2.04064 -7.18014,5.50201 -7.18014,6.87808 0,1.64129 -5.63771,9.54047 -9.82195,13.76112 -2.16789,2.18674 -5.09842,4.52553 -6.50917,5.19694 -1.9337,0.92028 -3.52281,1.20287 -6.45965,1.15377 -2.14261,-0.0358 -4.3393,-0.18056 -4.88003,-0.32186 -1.92052,-0.50189 -0.92495,-2.37176 3.37219,-6.34082 2.68537,-2.48035 3.86956,-3.88432 3.08994,-3.66435 -1.79546,0.50658 -1.56974,-0.5484 0.42091,-1.96587 1.649,-1.17419 2.33979,-0.87653 1.02255,0.44071 -0.36565,0.36564 -0.52574,0.80383 -0.35406,0.97551 0.62453,0.62453 5.51138,-5.45881 5.51138,-6.86075 0,-0.76452 0.73743,-3.07483 1.63906,-5.13504 3.11214,-7.11126 3.51629,-13.99428 1.11664,-19.00015 -1.52715,-3.18575 -5.98195,-7.21323 -10.17353,-9.19554 -3.66234,-1.73201 -9.94365,-3.28489 -19.2205,-4.7488 -3.06473,-0.48363 -5.91455,-1.16227 -6.33091,-1.50783 -1.01416,-0.84167 -6.06621,-0.21944 -9.85661,1.2132 -3.55488,1.34361 -9.08559,4.45516 -8.66569,4.87507 0.16496,0.16496 1.64254,-0.45625 3.28306,-1.37909 4.43714,-2.49601 8.30732,-3.57936 12.06512,-3.38457 l 3.27811,0.16589 -3.21374,0.7403 c -3.49341,0.80293 -9.98783,3.8156 -9.98783,4.63243 0,0.27888 1.26274,1.44878 2.80769,2.60218 1.54494,1.15341 2.81016,2.40317 2.81016,2.7755 0,0.37233 -0.94829,1.26153 -2.107,1.97578 -1.1587,0.71423 -3.55912,2.63019 -5.33312,4.25857 -1.774,1.62837 -3.35913,2.96119 -3.52322,2.96119 -0.001,0 -0.006,1.2e-4 -0.007,0 -0.1953,-0.0321 -1.44944,-1.06872 -2.81759,-2.32984 -1.38987,-1.28113 -2.68203,-2.17323 -2.87206,-1.9832 -0.58218,0.58218 1.32536,2.9932 3.36477,4.25362 1.88885,1.16738 2.59916,2.49944 2.61456,4.90725 0.004,0.65826 1.01712,4.70395 2.25308,8.98756 3.01975,10.46594 2.98107,12.2754 -0.27978,12.88713 -4.32009,0.81046 -7.84709,-2.84432 -9.53226,-9.87642 -2.38686,-9.96018 -1.51966,-21.78071 2.16643,-29.54258 2.23781,-4.71218 4.99486,-7.6811 9.49017,-10.21809 3.29727,-1.86087 3.88637,-2.70482 2.31498,-3.30782 -0.66709,-0.25599 -0.80868,-0.78464 -0.55213,-2.06739 l 0.34662,-1.72571 -1.86436,1.80494 c -2.21514,2.147 -2.8462,2.21462 -4.86021,0.51995 -0.8402,-0.70699 -4.03664,-2.25337 -7.1034,-3.43905 C 95.552362,99.262162 92.155723,97.47137 84.549435,90.321822 77.176124,83.391263 70.066038,73.52702 71.446908,72.14615 c 0.02612,-0.02612 0.0681,-0.04036 0.123796,-0.04457 0.657248,-0.04973 3.344181,1.413519 7.395549,4.030785 13.219109,8.539819 22.132617,12.384471 34.459747,14.872804 6.04126,1.219479 12.37793,1.821462 30.53542,2.894342 2.81349,0.166242 5.11359,0.463226 5.17218,0.66602 v 0.0025 0.0025 0.0025 0.0025 c -0.0132,0.202905 -1.80424,1.590585 -3.98126,3.08251 -2.15151,1.474441 -3.79864,2.802259 -3.69406,2.976049 v 0.002 h 0.002 0.002 l 0.002,0.002 v 0.002 l 0.002,0.002 c 0.2288,0.0952 3.06014,-1.391881 6.36309,-3.347432 3.35538,-1.986591 7.36587,-4.249069 8.91081,-5.026102 5.26521,-2.648147 20.1122,-7.410877 27.52719,-8.831578 5.46224,-1.046556 6.52746,-1.438059 9.27972,-4.662143 -1.07347,0.220387 -2.02414,0.42058 -2.78045,0.586791 -0.23303,0.05121 -0.46543,0.103602 -0.6982,0.155983 -1.95827,1.038266 -4.6207,1.844847 -9.36638,3.134505 -3.91043,1.062674 -11.4076,3.37534 -16.66041,5.142469 l -9.5496,3.213734 h -17.13578 c -15.86775,0 -17.56292,-0.09478 -22.94428,-1.299854 C 101.66771,86.855977 90.704728,82.012057 79.060338,74.087265 74.461823,70.957664 71.616802,69.402172 70.204,69.430075 Z m 196.56019,11.404051 c 0.13216,-0.0063 0.22046,0.01 0.25997,0.04952 0.17039,0.170396 -0.11263,1.657266 -0.63136,3.302867 -1.2207,3.872524 -1.18955,4.724122 0.18817,5.03353 0.39918,0.08965 0.62891,0.151901 0.67593,0.183217 h 0.002 l 0.002,0.0025 0.002,0.0025 v 0.0025 0.0025 h -0.002 v 0.0025 l -0.002,0.0025 h -0.002 c -0.0486,0.02061 -0.32081,0.01182 -0.81705,-0.01733 -1.0708,-0.06289 -1.26836,-0.385748 -1.24786,-2.040151 0.0134,-1.081461 0.2213,-2.784449 0.46299,-3.783194 l 0.44072,-1.814844 -2.35707,0.831907 c -4.00299,1.41234 -8.96281,3.771481 -8.96281,4.26352 0,0.501393 5.92728,4.582454 11.64422,8.017004 l 3.49599,2.099574 3.42418,-2.849775 c 1.88361,-1.567549 4.44322,-3.371413 5.68717,-4.006026 1.1662,-0.59495 2.0564,-1.159396 2.07482,-1.309758 4e-5,-0.0018 -1.1e-4,-0.0073 0,-0.0099 v -0.0025 c -2.4e-4,-4.8e-4 -0.004,-0.0037 -0.005,-0.005 v -0.0025 l -0.002,-0.0025 h -0.002 c -0.12558,-0.09526 -1.47042,0.03202 -3.00329,0.287206 -1.54495,0.257204 -4.45122,0.448537 -6.45965,0.425857 l -3.65197,-0.04209 4.49378,-0.458044 c 4.52519,-0.460636 10.39783,-1.461302 11.85467,-2.020344 0.43219,-0.165847 0.78734,-0.05959 0.78734,0.235212 0,0.2948 -2.08575,1.647824 -4.63491,3.008233 -2.54916,1.36041 -5.81916,3.674735 -7.2668,5.14247 -1.44764,1.467736 -2.71785,2.669033 -2.82007,2.669033 -1.10374,0 -17.30167,-10.597863 -17.30167,-11.31987 0,-0.840663 11.69196,-5.786283 13.67446,-5.880292 z m -52.43734,41.917194 h 0.002 0.002 c 0.26911,0 0.62826,0.22766 0.79972,0.50509 0.39022,0.6314 -1.18592,5.59683 -2.22832,7.01673 -0.69785,0.95058 -3.63464,1.81244 -3.63464,1.06712 0,-0.7399 4.58966,-8.52812 5.05829,-8.58894 z m -79.8036,1.10178 c 0.0231,-0.001 0.0474,-4.9e-4 0.0718,0 0.86024,0.0172 2.57199,1.21239 4.71661,3.37962 1.82659,1.84585 3.1841,3.49344 3.01814,3.6594 -0.6227,0.62271 -8.34132,-5.2197 -8.34135,-6.31358 -1e-5,-0.46786 0.18883,-0.7042 0.5348,-0.72544 z m 66.42377,9.13612 c 0.2517,0.0119 0.47093,0.0409 0.65364,0.0867 2.32621,0.58384 1.50766,1.69087 -1.64153,2.2209 -1.52194,0.25615 -4.86478,1.11078 -7.42526,1.89902 -2.54048,0.78207 -4.74627,1.29719 -4.92954,1.15625 -0.49396,-0.49396 10.28305,-3.80052 12.38699,-3.80052 1.21685,0 1.90065,-0.2269 1.69352,-0.56204 -0.56659,-0.91677 -2.33654,-0.66209 -8.34878,1.20577 -3.1318,0.97299 -6.01151,2.15785 -6.39775,2.63437 -0.62934,0.77651 -0.70316,0.77326 -0.70316,-0.0421 0,-1.52866 10.93628,-4.97757 14.71187,-4.79831 z" />
    <path
       id="path429"
       style="display:inline;fill:#ffffff;fill-opacity:1;stroke:#000000;stroke-width:0.561798;stroke-opacity:0"
       d="m 206.85207,76.060567 c -1.30831,0.282115 -2.82436,0.595497 -4.4096,0.918564 0.49408,0.187911 1.25787,0.267398 2.39173,0.267398 1.51188,0 2.74881,-0.189164 2.74826,-0.420905 -3.2e-4,-0.133656 -0.28583,-0.415643 -0.73039,-0.765057 z" />
    <path
       id="path98"
       style="display:inline;fill:#ffffff;fill-opacity:1;filter:url(#filter6)"
       d="m 70.424356,68.880422 c -0.772132,3.39e-4 -1.254993,0.395802 -1.52021,1.166155 -1.161449,3.373553 5.251144,14.42055 12.456314,21.458731 6.169681,6.026691 18.72779,12.856112 30.31012,16.484622 5.5,1.72304 10.56057,3.56474 11.24807,4.09268 2.09647,1.60992 1.40707,5.24457 -1.75047,9.21782 -1.65093,2.07742 -3.5034,5.62756 -4.11497,7.88826 -0.61156,2.2607 -1.7357,6.10147 -2.4982,8.53695 -1.6846,5.3807 -1.80684,16.53307 -0.23273,21.174 2.92378,8.62011 9.39763,13.21411 14.73168,10.45577 1.57288,-0.81337 3.11172,-2.43894 3.41923,-3.61483 0.3075,-1.1759 -0.75932,-6.42524 -2.37192,-11.66402 -1.61259,-5.23877 -2.93148,-10.41318 -2.93148,-11.49814 0,-2.75405 3.60618,-7.52707 7.02416,-9.29457 2.68731,-1.38967 3.39628,-1.27201 11.17379,1.85941 0.0828,0.0333 0.16292,0.066 0.24512,0.099 -0.26082,-0.9272 -0.54458,-1.84695 -0.85172,-2.76065 -0.41669,-1.23964 -0.43452,-2.27068 -0.19559,-3.0528 -3.8962,-2.3813 -6.59516,-4.83507 -5.71688,-5.66736 4.94894,-4.68976 29.3947,-1.04671 34.93512,5.20684 1.87175,2.11267 1.86706,2.12443 -0.61403,1.52764 -1.375,-0.33073 -8.12408,-1.71923 -14.99908,-3.08498 -6.875,-1.36575 -13.40141,-2.8046 -14.50141,-3.19641 -1.60437,-0.57147 -1.76395,-0.4554 -0.8022,0.58432 0.65941,0.71286 7.18335,2.52144 14.49894,4.0184 14.94578,3.05829 20.80262,5.15043 20.80262,7.43022 0,3.08181 -14.71636,1.32783 -26.1803,-3.11965 -0.43239,-0.16775 -0.86901,-0.34669 -1.30233,-0.53232 0.50314,1.66108 0.93706,3.34497 1.29738,5.04095 6.54542,2.2453 11.77363,3.23441 19.68598,3.94908 l 7.99967,0.72049 -0.31692,2.93396 c -0.64119,5.92824 -4.98196,11.58302 -16.93276,22.06285 -4.59994,4.03377 -5.28099,6.69521 -2.50067,9.77738 1.4441,1.60088 2.64855,1.84646 6.88799,1.41127 2.82562,-0.29007 6.61042,-1.28747 8.41067,-2.21842 5.0553,-2.6142 12.3924,-10.88148 16.3633,-18.43812 2.77397,-5.27887 4.30361,-7.09093 6.69734,-7.92539 1.70689,-0.59502 5.75278,-2.88738 8.98757,-5.09543 3.23479,-2.20804 6.40369,-4.01593 7.04149,-4.01593 0.63779,0 7.38812,-2.50168 15.00403,-5.55842 l 13.84777,-5.55842 30.75579,0.70563 c 22.0536,0.50532 32.73559,0.36908 37.75518,-0.48032 11.31498,-1.9147 24.33352,-5.97455 32.95687,-10.27752 9.00044,-4.49113 20.38476,-12.26156 21.24332,-14.49894 1.17779,-3.06928 -1.31761,-3.33438 -7.73475,-0.81952 -21.37579,8.3771 -53.15506,8.07337 -76.28533,-0.73287 -4.30077,-1.6374 -8.06761,-3.626281 -8.37105,-4.417032 -1.15903,-3.020372 3.39519,-5.892429 18.69066,-11.785342 7.24535,-2.791427 24.20785,-7.052909 45.8737,-11.525371 13.85248,-2.859554 16.00169,-3.508495 14.98917,-4.521016 -0.60978,-0.609782 -42.79368,7.789239 -52.15261,10.383976 -9.39842,2.605687 -20.27719,4.82131 -27.90849,5.684694 -6.1082,0.691064 -6.11301,0.691958 -5.37768,-1.703427 1.82441,-5.943172 1.83831,-6.897892 0.10647,-6.897892 -0.93499,0 -5.11822,1.36961 -9.29705,3.042896 l -7.5961,3.042897 -6.5686,-1.978254 c -5.80092,-1.747405 -17.10427,-4.000477 -28.25511,-5.6327 -1.30963,-0.1917 -3.41257,-1.011786 -5.48414,-2.082243 -0.49643,0.140922 -0.99544,0.273378 -1.49793,0.391195 -0.50967,0.119501 -1.09483,0.251027 -1.73809,0.391194 0.54921,0.457662 0.90618,0.841146 0.90618,1.042359 0,0.952904 -5.39791,1.054359 -6.33338,0.118843 -0.008,-0.0078 -0.0147,-0.01653 -0.0223,-0.02476 -0.74676,0.151631 -1.50543,0.303471 -2.26051,0.455568 0.0332,0.194907 0.0662,0.390948 0.099,0.586791 l 0.64621,3.854996 8.18536,-0.433285 c 23.69363,-1.249474 39.25999,3.066761 56.68601,15.714615 21.06574,15.289578 59.0776,20.050008 87.36257,10.941058 4.32561,-1.39302 8.05904,-2.33979 8.29678,-2.10205 0.8044,0.8044 -9.11273,7.40956 -17.22492,11.4709 -18.54397,9.284 -37.23505,11.85177 -74.15605,10.1859 -23.48549,-1.05966 -39.48425,-0.22539 -41.77854,2.17633 -0.69402,0.72652 0.37783,0.82455 3.50094,0.32682 2.475,-0.39444 4.26337,-0.46747 3.97631,-0.16341 -0.68286,0.7233 -21.09478,8.6756 -22.26835,8.6756 -0.49618,0 -2.29055,0.98943 -3.9887,2.19861 -2.88807,2.0565 -3.03469,2.07271 -2.27536,0.25006 1.50475,-3.61194 1.74933,-6.21023 0.64869,-6.89046 -0.65556,-0.40516 -1.09435,0.14271 -1.09435,1.36423 0,4.31543 -3.08891,9.87332 -6.20464,11.16389 -3.88807,1.61049 -8.79444,5.70775 -8.79444,7.34603 0,2.63893 -7.86845,13.22969 -12.49345,16.81639 -4.18909,3.24865 -5.54024,3.75101 -10.11163,3.75101 -2.90228,0 -5.55932,-0.45478 -5.90257,-1.01017 -0.34325,-0.55539 0.86802,-2.22549 2.69131,-3.71387 6.3323,-5.16917 11.98619,-11.19194 11.3991,-12.14187 -0.32474,-0.52543 0.55344,-3.23148 1.95102,-6.014 3.00992,-5.99262 3.49038,-14.23503 1.10178,-18.85407 -3.80851,-7.36486 -12.25608,-11.84228 -25.3162,-13.41944 -5.40156,-0.6523 -10.11237,-1.62531 -10.47063,-2.16395 -1.14544,-1.72219 -9.88462,0.19135 -15.47445,3.38953 -2.95641,1.69148 -5.37521,3.49691 -5.37521,4.01345 0,0.51653 1.68603,-0.11644 3.74853,-1.40632 4.90714,-3.06891 9.80675,-4.70562 13.64971,-4.5631 l 3.09984,0.11389 -3.49846,0.70811 c -3.92836,0.79266 -10.00174,3.73107 -9.99774,4.83793 0.002,0.39838 1.34902,1.6235 2.99586,2.7235 3.65432,2.4409 3.68869,2.7964 0.40605,4.55321 -1.42832,0.76442 -3.6508,2.63844 -4.93697,4.16696 -2.90184,3.44865 -3.78325,3.46829 -6.41014,0.12874 -1.14763,-1.45896 -2.40005,-2.33635 -2.7854,-1.95101 -1.01321,1.01322 1.03458,3.94055 3.56036,5.09047 1.4543,0.66211 2.16642,1.88639 2.16642,3.71882 0,1.50259 1.12037,6.15399 2.48582,10.33693 3.03998,9.31272 2.98269,11.97997 -0.25997,12.24834 -5.99674,0.49631 -9.0567,-4.63207 -10.3097,-17.29177 -1.46518,-14.80345 3.50457,-27.54968 12.37956,-31.75852 3.72621,-1.7671 4.68547,-3.24888 2.56257,-3.95651 -0.85183,-0.28395 -0.84344,-0.94172 0.0347,-2.58238 1.61667,-3.02078 0.49905,-2.76389 -2.37687,0.54718 -2.22366,2.56013 -2.47873,2.62907 -3.70149,1.00027 -0.7224,-0.96228 -6.32399,-3.49564 -12.44889,-5.63023 C 97.633467,100.37661 90.770869,96.466987 82.665266,88.328712 76.399267,82.037456 70.390331,73.242342 71.558324,72.074349 c 0.01151,-0.0096 0.03095,-0.01868 0.05447,-0.01981 0.521638,-0.02502 3.946533,2.00679 7.868449,4.679474 16.774793,11.431584 31.407847,15.934952 55.027147,16.935239 l 14.83814,0.628882 -4.69928,3.305342 c -6.34999,4.468554 -5.04057,5.168104 1.66381,0.888853 2.94757,-1.881371 7.61301,-4.562881 10.3716,-5.957045 5.98158,-3.023037 23.07085,-8.367302 29.73323,-9.299526 3.85145,-0.538909 4.94489,-1.086978 7.58619,-4.550727 -1.26043,0.257577 -2.37202,0.489067 -3.23354,0.6784 -0.33039,0.07261 -0.66048,0.145469 -0.99036,0.220356 -1.849,0.951996 -4.38154,1.623102 -9.11631,2.812637 -5.49661,1.380933 -13.81759,3.931214 -18.49259,5.664887 -8.16601,3.028278 -9.10804,3.152921 -23.99901,3.179071 C 126.891,91.260195 120.42699,90.777317 114.43865,89.470108 101.0185,86.540602 88.619433,80.994736 78.518113,73.401438 74.429919,70.328287 71.898425,68.879777 70.424356,68.880422 Z M 266.64535,81.059434 c 0.0768,-0.0012 0.12941,0.01057 0.1535,0.03466 0.23463,0.234628 -0.0363,1.64247 -0.60164,3.129553 -2.10369,5.53311 -1.72246,5.845684 6.14274,5.055813 3.9435,-0.396031 8.4437,-1.083718 10.0002,-1.530114 1.60749,-0.461022 2.49516,-0.641805 2.62447,-0.51499 0.002,0.0027 0.008,0.0094 0.01,0.01238 0.10606,0.239203 -1.66006,1.250757 -5.43216,3.159264 -3.09418,1.565514 -6.2967,3.86765 -7.11577,5.11771 -0.81907,1.250061 -1.77261,2.24507 -2.12185,2.21099 -0.99575,-0.09717 -17.05617,-10.376541 -17.08627,-10.936104 -0.0366,-0.680162 11.86589,-5.713855 13.42687,-5.739165 z m -52.06348,41.966716 c -0.3314,0.0252 -0.75517,0.55952 -1.05227,1.37908 -0.37744,1.04122 -1.54433,3.12983 -2.59228,4.64233 -1.82288,2.63095 -1.45719,3.54537 0.78982,1.98321 1.44581,-1.00515 3.85533,-7.15258 3.09984,-7.90806 -0.063,-0.063 -0.13549,-0.0948 -0.21293,-0.0966 -0.0105,-2.5e-4 -0.0215,-8.2e-4 -0.0322,0 z m -39.30511,0.77248 c -1.00837,0 -0.48876,1.06361 1.58458,3.2484 1.69632,1.7875 3.81839,4.71177 4.71909,6.49927 1.58457,3.14471 3.59008,4.36583 3.59008,2.18623 0,-3.17876 -7.25887,-11.9339 -9.89375,-11.9339 z m -40.55296,0.0272 c 0.73847,0.0157 2.21752,1.17127 4.44673,3.47122 1.7346,1.78965 3.00104,3.25379 2.97357,3.42419 l -0.002,0.002 v 0.002 l -0.002,0.002 v 0.002 0.002 l -0.002,0.002 h -0.002 -0.002 -0.002 l -0.002,0.002 c -0.004,3.1e-4 -0.008,-0.002 -0.0124,-0.002 -1.19803,-0.16141 -7.9452,-5.31889 -7.9452,-6.07342 0,-0.52788 0.16119,-0.80724 0.48528,-0.83438 0.0223,-0.002 0.0455,-0.003 0.0693,-0.002 z m 65.37893,9.36637 c -1.12714,-0.0387 -2.59445,0.31084 -4.76118,1.08197 -2.5699,0.9146 -5.68515,1.91031 -6.92265,2.21099 -1.2375,0.30068 -2.2506,0.99282 -2.2506,1.53755 0,0.55927 0.76228,0.66661 1.75047,0.24759 5.71485,-2.42326 9.14913,-3.39295 12.25081,-3.45885 2.96616,-0.063 3.21996,-0.2359 1.67124,-1.13645 -0.50845,-0.29566 -1.06181,-0.45961 -1.73809,-0.4828 z m -27.958,28.59926 h 0.002 0.002 0.002 c 0.003,4.6e-4 0.005,0.002 0.007,0.002 h 0.002 l 0.002,0.002 h 0.002 0.002 v 0.002 l 0.002,0.002 v 0.002 l 0.002,0.002 v 0.002 c 0.008,0.0896 -0.29295,0.49392 -0.87647,1.23796 -1.30637,1.66575 -2.12928,2.19717 -2.12928,1.37413 0,-0.20765 0.78797,-0.99562 1.75047,-1.75047 0.71869,-0.56362 1.11842,-0.86588 1.22557,-0.87895 z" />
  </g>
  <g
     inkscape:groupmode="layer"
     inkscape:label="Image"
     id="g1"
     style="display:inline"
     transform="matrix(0.43983055,0,0,0.43983055,47.622849,16.397523)">
    <path
       style="fill:#ffffff;fill-opacity:1;stroke:#000000;stroke-width:0.600621;stroke-opacity:0"
       d="m -33.522314,78.451921 c -3.272519,-1.353594 -5.246463,-5.236348 -6.595779,-12.973893 -3.038164,-17.422121 1.67849,-32.332817 12.085665,-38.206263 4.209457,-2.375669 4.865695,-3.217584 3.598991,-4.617279 -0.816964,-0.90273 -0.871054,-1.423838 -0.313763,-3.022496 1.020076,-2.926191 0.201165,-2.947495 -2.539864,-0.06607 -2.078887,2.185363 -2.633007,2.487434 -3.45471,1.883263 -1.876883,-1.380017 -8.245623,-4.173867 -16.59482,-7.279848 C -56.779178,10.656599 -63.37561,7.5286754 -68.464766,4.1506873 -72.891191,1.2125934 -80.908002,-6.6688289 -84.556022,-11.668818 c -2.907327,-3.984794 -5.388896,-8.344348 -4.981637,-8.751606 0.124579,-0.12458 3.589496,1.951884 7.699816,4.614362 14.112686,9.1415526 25.205719,13.7787287 38.597407,16.13472223 7.68325,1.35170817 18.91845,2.39913387 25.934886,2.41783477 2.642733,0.00708 5.822996,0.1810652 7.067248,0.3867102 l 2.2622801,0.3739018 -3.4635221,2.5240854 c -8.159519,5.9463516 -5.800688,6.1198446 4.0392052,0.2970808 C -3.4726142,4.0040393 1.4462428,1.3314349 3.530445,0.38915333 9.0544461,-2.1082821 23.621385,-6.6747715 30.6021,-8.0973483 c 3.324241,-0.6774403 6.533525,-1.4936459 7.131726,-1.8137902 0.598176,-0.3201445 2.618109,-2.4763425 4.488723,-4.7915535 1.8706,-2.315211 3.509977,-4.100594 3.643044,-3.967518 0.133078,0.133076 0.581212,2.08013 0.995859,4.326788 l 0.753911,4.084833 15.288907,0.07097 c 12.048421,0.05592 16.339421,0.2933288 20.245332,1.1201367 11.40605,2.4144447 20.513598,6.4790008 32.649718,14.5710655 4.1663,2.7779927 9.87423,6.1283028 12.68428,7.4451348 18.1246,8.493472 43.44264,11.981238 65.02878,8.958242 6.00602,-0.841106 9.23611,-1.567169 17.60688,-3.957698 4.068,-1.161737 7.53525,-1.973356 7.705,-1.803599 0.55468,0.554684 -12.39785,8.726139 -18.62753,11.751673 -8.27217,4.017506 -15.39328,6.435269 -24.04136,8.162544 -13.06894,2.610251 -19.13494,2.886459 -53.51626,2.436817 -21.96305,-0.287234 -33.442516,-0.211452 -37.02435,0.244423 -8.675884,1.104211 -11.799184,2.816971 -5.769885,3.164102 l 3.153267,0.181545 -7.507753,2.933068 c -4.129276,1.613191 -9.350481,3.580892 -11.602677,4.372666 -2.252198,0.791775 -5.193539,2.133128 -6.536284,2.980779 l -2.441393,1.541183 0.494287,-1.709501 c 0.837098,-2.895166 0.677331,-6.514474 -0.287584,-6.514474 -0.551632,0 -1.09399,1.16824 -1.533603,3.303417 -1.1623,5.645133 -3.132583,8.326629 -7.860422,10.697839 -2.218829,1.112831 -3.183775,1.192249 -10.671274,0.878319 l -8.231868,-0.345142 0.445806,-2.161942 c 0.874272,-4.239751 0.436174,-10.597456 -0.919002,-13.336499 -1.499442,-3.030642 -1.231866,-3.986583 0.324803,-1.160362 2.696038,4.894843 4.97387,6.344159 4.97387,3.164725 0,-2.791253 -5.541992,-10.017611 -9.125376,-11.89883 -2.196133,-1.152936 -2.829421,-0.0074 -1.045628,1.891258 1.921996,2.045866 1.169644,2.341247 -1.283801,0.504036 -5.204758,-3.897476 -11.5131744,-6.021415 -23.0808923,-7.77095 -3.6337558,-0.549583 -7.5182477,-1.37863 -8.6321947,-1.842332 -1.113954,-0.463701 -2.69662,-0.843093 -3.517031,-0.843093 -4.472067,0 -14.471144,3.982366 -18.359326,7.312031 -2.962446,2.536905 -0.729246,2.12251 5.396322,-1.001349 3.32774,-1.697052 6.406326,-2.816163 8.294845,-3.015307 l 3.003106,-0.316674 -2.402484,0.814181 c -3.768734,1.277188 -7.531125,3.377212 -7.934671,4.428821 -0.244885,0.638162 0.318522,1.520603 1.680609,2.632287 l 2.048989,1.672298 -3.638693,-0.329944 c -3.54991,-0.321897 -3.679681,-0.281238 -5.318475,1.666359 -1.512861,1.797929 -1.654462,2.346332 -1.424992,5.518744 l 0.254791,3.522437 -1.962627,-2.142317 c -1.079444,-1.178281 -2.381826,-2.142326 -2.894179,-2.142326 -1.813215,0 -0.890314,1.996453 2.371864,5.130883 2.548565,2.448761 3.303415,3.58122 3.303415,4.955938 0,0.980033 1.081116,5.528855 2.402482,10.108484 2.513045,8.709804 2.88414,11.516318 1.681738,12.71872 -0.816705,0.8167 -3.197269,0.887252 -4.985153,0.14773 z M 38.805667,48.665687 c 2.070198,-0.841198 5.503994,-1.691931 7.630663,-1.890526 4.249878,-0.396861 5.139345,-0.962345 3.170785,-2.015882 -1.531989,-0.819901 -2.872355,-0.587546 -10.776912,1.868213 -3.902069,1.212274 -5.983902,2.156273 -5.983902,2.713347 0,1.246128 1.707001,1.052733 5.959366,-0.675152 z M 60.773911,41.78784 c 1.482594,-1.63826 3.379638,-7.35747 2.676695,-8.069741 -0.684847,-0.693938 -0.479618,-0.962778 -3.523049,4.614772 -2.238412,4.102203 -2.403383,4.654811 -1.389716,4.654811 0.632617,0 1.638839,-0.539927 2.23607,-1.199842 z"
       id="path1254" />
    <path
       style="display:inline;fill:#ffffff;fill-opacity:1;stroke:#000000;stroke-width:0.600621;stroke-opacity:0"
       d="M 24.838444,82.65281 C 24.233053,82.036768 23.136161,81.381749 22.400905,81.197212 21.665661,81.012673 20.040674,80.434085 18.789821,79.911441 L 16.515566,78.9612 19.575657,75.725607 c 1.683038,-1.779579 3.080765,-3.454483 3.106039,-3.722014 0.426038,-4.509545 0.493649,-4.545354 7.855872,-4.160585 3.680753,0.192369 6.796089,0.453555 6.922942,0.580416 0.40471,0.404707 -5.662843,8.984451 -8.645262,12.224707 -2.800627,3.04277 -2.904973,3.095369 -3.976804,2.004679 z"
       id="path1255" />
    <path
       style="fill:#ffffff;fill-opacity:1;stroke:#000000;stroke-width:0.600621;stroke-opacity:0"
       d="m 25.788996,66.58864 c -1.465401,-0.282251 -1.614617,-0.633074 -0.809729,-1.903783 0.388224,-0.612906 1.354663,-0.732926 3.74469,-0.465046 1.771777,0.198587 4.785032,0.367625 6.696111,0.375642 3.286741,0.0138 3.439927,0.07956 2.831815,1.215821 -0.573112,1.070867 -1.210993,1.192366 -5.877189,1.119451 -2.878864,-0.04499 -5.842424,-0.198926 -6.585698,-0.342085 z"
       id="path1256" />
    <path
       style="fill:#ffffff;fill-opacity:1;stroke:#000000;stroke-width:0.394505;stroke-opacity:0"
       d="m -33.417592,48.837087 c -0.396115,-1.980572 -0.2843,-5.846665 0.196141,-6.781812 0.24349,-0.473936 0.907554,-1.35982 1.4757,-1.968638 1.017728,-1.090581 1.09297,-1.105365 5.090994,-1.000352 3.687458,0.09685 4.138078,0.191987 4.934985,1.041826 l 0.876985,0.935241 -0.931338,0.755493 c -1.099231,0.891689 -1.868878,0.930937 -3.210949,0.163739 -1.610253,-0.920504 -4.053513,-0.749822 -5.092121,0.355727 -1.072693,1.141829 -1.479978,3.656534 -0.873835,5.39532 0.523807,1.502591 0.04871,2.33628 -1.331356,2.33628 -0.679676,0 -0.946623,-0.289901 -1.135206,-1.232824 z"
       id="path1257" />
    <path
       style="fill:#ffffff;fill-opacity:1;stroke:#000000;stroke-width:0.394505;stroke-opacity:0"
       d="m -30.664206,48.446968 c -0.497579,-1.577094 -0.562262,-2.670176 -0.241834,-4.086797 0.605644,-2.677574 2.391709,-3.408343 5.749194,-2.352286 2.135881,0.671817 2.182989,0.715891 1.292836,1.209615 -0.508098,0.281814 -1.642796,0.518681 -2.521552,0.52637 -1.976679,0.01729 -2.544552,0.552632 -2.544552,2.398761 0,1.554109 -1.388608,3.399355 -1.734092,2.304337 z"
       id="path1258" />
    <path
       style="fill:#ffffff;fill-opacity:1;stroke:#000000;stroke-width:0.394505;stroke-opacity:0"
       d="m -33.861409,78.409382 c -3.764647,-2.077027 -5.824636,-7.096198 -6.935696,-16.898863 -1.19885,-10.577201 0.787078,-20.74009 5.412363,-27.697515 2.089083,-3.142428 4.007397,-4.850035 8.024991,-7.143516 3.694244,-2.108896 4.097051,-2.707094 2.697026,-4.005271 l -1.052892,-0.976295 0.834345,-1.974839 c 0.458889,-1.086163 0.70699,-2.102194 0.551332,-2.257852 -0.155657,-0.155658 -1.517377,0.941894 -3.026048,2.439006 l -2.743034,2.722016 -1.092298,-1.046489 C -32.710848,20.113969 -37.665388,17.868306 -46.68278,14.548215 -54.557694,11.648769 -62.664095,8.0128505 -66.198075,5.7951286 -73.865919,0.98323542 -82.8198,-8.134544 -87.998135,-16.403971 c -1.338563,-2.13759 -2.009221,-4.14229 -1.385775,-4.14229 0.211925,0 2.494635,1.36322 5.072691,3.029379 12.425757,8.0305751 18.522425,11.2229148 26.912426,14.0918888 11.155461,3.8146264 20.820408,5.2754417 40.657207,6.1451619 4.859384,0.2130531 8.9083032,0.4604244 8.9975906,0.5497131 0.089298,0.089297 -1.2449032,1.154061 -2.9648766,2.3661591 -5.239029,3.6920454 -7.089055,5.8404201 -3.933127,4.5674201 0.712131,-0.2872498 3.602632,-1.8820965 6.4233335,-3.5441004 C -0.04371864,1.8425495 1.7656245,0.91015375 6.5752243,-0.96426092 14.304872,-3.9766859 26.632692,-7.5916048 33.006971,-8.7149105 c 4.388696,-0.7733959 5.527324,-1.4971155 8.776827,-5.5786415 3.470028,-4.358485 4.147623,-5.006294 4.420361,-4.225995 0.180872,0.517463 1.395618,7.373795 1.39819,7.891773 7.02e-4,0.13923 6.170314,0.234041 13.710268,0.210692 14.868255,-0.04604 17.967466,0.227792 26.21008,2.315829 9.339662,2.3659397 17.106813,6.0594786 28.126173,13.3749586 11.04014,7.3292384 18.68675,10.7916744 30.38344,13.7577634 11.64045,2.951826 21.73519,4.034652 34.51505,3.702283 12.10989,-0.314941 18.48832,-1.357884 31.68101,-5.180214 6.98277,-2.023117 7.30945,-2.080746 6.54003,-1.153629 -1.78448,2.150158 -11.30547,8.050033 -19.09197,11.830731 -10.67659,5.183983 -21.97573,8.315607 -35.69422,9.892873 -5.32331,0.61204 -8.719,0.680491 -26.2345,0.528833 -39.874675,-0.34526 -50.911998,-0.245517 -54.963937,0.496711 -6.797092,1.245074 -8.099996,2.933131 -1.891009,2.449983 1.978323,-0.153941 3.508187,-0.197759 3.399701,-0.09737 -0.363428,0.336284 -12.358483,5.093612 -18.690918,7.412954 -3.445221,1.26186 -7.234354,2.938548 -8.420293,3.725966 -1.185939,0.787422 -2.250549,1.337385 -2.36579,1.222135 -0.115225,-0.115249 0.07904,-0.93061 0.431592,-1.811911 0.846268,-2.115033 0.8659,-5.864455 0.03234,-6.184306 -0.840172,-0.322406 -0.944558,-0.145336 -1.341476,2.275682 -0.894144,5.453647 -3.483212,9.359137 -7.573157,11.423737 l -2.319656,1.170953 -8.576489,-0.106297 c -8.310772,-0.103015 -8.573837,-0.130748 -8.490884,-0.895316 0.04704,-0.433954 0.276075,-2.270519 0.508893,-4.081254 0.538477,-4.188041 7.5e-4,-8.355826 -1.47423,-11.42638 -1.402859,-2.920418 -5.486114,-7.025801 -8.851302,-8.899284 -5.297321,-2.949144 -8.8875791,-3.922306 -22.7220113,-6.158945 -2.6607841,-0.430175 -5.6246187,-1.140576 -6.5862937,-1.578673 -2.091263,-0.952679 -2.570271,-0.968685 -6.246591,-0.20874 -5.592372,1.156023 -13.058751,4.721699 -15.635032,7.46674 -1.576986,1.680282 -0.152562,1.272187 5.384948,-1.542773 5.338943,-2.714026 8.604963,-3.76808 11.533113,-3.722131 l 1.791007,0.02812 -2.370029,0.678974 c -2.988843,0.856249 -7.620336,3.009202 -8.746207,4.065679 -0.472525,0.443397 -0.768093,1.04343 -0.656821,1.333399 0.111273,0.289972 1.518662,1.517983 3.12753,2.728916 1.608872,1.210933 2.925223,2.372775 2.925223,2.58187 0,0.740143 -3.177133,2.37212 -5.180829,2.661203 -2.184028,0.315103 -2.442679,0.581426 -2.966676,3.054664 -0.209974,0.991087 -0.554425,1.578014 -0.926082,1.578014 -0.325466,0 -0.687541,0.355053 -0.80461,0.789007 -0.126308,0.468204 -0.607512,0.835323 -1.183511,0.902923 -0.740858,0.08694 -1.528114,-0.450094 -3.325333,-2.268399 -2.403658,-2.431875 -3.118413,-2.806563 -3.492774,-1.830998 -0.378121,0.985383 1.152801,3.156354 3.525946,5.00007 2.096784,1.629008 2.353667,1.991798 2.653761,3.747785 0.44608,2.610218 2.382071,10.234932 3.648953,14.37106 1.361776,4.445927 1.684054,8.283262 0.772243,9.195071 -0.775609,0.775615 -4.275721,0.907103 -5.54246,0.20822 z M 39.643488,48.300554 c 2.636688,-0.940035 5.093253,-1.529057 6.96852,-1.670885 3.475641,-0.262862 4.297385,-0.649546 3.184597,-1.49855 -1.30858,-0.998398 -3.963538,-0.665611 -9.811695,1.229852 -5.917349,1.917884 -7.559446,2.692695 -7.141157,3.369488 0.369858,0.598451 2.175384,0.218772 6.799735,-1.429905 z M 31.582151,46.812676 C 31.473192,43.213131 23.205824,33.576227 20.964594,34.436268 c -0.31995,0.122772 -0.581743,0.367981 -0.581743,0.544895 0,0.176912 1.135348,1.687231 2.522982,3.356261 1.387624,1.669027 3.273899,4.237137 4.191705,5.706899 2.085043,3.338973 3.13968,4.509188 3.91954,4.349065 0.426871,-0.08765 0.595948,-0.560603 0.565073,-1.580712 z m -62.60027,-1.570836 c -0.09436,-0.490726 -0.175152,-0.182127 -0.179531,0.685781 -0.0045,0.86791 0.07282,1.269414 0.171571,0.892234 0.09874,-0.377182 0.102335,-1.08729 0.0079,-1.578015 z m 1.349322,-2.963379 c 0.490711,-0.625705 0.476759,-0.63966 -0.148948,-0.148947 -0.379711,0.29779 -0.690384,0.608462 -0.690384,0.690381 0,0.324691 0.323964,0.115713 0.839332,-0.541434 z m 90.308755,-0.51211 c 1.896684,-2.030403 3.625469,-7.739819 2.467873,-8.150276 -0.26318,-0.09333 -0.939519,0.763039 -1.523928,1.929592 -0.577886,1.153558 -1.65202,3.096994 -2.386956,4.318751 -0.734937,1.22176 -1.336235,2.420065 -1.336235,2.662902 0,0.875795 1.679988,0.41581 2.779246,-0.760969 z m -86.902571,-0.252075 c -0.377179,-0.09874 -1.087288,-0.102345 -1.578014,-0.008 -0.490727,0.09435 -0.182127,0.175152 0.685781,0.179532 0.867909,0.0044 1.269415,-0.07282 0.892233,-0.17157 z"
       id="path1259" />
    <path
       style="fill:#ffffff;fill-opacity:1;stroke:#000000;stroke-width:0.394505;stroke-opacity:0"
       d="m -34.255913,78.130687 c -2.841682,-1.764901 -4.434681,-4.829846 -5.767691,-11.097114 -1.2016,-5.649416 -1.308551,-16.749963 -0.207148,-21.500455 1.100848,-4.74811 2.816564,-8.863027 4.97977,-11.94332 2.195298,-3.125992 4.083564,-4.77683 8.148967,-7.124332 3.317151,-1.915438 3.778549,-2.678157 2.32248,-3.839185 l -1.027196,-0.819061 0.817691,-1.9076 c 0.449731,-1.049179 0.75265,-2.101815 0.673149,-2.339186 -0.07951,-0.237373 -1.409124,0.788715 -2.954726,2.280193 l -2.810184,2.711779 -1.298549,-1.10057 c -1.779176,-1.50792 -6.212754,-3.49596 -15.30343,-6.862134 -10.462858,-3.874277 -18.602798,-7.884176 -23.512993,-11.5829736 -6.218787,-4.6845481 -13.984652,-13.1411294 -17.82527,-19.4106994 -1.313832,-2.144752 -1.975023,-4.14229 -1.37111,-4.14229 0.207391,0 1.957521,1.003443 3.889179,2.229872 10.374429,6.586833 13.412308,8.3715215 18.377218,10.7962235 13.044971,6.3707458 25.953675,9.1251917 47.071978,10.0441746 2.820702,0.1227434 6.860199,0.3271538 8.976665,0.4542424 L -7.2289973,3.209318 -10.68261,5.6904461 c -3.608257,2.5922283 -6.114787,4.9290899 -5.286969,4.9290899 0.697648,0 3.041158,-1.2425695 9.5261802,-5.0509419 C -3.2972304,3.7209833 0.697119,1.5495061 2.4329361,0.74308649 8.9270241,-2.2739143 24.489071,-7.1309828 32.180292,-8.5413567 c 5.052834,-0.9265635 6.293299,-1.6646563 9.451823,-5.6239883 3.051899,-3.82564 4.225968,-5.00771 4.502104,-4.532722 0.102796,0.176867 0.504774,2.153526 0.893246,4.392574 l 0.706291,4.070999 10.487899,-0.273413 c 14.577509,-0.380024 22.276892,0.357693 31.586696,3.0264913 8.480457,2.4310485 15.354089,5.8062083 25.743999,12.6410718 7.92441,5.2129529 15.24702,9.0034099 21.60352,11.1827789 13.85928,4.75175 28.39507,6.867163 43.79002,6.372818 11.73371,-0.376782 17.91591,-1.383118 30.54946,-4.972833 3.89206,-1.105897 7.25108,-1.95252 7.4645,-1.881385 1.25515,0.41839 -8.87864,7.106592 -17.18094,11.339222 -19.06775,9.721029 -34.4361,12.28684 -69.35699,11.57943 -23.04536,-0.46684 -43.920592,-0.377145 -48.26049,0.207358 -3.813769,0.513648 -7.280548,1.61728 -6.970025,2.218884 0.112831,0.21851 1.716208,0.327251 3.74449,0.253941 1.950987,-0.07052 3.459967,-0.04583 3.353279,0.05486 -0.481831,0.454781 -10.517392,4.417701 -20.159972,7.96093 -2.519199,0.925697 -5.600933,2.33593 -6.848288,3.133849 -1.247338,0.797924 -2.357239,1.36143 -2.466436,1.252234 -0.109203,-0.109192 0.08777,-1.038651 0.437594,-2.065456 0.349861,-1.02681 0.636137,-2.712457 0.636137,-3.745884 0,-3.420613 -1.664201,-2.811951 -2.087662,0.763539 -0.306111,2.584555 -1.855151,5.9431 -3.665156,7.946557 -0.836936,0.926392 -2.699768,2.264678 -4.213166,3.026817 l -2.712892,1.366193 -8.300737,-0.06184 -8.30074,-0.06183 0.281721,-1.63355 C 27.977721,53.086755 27.739386,48.196854 26.178867,44.814492 22.583872,37.022506 14.272841,32.317639 0.26316502,30.143639 -7.7498588,28.900192 -10.573795,28.307453 -12.346528,27.496901 c -1.663033,-0.760393 -1.998447,-0.783409 -4.739363,-0.325235 -3.619994,0.605125 -7.526775,1.972854 -11.510987,4.02989 -3.249154,1.677529 -6.236025,4.006337 -5.761129,4.49184 0.160824,0.16442 2.646198,-0.878752 5.523052,-2.318159 5.6589,-2.831382 8.810272,-3.834186 11.921466,-3.793561 l 1.98826,0.02595 -1.972519,0.533418 c -5.016514,1.356584 -10.059845,3.925027 -10.059845,5.123231 0,0.629799 1.038738,1.643569 3.914064,3.819979 0.959362,0.726168 1.814224,1.532655 1.899688,1.7922 0.2318,0.703905 -2.949514,2.550111 -4.794422,2.78234 -2.05478,0.25864 -2.837527,0.953071 -3.133651,2.780082 -0.257962,1.59158 -2.078434,3.631022 -3.241171,3.631022 -0.380767,0 -1.80156,-1.065159 -3.157315,-2.367023 -1.355753,-1.301862 -2.657898,-2.367021 -2.893659,-2.367021 -0.235755,0 -0.428647,0.505465 -0.428647,1.123254 0,1.11224 1.223368,2.548605 4.653907,5.464179 1.112066,0.94513 1.353379,1.477161 1.664465,3.669662 0.200111,1.410352 1.010315,4.872123 1.800463,7.692824 2.707407,9.665063 2.927269,10.601705 2.927269,12.470635 0,1.176176 -0.230513,2.102911 -0.619936,2.492331 -0.888381,0.888383 -4.381633,0.818357 -5.889375,-0.118058 z M 39.004205,48.464491 c 2.890465,-0.994194 5.873435,-1.726989 7.834927,-1.924731 1.742088,-0.175619 3.292208,-0.444092 3.44473,-0.596604 0.152507,-0.152514 -0.07755,-0.544553 -0.511089,-0.871202 -1.187085,-0.894245 -4.328447,-0.450064 -10.256493,1.450232 -5.35731,1.717346 -7.087604,2.536664 -6.695844,3.170553 0.389027,0.62945 1.321003,0.444337 6.183769,-1.228248 z m -7.37371,-0.775098 C 32.455909,45.088724 24.67577,34.952628 21.577983,34.592815 c -1.51011,-0.175401 -1.30558,0.588634 0.819812,3.062472 1.112702,1.29513 3.006034,3.863756 4.207398,5.708059 3.367928,5.170351 4.459171,6.109752 5.025302,4.326047 z m 28.475054,-5.419706 c 1.286893,-1.015171 2.991833,-4.735615 3.201633,-6.986504 l 0.184516,-1.97968 -0.842976,0.751524 c -0.463636,0.413338 -0.842977,0.926342 -0.842977,1.140009 0,0.21367 -0.788632,1.700597 -1.752528,3.304282 -2.211564,3.679488 -2.483294,4.472433 -1.528713,4.460751 0.394331,-0.0047 1.105796,-0.315495 1.581045,-0.690382 z"
       id="path1260" />
    <path
       style="fill:#ffffff;fill-opacity:1;stroke:#000000;stroke-width:0.394505;stroke-opacity:0"
       d="m -34.255913,78.130687 c -2.841682,-1.764901 -4.434681,-4.829846 -5.767691,-11.097114 -1.2016,-5.649416 -1.308551,-16.749963 -0.207148,-21.500455 2.147253,-9.261391 6.033382,-15.066121 12.511707,-18.688795 1.20853,-0.675808 2.605159,-1.662864 3.103625,-2.193454 l 0.9063,-0.96471 -1.019454,-0.944797 -1.019452,-0.944797 0.774371,-2.037982 c 1.039731,-2.736346 0.428274,-2.648226 -2.625461,0.378368 l -2.438017,2.416346 -1.517637,-1.21958 C -33.365131,19.878893 -37.683243,17.971834 -47.274537,14.391202 -56.492865,10.949806 -65.330258,6.6350005 -69.564,3.5085029 -75.86513,-1.1447057 -84.151057,-10.02011 -87.792628,-16.016954 c -1.521455,-2.505491 -2.233675,-4.529307 -1.59395,-4.529307 0.210456,0 2.670693,1.446603 5.467194,3.214675 11.997132,7.5851103 16.397829,9.9824927 23.331424,12.7103367 10.517314,4.1377636 23.612598,6.4224182 40.928686,7.1405822 3.037679,0.1259773 7.078689,0.332592 8.980025,0.4591299 l 3.4569703,0.2300675 -3.4569703,2.4900016 c -3.61421,2.6032622 -5.523529,4.3667141 -5.141519,4.7487191 0.300591,0.300596 3.051143,-1.1247544 8.7856143,-4.552756 2.6037246,-1.5564776 6.50931036,-3.6980539 8.6790827,-4.7590585 6.4462531,-3.1521791 22.526613,-8.2153495 31.363042,-9.875184 4.36665,-0.8202267 5.328504,-1.5330885 10.778169,-7.9879235 1.046002,-1.238938 2.041343,-2.166379 2.211886,-2.06098 0.170544,0.105403 0.632168,2.070768 1.025847,4.367487 l 0.71576,4.175853 10.485465,-0.265924 c 11.401461,-0.289156 18.227642,0.100899 25.152507,1.43727 9.810718,1.8932737 20.165235,6.3294129 30.215995,12.9453138 13.17201,8.6704552 20.09,11.9120912 32.04732,15.0167522 10.5598,2.741806 18.99387,3.75043 31.36092,3.75043 13.44246,0 20.72678,-1.011012 33.53283,-4.654116 3.36313,-0.956758 6.73615,-1.858131 7.49556,-2.003053 l 1.38076,-0.26349 -1.85147,1.691746 c -4.04948,3.70007 -17.00461,10.915913 -25.70791,14.318956 -5.92283,2.31588 -15.02098,4.622244 -22.4119,5.681388 -10.80762,1.548769 -19.87964,1.805647 -46.44325,1.315063 -25.825188,-0.476944 -37.28791,-0.241274 -42.056287,0.864673 -5.115881,1.186552 -5.056494,2.044014 0.132373,1.910286 l 3.4182,-0.0881 -2.169769,0.997354 c -1.193354,0.548544 -5.897816,2.418748 -10.454339,4.156009 -12.221324,4.659622 -12.245154,4.669575 -14.657707,6.122335 -1.22469,0.737468 -2.308883,1.258677 -2.409315,1.158236 -0.100449,-0.100449 0.103539,-1.022736 0.453498,-2.049543 0.704985,-2.069033 0.824724,-4.76222 0.252012,-5.668111 -0.583202,-0.922445 -1.139152,-0.0499 -1.617728,2.538967 -0.980037,5.301567 -3.546135,8.895305 -7.926901,11.101429 l -2.675689,1.347449 h -8.339264 -8.339211 l 0.34067,-1.873893 c 0.187373,-1.030642 0.340671,-4.185914 0.340671,-7.011712 0,-5.012104 -0.03175,-5.202294 -1.297692,-7.772821 C 25.223504,42.903258 23.746587,40.863088 22.387819,39.48306 17.45856,34.476687 11.230947,31.995621 -1.9066049,29.804239 -6.4631238,29.0442 -11.197339,28.036969 -12.427085,27.565951 c -2.200326,-0.842769 -2.288202,-0.845807 -5.523054,-0.190945 -5.487212,1.110832 -11.967637,4.00877 -15.319515,6.850631 -2.393933,2.029669 -0.959978,1.837769 3.551003,-0.475221 5.668816,-2.906662 9.551675,-4.202016 12.495958,-4.168745 l 2.297464,0.02598 -2.091919,0.563023 c -5.339736,1.43715 -10.31008,4.164832 -9.836746,5.398323 0.130088,0.339008 1.491424,1.617642 3.025191,2.841408 1.533765,1.223766 2.788667,2.39277 2.788667,2.597784 0,0.626407 -3.152705,2.405014 -4.677756,2.638969 -2.20922,0.338916 -2.75429,0.774389 -3.233123,2.583062 -0.510381,1.927824 -2.140657,3.839701 -3.274157,3.839701 -0.429176,0 -1.902229,-1.077312 -3.273449,-2.394028 -1.371225,-1.316713 -2.673371,-2.282633 -2.893658,-2.146489 -1.055531,0.652356 -0.288383,2.084569 2.554104,4.768359 l 2.95722,2.79212 0.591767,3.39345 c 0.325474,1.866398 1.412257,6.202032 2.415078,9.634749 2.098871,7.184554 2.595408,11.042739 1.555062,12.083086 -0.935702,0.935701 -4.38279,0.894786 -5.936965,-0.07046 z M 38.963408,48.478525 c 2.702413,-0.929516 5.976304,-1.745312 7.871674,-1.961485 1.784743,-0.20355 3.353234,-0.478342 3.485528,-0.610639 0.132301,-0.1323 -0.114248,-0.507563 -0.547837,-0.833926 -1.092869,-0.822544 -3.856213,-0.494771 -8.918046,1.057815 -5.33781,1.637237 -7.847756,2.723516 -7.847756,3.396444 0,0.839103 0.961118,0.669967 5.956437,-1.048209 z m -7.489014,-0.677011 c 0.09455,-1.436455 -0.147622,-2.324259 -1.129186,-4.140091 -2.368107,-4.380822 -7.869914,-9.695688 -9.420703,-9.100591 -0.684903,0.262818 -0.169006,1.170827 2.423649,4.265722 0.908825,1.084886 2.736825,3.597541 4.062227,5.583676 2.184993,3.274271 2.810142,3.954461 3.722704,4.050519 0.162739,0.01712 0.316317,-0.279524 0.341309,-0.659235 z m 28.729279,-5.683932 c 1.248632,-1.163282 2.852976,-4.791929 3.093533,-6.996807 l 0.198243,-1.817272 -0.844845,0.751524 c -0.46467,0.413338 -0.848941,0.945916 -0.853943,1.18351 -0.0043,0.237591 -0.892648,1.939532 -1.972516,3.782086 -1.079882,1.842556 -1.963433,3.484679 -1.963433,3.64916 0,0.613763 1.461048,0.269414 2.342961,-0.552201 z"
       id="path1261" />
    <path
       style="fill:#ffffff;fill-opacity:1;stroke:#000000;stroke-width:0.394505;stroke-opacity:0"
       d="m 28.584161,64.373038 -3.436553,-0.131267 0.459031,-1.069751 c 0.25247,-0.588362 0.512603,-1.144479 0.578096,-1.235817 0.136973,-0.191048 2.420583,-0.142218 10.161523,0.217312 l 5.509042,0.255865 -1.351853,1.128583 c -1.471407,1.228384 -1.524591,1.232109 -11.919286,0.83507 z"
       id="path1262" />
    <path
       style="fill:#ffffff;fill-opacity:1;stroke:#000000;stroke-width:0.394505;stroke-opacity:0"
       d="M 40.736198,62.752932 C 40.624661,62.572429 37.388429,62.3061 33.544592,62.161088 29.700766,62.016077 26.479863,61.82147 26.387019,61.728631 c -0.657433,-0.657439 1.131478,-0.785946 8.528089,-0.612616 l 8.417456,0.197252 -1.19677,0.883925 c -0.658218,0.486159 -1.288035,0.736242 -1.399596,0.55574 z"
       id="path1263" />
    <path
       style="display:inline;fill:#ffffff;fill-opacity:1;stroke:#000000;stroke-width:0.394505;stroke-opacity:0"
       d="m 37.269838,68.403404 c -0.452673,-0.452683 -11.191435,-0.974535 -12.468449,-0.60591 -1.227055,0.354208 -1.286508,0.326086 -1.035879,-0.489953 0.146245,-0.476148 0.290476,-0.897569 0.32053,-0.936491 0.03005,-0.03892 0.894477,0.108338 1.920947,0.327279 1.026468,0.218926 4.142489,0.339534 6.924481,0.268019 l 5.058155,-0.13003 -0.170298,0.887633 c -0.181906,0.948234 -0.226077,1.002855 -0.549487,0.679451 z"
       id="path1264" />
    <path
       style="fill:#ffffff;fill-opacity:1;stroke:#000000;stroke-width:0.394505;stroke-opacity:0"
       d="M 23.144384,84.590872 C 22.60194,84.281827 20.338472,83.362771 18.114468,82.548528 l -4.043656,-1.480442 1.084875,-0.888267 c 0.596688,-0.488538 1.25359,-0.894637 1.459799,-0.902443 0.776693,-0.0294 7.689378,2.835994 8.13388,3.371584 0.255281,0.307593 0.739639,0.55927 1.076365,0.55927 0.469465,0 0.396178,0.229955 -0.314328,0.98625 -1.070443,1.139442 -1.064561,1.138457 -2.367019,0.396392 z"
       id="path1265" />
    <path
       style="display:inline;fill:#ffffff;fill-opacity:1;stroke:#000000;stroke-width:0.394505;stroke-opacity:0"
       d="m 18.213083,86.95446 c -0.8679,-0.297285 -2.977021,-1.055687 -4.686917,-1.685338 l -3.108905,-1.144818 1.291995,-0.919976 1.291979,-0.919976 3.789435,1.313151 c 2.084187,0.722232 4.308354,1.571894 4.942591,1.888135 l 1.153157,0.574987 -0.955909,0.734794 c -1.122335,0.862748 -1.602994,0.883307 -3.717426,0.159041 z"
       id="path1266" />
    <path
       style="fill:#ffffff;fill-opacity:1;stroke:#000000;stroke-width:0.394505;stroke-opacity:0"
       d="m 15.090899,85.950785 c -2.368123,-0.856408 -4.375526,-1.626931 -4.460873,-1.71229 -0.08532,-0.08532 0.397194,-0.548514 1.072322,-1.029248 l 1.227515,-0.874069 3.43062,1.201128 c 1.886842,0.660634 4.131525,1.495486 4.988188,1.855252 l 1.557568,0.654108 -0.965818,0.742282 c -1.325456,1.018687 -1.917952,0.946264 -6.849522,-0.837163 z"
       id="path1267" />
    <path
       style="fill:#ffffff;fill-opacity:1;stroke:#000000;stroke-width:0.394505;stroke-opacity:0"
       d="m 22.749883,86.05438 c 0,-0.22357 -2.129924,-1.177319 -4.733153,-2.119446 -4.361629,-1.578514 -5.815633,-2.590164 -3.508343,-2.441003 1.197205,0.0774 9.425005,3.300498 9.425005,3.69209 0,0.160945 -0.266293,0.51362 -0.59176,0.783729 -0.351372,0.29162 -0.591749,0.325993 -0.591749,0.08467 z"
       id="path1268" />
    <path
       style="display:inline;fill:#ffffff;fill-opacity:1;stroke:#000000;stroke-width:0.394505;stroke-opacity:0"
       d="M 8.9714944,88.405012 C 7.5352481,87.973916 7.5668429,87.367937 9.1149062,85.654417 l 1.4036378,-1.553654 4.137938,1.526242 c 2.275871,0.839441 4.717247,1.533364 5.425293,1.542056 l 1.287341,0.01583 -1.18351,0.661337 c -0.880985,0.49229 -2.343189,0.684953 -5.7203,0.753708 -2.495239,0.05079 -4.9674486,-0.03688 -5.4938068,-0.194887 z"
       id="path1269" />
    <path
       style="fill:#ffffff;fill-opacity:1;stroke:#000000;stroke-width:0.394505;stroke-opacity:0"
       d="M 8.9714944,88.405012 C 7.3474576,87.917543 7.57753,87.170944 10.111004,84.707213 c 2.204124,-2.14345 2.562414,-2.350492 3.680537,-2.126868 1.162684,0.232542 1.191101,0.211746 0.463103,-0.338651 -0.753451,-0.56964 -0.747433,-0.586915 0.210659,-0.604973 0.693355,-0.01308 0.829933,-0.117679 0.459874,-0.352271 -0.405136,-0.256808 -0.285216,-0.52337 0.520622,-1.157242 0.82801,-0.651309 1.252938,-0.745294 2.031461,-0.449303 1.460107,0.555133 1.677307,0.425388 0.424832,-0.253784 l -1.100004,-0.596473 2.956803,-3.182718 c 2.473931,-2.662943 2.999364,-3.466558 3.217449,-4.920834 0.166535,-1.110529 0.560521,-1.948166 1.091129,-2.319821 0.456764,-0.319935 0.613464,-0.581694 0.348208,-0.581694 -0.265256,0 -0.482285,-0.234093 -0.482285,-0.520198 0,-0.409048 1.159006,-0.50399 5.424426,-0.444351 l 5.424431,0.07586 -4.800768,-0.246033 C 27.341059,66.552543 25.047743,66.30841 24.885217,66.145351 24.722681,65.98229 24.788143,65.449709 25.030691,64.96184 27.720816,59.550591 28.28249,49.364111 26.139641,44.849737 23.217435,38.693456 16.645538,34.019958 7.73073,31.758533 5.6842898,31.23941 1.0809702,30.337247 -2.4988698,29.753727 c -3.5798406,-0.583521 -7.7903632,-1.496939 -9.3567152,-2.02982 -2.565985,-0.87296 -3.080729,-0.926655 -5.199751,-0.542403 -4.908555,0.890091 -10.610306,3.190748 -14.56734,5.877918 -2.35001,1.595861 -3.077803,2.298043 -2.736066,2.63978 0.0954,0.09539 2.195749,-0.819083 4.667466,-2.032155 5.957307,-2.923746 9.593746,-4.116643 12.468583,-4.090191 l 2.297464,0.02114 -2.958779,0.883539 c -3.197436,0.954811 -7.999659,3.186829 -8.717539,4.051817 -0.691951,0.833758 -0.227566,1.483076 2.772844,3.877048 1.533765,1.223768 2.788667,2.39277 2.788667,2.597785 0,0.657082 -2.995386,2.289811 -5.180655,2.823877 -2.039533,0.498454 -2.139497,0.58568 -2.709423,2.364104 -0.681246,2.125823 -2.158174,3.873751 -3.273148,3.873751 -0.422727,0 -1.922243,-1.079181 -3.332261,-2.39818 -1.718903,-1.607955 -2.694404,-2.267439 -2.960438,-2.001405 -0.799734,0.799734 0.162839,2.425222 2.850799,4.814142 2.1987,1.95409 2.799186,2.734509 2.982519,3.876219 0.477227,2.971943 1.104737,5.562972 2.830335,11.686626 2.103163,7.463514 2.5855,11.480234 1.475991,12.291525 -0.94997,0.694642 -4.27277,0.678862 -5.62331,-0.02673 -2.843736,-1.485628 -4.692933,-4.934558 -6.04719,-11.278569 -1.278701,-5.990066 -1.303943,-17.186086 -0.04999,-22.165886 2.27984,-9.053792 5.802419,-14.261068 12.158334,-17.973118 1.507452,-0.880402 3.069576,-1.963998 3.471386,-2.407996 0.715148,-0.790227 0.708575,-0.827646 -0.31147,-1.772991 -1.034369,-0.95862 -1.037308,-0.977544 -0.399626,-2.571267 1.101733,-2.753507 0.474363,-2.776568 -2.328023,-0.08559 l -2.633987,2.529285 -0.884351,-0.821961 c -1.175705,-1.092733 -5.460382,-3.19033 -10.54969,-5.164653 -13.029827,-5.05473 -15.94996,-6.257229 -19.527935,-8.0415354 -6.767092,-3.3746956 -10.180079,-5.899885 -16.376839,-12.1168388 -5.809044,-5.8279811 -10.448891,-11.7555638 -11.682544,-14.9249058 -1.131727,-2.907484 -1.110649,-2.900224 7.545188,2.598915 15.581243,9.8989173 24.854577,13.6974086 39.647627,16.24024368 5.467484,0.93982452 15.089667,1.84893832 22.881219,2.16183552 3.146166,0.126351 7.101682,0.3335506 8.790037,0.4604549 l 3.0697272,0.2307294 -3.2669802,2.3719343 c -3.560715,2.5851927 -5.436755,4.2152624 -5.436755,4.7239332 0,0.558092 2.389119,-0.6339031 8.8471723,-4.4140818 3.4260372,-2.005409 7.67458209,-4.3224681 9.4412172,-5.149021 6.0800953,-2.8446885 19.2247655,-7.0166847 28.5365935,-9.0572529 2.862667,-0.6273157 5.735638,-1.4150531 6.384364,-1.7505273 0.648738,-0.335474 2.123381,-1.706108 3.276991,-3.045851 4.017817,-4.666095 5.149475,-5.844592 5.439929,-5.665081 0.160782,0.09936 0.613332,2.053497 1.005682,4.342513 l 0.713372,4.16185 10.685117,-0.256468 c 11.560395,-0.277479 17.859541,0.09396 25.084496,1.4790975 9.899794,1.897956 19.951925,6.2680691 30.968555,13.4633983 7.90858,5.1653575 12.28122,7.6227262 17.56748,9.8726712 16.61425,7.071411 38.46824,9.927566 59.16349,7.732244 5.28019,-0.560113 10.52991,-1.652788 18.73895,-3.900303 3.90556,-1.069294 7.63364,-2.064846 8.28456,-2.212339 l 1.18351,-0.268167 -0.98624,1.086435 c -1.80619,1.989647 -10.34317,7.308338 -17.34481,10.80614 -12.1064,6.047962 -21.16278,8.664691 -36.70223,10.604627 -4.65153,0.580698 -10.12043,0.66698 -43.19813,0.681517 -35.021208,0.01538 -38.063516,0.06935 -40.41132,0.71673 -4.274931,1.178774 -4.272632,1.631081 0.01006,1.858565 l 3.712999,0.19725 -7.10106,2.836655 c -3.905595,1.56016 -9.320156,3.654592 -12.032381,4.654297 -2.71221,0.999701 -6.156958,2.521486 -7.654972,3.381743 -1.498028,0.860258 -2.797174,1.490615 -2.886994,1.400798 -0.08987,-0.08981 0.115113,-1.100668 0.455296,-2.246341 0.694751,-2.339468 0.791595,-4.60585 0.234478,-5.487061 -0.593404,-0.938584 -1.090792,-0.07387 -1.731566,3.010328 -1.044816,5.028834 -3.441747,8.425404 -7.33137,10.388879 -1.207829,0.609713 -3.284404,1.926687 -4.614603,2.926618 -1.330185,0.999929 -2.815344,1.81805 -3.300334,1.81805 -0.673002,0 -0.782287,0.119902 -0.461561,0.506363 0.611409,0.736691 -0.02561,1.498678 -1.554777,1.859672 l -1.333127,0.314729 1.282135,0.04039 c 1.351695,0.04257 1.917384,1.218333 0.591765,1.229932 -0.493424,0.0043 -0.549513,0.09549 -0.196594,0.319571 0.818764,0.519868 -4.824837,8.461402 -9.769086,13.746824 -2.078051,2.22144 -2.550254,2.541679 -3.468915,2.352512 -0.584885,-0.120439 -0.841514,-0.12247 -0.570291,-0.0043 0.98164,0.426936 0.449986,1.191677 -1.759609,2.531021 -2.194156,1.329977 -2.371115,1.367545 -6.805187,1.444607 -2.503854,0.0435 -4.9831117,-0.05015 -5.5094674,-0.208134 z M 21.171862,83.60273 c -0.325467,-0.210334 -0.769284,-0.382419 -0.98626,-0.382419 -0.216975,0 -0.128205,0.172085 0.197249,0.382419 0.32547,0.210336 0.769286,0.382419 0.986262,0.382419 0.216985,0 0.128219,-0.172083 -0.197251,-0.382419 z m -4.73404,-0.3945 C 16.112354,82.997895 15.668537,82.8258 15.45156,82.8258 c -0.216973,0 -0.128219,0.172095 0.197253,0.38243 0.325466,0.210326 0.769283,0.382419 0.986257,0.382419 0.216978,0 0.128219,-0.172093 -0.197248,-0.382419 z m 9.073581,-0.180624 c 0,-0.301509 -3.286172,-2.087216 -4.339541,-2.358115 -0.542442,-0.139503 0.167669,0.356331 1.578021,1.101831 3.031993,1.602705 2.76152,1.479661 2.76152,1.256284 z M 18.01583,82.419219 c -0.325466,-0.210335 -0.769283,-0.382418 -0.986257,-0.382418 -0.216975,0 -0.128206,0.172083 0.197248,0.382418 0.325469,0.210338 0.769286,0.38242 0.986262,0.38242 0.216986,0 0.128218,-0.172082 -0.197253,-0.38242 z M 34.872069,67.929175 c -0.818505,-0.0854 -2.061186,-0.08396 -2.761519,0.0031 -0.700346,0.08715 -0.03065,0.157023 1.488185,0.155273 1.518839,-0.0017 2.091841,-0.07305 1.273334,-0.158457 z M 28.95452,67.534672 c -0.818507,-0.0854 -2.061191,-0.08396 -2.76153,0.0031 -0.700339,0.08714 -0.03066,0.157024 1.488183,0.155274 1.518846,-0.0017 2.091844,-0.07305 1.273347,-0.158458 z m 9.904478,-19.052866 c 2.631196,-0.873459 6.247859,-1.771662 8.037046,-1.996008 1.789191,-0.224344 3.334227,-0.48905 3.433405,-0.588238 0.557955,-0.557951 -1.060134,-1.148315 -3.042335,-1.110012 -3.419108,0.06607 -14.280143,3.666183 -14.280143,4.733444 0,0.810938 0.59936,0.704503 5.852027,-1.039186 z m -7.430033,-1.390265 c 0,-1.778048 -0.727071,-3.209367 -3.463837,-6.818921 -2.324129,-3.065322 -5.238659,-5.588356 -6.455493,-5.588356 -1.194714,0 -0.87425,0.697482 1.968619,4.284729 1.485488,1.874453 3.343401,4.422754 4.128691,5.662893 1.548204,2.444953 2.804717,3.860011 3.427505,3.860011 0.216991,0 0.394515,-0.630161 0.394515,-1.400356 z m 28.972433,-5.404836 c 0.703058,-0.705175 1.661693,-2.309575 2.130316,-3.565329 0.852606,-2.284695 1.149159,-4.850816 0.515321,-4.459078 -0.368173,0.227538 -5.186323,8.635699 -5.186323,9.05065 0,0.683763 1.399359,0.118534 2.540686,-1.026243 z"
       id="path1270" />
    <path
       style="fill:#ffffff;fill-opacity:1;stroke:#000000;stroke-width:0.394505;stroke-opacity:0"
       d="M 8.9714944,88.405012 C 7.3477349,87.91763 7.5774336,87.171041 10.108377,84.709767 c 1.939432,-1.886039 2.636371,-2.334359 3.401518,-2.188094 0.77742,0.148615 0.876559,0.08061 0.516047,-0.353756 -0.346647,-0.417677 -0.298195,-0.537708 0.217082,-0.537708 0.364843,0 0.562413,-0.163315 0.439049,-0.362918 -0.370263,-0.599095 1.677981,-1.946166 2.648067,-1.741551 0.813845,0.171666 0.825606,0.149847 0.150187,-0.278726 -0.67826,-0.430378 -0.588038,-0.615762 1.213147,-2.492788 3.132233,-3.264108 3.966146,-4.468345 4.247512,-6.133717 0.145782,-0.862947 0.499165,-1.763273 0.785268,-2.000717 0.286103,-0.237444 0.429043,-0.780244 0.317652,-1.206221 -0.15888,-0.607563 -0.001,-0.775805 0.731107,-0.780543 0.665819,-0.0043 0.781859,-0.102272 0.404498,-0.341419 -0.427012,-0.270645 -0.291088,-1.028683 0.704239,-3.92754 0.980169,-2.854697 1.281643,-4.505669 1.468449,-8.041786 C 27.742324,46.937811 26.369231,43.365398 21.328369,38.649916 16.55925,34.188636 10.332858,31.876971 -2.6956131,29.730548 -6.1672463,29.1586 -10.29742,28.270466 -11.873778,27.756912 c -2.511963,-0.818358 -3.14566,-0.884295 -5.12855,-0.533612 -5.074124,0.897377 -11.846626,3.735049 -15.675571,6.568052 -3.049226,2.256092 -1.323654,2.055557 3.612234,-0.419791 5.29385,-2.654868 8.994552,-3.828016 11.913596,-3.776691 l 2.22684,0.03915 -2.276938,0.597207 c -3.04074,0.797545 -9.526532,4.084037 -9.67758,4.903843 -0.0752,0.40815 0.983626,1.549374 2.860154,3.082748 1.638756,1.339071 2.979557,2.598576 2.979557,2.798894 0,0.567673 -3.036556,2.344807 -4.449562,2.604091 -1.948248,0.357502 -2.929865,1.149516 -3.452893,2.785969 -0.579997,1.814675 -2.226722,3.663134 -3.263355,3.663134 -0.418606,0 -1.815724,-0.976396 -3.104709,-2.169772 -2.50431,-2.318545 -3.482151,-2.689588 -3.482151,-1.321295 0,0.540848 1.062789,1.864073 2.9313,3.649621 l 2.931306,2.801137 0.809964,3.944581 c 0.445476,2.169519 1.531872,6.429953 2.414213,9.467634 1.950504,6.715123 2.448751,11.093318 1.353569,11.894131 -0.953306,0.697078 -4.274289,0.683029 -5.627273,-0.02384 -3.441954,-1.79816 -5.484273,-6.34467 -6.593254,-14.677571 -2.199717,-16.52867 2.305112,-30.637664 11.501964,-36.023814 4.983066,-2.918343 5.673996,-3.79078 4.04607,-5.108995 -0.795622,-0.644256 -0.803511,-0.73157 -0.197249,-2.18256 1.236579,-2.959555 0.574998,-2.958638 -2.530507,0.0036 l -2.314447,2.207608 -1.331858,-1.015859 c -1.940229,-1.479924 -6.864773,-3.677903 -16.467384,-7.349962 -14.84256,-5.675821 -20.777471,-9.0940662 -28.231887,-16.2603164 -7.511673,-7.2212924 -14.736939,-17.0360556 -13.472299,-18.3006966 0.292314,-0.292314 2.106916,0.69596 6.524937,3.553625 6.3438,4.1033 13.183404,8.0390818 17.251596,9.9272571 12.580114,5.8388305 25.613754,8.4394951 47.318183,9.4416274 2.603723,0.1202191 6.210861,0.3208852 8.015854,0.4459282 l 3.2818139,0.227349 -2.4928076,1.7994646 c -3.4559703,2.494739 -6.2405873,4.8387814 -6.2405873,5.2532227 0,0.593023 1.744965,-0.2674355 8.566087,-4.224013 C -3.725872,3.9284598 0.66507722,1.5411781 2.4122629,0.72289047 8.5323134,-2.1434103 22.452287,-6.5428606 31.703784,-8.5347849 c 5.613462,-1.2086244 6.652767,-1.8329281 10.281446,-6.1760331 1.503205,-1.799157 3.025147,-3.513098 3.382066,-3.808756 0.814234,-0.67446 0.828306,-0.639942 1.746247,4.285346 l 0.698475,3.747785 13.999304,0.0087 c 9.492356,0.0059 14.951861,0.170534 16.958082,0.5113888 13.891342,2.3601102 22.688146,5.9454223 36.533436,14.8899352 8.16565,5.275266 17.03373,9.786041 23.23388,11.817977 14.1821,4.647808 30.03446,6.644958 45.58203,5.742629 10.44163,-0.605996 17.11323,-1.840115 29.96462,-5.542882 5.15038,-1.48394 5.54996,-1.498838 4.31052,-0.160711 -3.05732,3.300688 -17.26227,11.34317 -26.3158,14.899335 -7.40721,2.909497 -16.68391,5.10833 -27.1096,6.42572 -4.93251,0.623269 -9.55143,0.699119 -43.19818,0.709385 -38.169016,0.0116 -39.710349,0.0632 -43.099532,1.44134 -1.867019,0.759193 -1.205054,1.099746 2.36702,1.217698 l 3.451905,0.113991 -8.087304,3.222513 c -4.448037,1.772384 -10.040131,3.953827 -12.426885,4.847653 -2.38674,0.893828 -5.383602,2.246037 -6.659688,3.004912 -1.276085,0.758874 -2.397714,1.302222 -2.492485,1.207442 -0.09479,-0.09479 0.106005,-1.109697 0.446265,-2.255366 0.701549,-2.362386 0.79109,-4.617398 0.218049,-5.490359 -0.560594,-0.85396 -0.991231,-0.05113 -1.731931,3.228755 -1.133186,5.017946 -3.339039,8.032732 -7.584978,10.366597 -1.410171,0.775125 -3.500436,2.116383 -4.645048,2.98057 -1.144597,0.864189 -2.394641,1.571251 -2.777844,1.571251 -0.435783,0 -0.61721,0.207267 -0.484374,0.553409 0.272688,0.710607 -0.495812,1.694618 -1.508721,1.931821 -0.710686,0.16643 -0.700886,0.189311 0.09874,0.230532 0.807586,0.04166 1.347545,1.229275 0.558866,1.229275 -0.180799,0 -0.328739,0.228563 -0.328739,0.50792 0,1.914892 -11.362529,16.06123 -12.900597,16.06123 -0.354227,0 -0.644039,0.228779 -0.644039,0.508404 0,0.279623 -1.013726,1.122869 -2.252733,1.873895 -2.194156,1.329978 -2.371115,1.367545 -6.805187,1.444607 -2.503857,0.04353 -4.9831138,-0.05014 -5.5094693,-0.208136 z M 23.759365,81.81492 c -0.421185,-0.318572 -0.953761,-0.572923 -1.183511,-0.565237 -0.22975,0.0074 0.02608,0.267693 0.56853,0.577777 1.2779,0.730519 1.588999,0.72417 0.614981,-0.0125 z M 34.083652,67.978737 c -0.131094,-0.131094 -0.471362,-0.145104 -0.756139,-0.03115 -0.314717,0.125933 -0.221229,0.219415 0.238352,0.238343 0.415864,0.01713 0.648861,-0.0761 0.517787,-0.2072 z m -4.523163,-1.222868 c -0.485214,-0.09364 -1.372848,-0.09608 -1.97251,-0.0053 -0.599671,0.09066 -0.202682,0.16729 0.882205,0.170255 1.084885,0.003 1.575534,-0.07123 1.090305,-0.164871 z m 9.222834,-18.266826 c 2.67256,-0.869477 6.238639,-1.770456 7.924624,-2.002172 3.580567,-0.492102 4.210605,-0.880904 2.43209,-1.500896 -1.694775,-0.5908 -4.409613,-0.08888 -10.394163,1.921661 -4.535777,1.523813 -5.738903,2.114192 -5.738903,2.816074 0,0.567792 0.688122,0.420711 5.776352,-1.234667 z m -7.354358,-1.494155 c 0,-3.174569 -7.35956,-12.310624 -9.916838,-12.310624 -1.181191,0 -0.881926,0.685897 1.695621,3.886213 1.336712,1.659683 3.197492,4.212666 4.135086,5.6733 2.760352,4.300272 4.086131,5.192887 4.086131,2.751111 z m 28.523931,-4.824497 c 0.558267,-0.439149 1.46799,-1.726218 2.021542,-2.860151 1.062334,-2.176065 1.849357,-6.128005 1.132113,-5.68472 -0.392217,0.242397 -5.245839,8.681563 -5.245839,9.121111 0,0.489413 1.134743,0.176873 2.092184,-0.57624 z"
       id="path1271" />
    <path
       style="fill:#ffffff;fill-opacity:1;stroke:#000000;stroke-width:0.394505;stroke-opacity:0"
       d="m 117.23352,3.2676909 c -8.45812,-5.3041053 -12.44608,-8.0780325 -12.19577,-8.483054 0.49504,-0.8010059 13.40838,-6.1624619 13.82915,-5.7416919 0.0914,0.09149 -0.28071,1.5662552 -0.8271,3.2772654 -1.79399,5.6178305 -1.56585,5.8913607 4.63179,5.5525905 3.9206,-0.2143074 12.16339,-1.392836 14.29608,-2.0440149 1.27101,-0.3880792 0.0518,0.3799201 -4.54575,2.8632868 -3.02801,1.63560925 -4.85929,2.9571258 -6.80772,4.9127068 -1.466,1.4713679 -2.8862,2.6654112 -3.15602,2.6534271 -0.26983,-0.011968 -2.62094,-1.3577129 -5.22466,-2.9905158 z"
       id="path1272" />
    <path
       style="fill:#ffffff;fill-opacity:1;stroke:#000000;stroke-width:0.394505;stroke-opacity:0"
       d="m 49.872011,-15.449311 c -0.510376,-0.297268 -0.690387,-0.911294 -0.690387,-2.355027 0,-1.186958 0.174582,-1.952915 0.445115,-1.952915 0.515965,0 4.046588,2.013708 5.430568,3.097342 0.526257,0.412062 0.821603,0.938056 0.667095,1.188067 -0.345606,0.559182 -4.900903,0.57672 -5.852391,0.02254 z"
       id="path1273" />
    <path
       style="fill:#ffffff;fill-opacity:1;stroke:#000000;stroke-width:0.394505;stroke-opacity:0"
       d="M 15.057051,49.011599 C 8.3375472,48.153799 -0.84030479,45.642102 -6.2297422,43.186054 -9.9476945,41.491729 -14.940706,38.281693 -16.700497,36.454348 l -1.380763,-1.433768 0.924979,-0.754765 c 1.636111,-1.335033 3.937711,-1.732678 9.9238757,-1.714538 11.116438,0.03367 22.4563333,3.325842 26.6874133,7.7478 1.409561,1.473144 1.448189,1.572264 0.533345,1.368735 C 19.445909,41.54713 12.866712,40.193289 5.3679049,38.659268 -2.1308983,37.125247 -9.5870188,35.532862 -11.201254,35.120636 c -1.61423,-0.412225 -3.007849,-0.680136 -3.096925,-0.595354 -0.08908,0.08477 0.14193,0.489942 0.513357,0.900362 0.896735,0.990878 7.0580428,2.736339 18.3478693,5.197833 13.5742137,2.959556 19.3703447,5.068032 19.3703447,7.046417 0,1.358265 -4.00475,1.963605 -8.876341,1.341705 z"
       id="path1274" />
    <path
       style="display:inline;fill:#ffffff;fill-opacity:1;stroke:#000000;stroke-width:0.197982;stroke-opacity:0"
       d="m -28.972155,46.98732 c 0.0073,-0.642265 0.711814,-1.970404 1.283511,-2.420101 0.584322,-0.459629 1.904439,-0.889007 2.424802,-0.788687 0.216725,0.04178 0.06942,0.225071 -0.465252,0.578879 -0.430318,0.284756 -1.337021,1.077551 -2.014901,1.761768 -0.898565,0.906968 -1.231329,1.142184 -1.22816,0.868141 z"
       id="path1275" />
    <path
       style="fill:#ffffff;fill-opacity:1;stroke:#000000;stroke-width:0.197982;stroke-opacity:0"
       d="m 9.6300727,88.511569 c -1.0380991,-0.167805 -1.7821535,-0.53344 -1.7811019,-0.875244 0.0022,-0.726319 1.9269098,-2.956717 3.7280142,-4.32019 1.153672,-0.873352 1.360661,-0.960934 1.996394,-0.844667 0.693935,0.126897 0.701781,0.121282 0.362812,-0.260317 -0.486133,-0.547242 -0.437831,-0.654923 0.296975,-0.662119 0.574069,-0.0053 0.606472,-0.03443 0.300537,-0.266697 -0.314329,-0.2387 -0.281314,-0.309773 0.395964,-0.852496 1.110459,-0.889857 1.61328,-1.104032 2.297421,-0.978614 l 0.619259,0.113526 -0.544453,-0.297917 c -0.299446,-0.163863 -0.544453,-0.353157 -0.544453,-0.42067 0,-0.06746 0.782725,-0.933309 1.739403,-1.924005 2.657806,-2.752331 3.929442,-4.382085 4.156124,-5.326543 0.109607,-0.456683 0.303509,-1.275793 0.430893,-1.820243 0.127386,-0.544453 0.41076,-1.180774 0.629745,-1.414048 0.238935,-0.25454 0.310693,-0.453287 0.179449,-0.497033 -0.158997,-0.05301 -0.157659,-0.247959 0.0053,-0.714265 0.185381,-0.531782 0.325497,-0.641365 0.820098,-0.641365 0.596486,0 0.596486,-1.7e-5 0.175558,-0.346471 -0.419475,-0.345248 -0.419636,-0.349258 -0.04491,-1.138397 1.471795,-3.099558 2.152836,-5.88464 2.403583,-9.829239 0.22058,-3.469933 0.01721,-6.936308 -0.509396,-8.68212 C 25.311334,41.764783 20.576298,36.948947 14.679125,34.242323 10.60082,32.370501 6.791664,31.369058 -1.9513964,29.870086 -7.6800251,28.887931 -9.7813518,28.42999 -12.147491,27.648057 c -1.345664,-0.4447 -2.218836,-0.614771 -3.068729,-0.597701 -4.751962,0.09544 -14.672403,4.132039 -18.16676,7.392026 -0.854137,0.796843 -0.963606,0.969275 -0.619306,0.97549 0.542747,0.0099 2.411057,-0.780118 6.214181,-2.627328 3.614239,-1.755464 5.953932,-2.607571 8.267709,-3.01106 1.811675,-0.315928 4.602371,-0.399138 4.294278,-0.128047 -0.103456,0.09102 -0.941325,0.366466 -1.861948,0.612091 -3.028113,0.807902 -7.640098,2.911744 -9.154425,4.175959 -0.580109,0.484296 -0.628325,0.600713 -0.453893,1.095907 0.107337,0.304726 0.863357,1.126286 1.680034,1.825686 3.297684,2.824135 3.95965,3.447026 3.95965,3.725931 0,0.37806 -2.876228,2.221848 -3.710439,2.378554 -0.352941,0.06631 -0.60148,0.185642 -0.552309,0.265203 0.09471,0.153234 -3.472588,3.320008 -3.621941,3.21529 -0.0481,-0.03373 -0.240313,0.278093 -0.427119,0.692939 -0.456839,1.014511 -2.024031,2.437118 -2.684811,2.437118 -0.757041,0 -1.194087,-0.286384 -3.159127,-2.070092 -2.631611,-2.388719 -3.297658,-2.747847 -3.519929,-1.897888 -0.202054,0.772663 0.705039,2.008713 3.251669,4.430868 l 2.554862,2.429989 0.301276,1.572794 c 0.582157,3.039139 1.530557,6.959612 2.703328,11.174945 1.687484,6.065375 2.129201,8.145859 2.131291,10.038294 0.0022,1.907564 -0.221855,2.511373 -1.063295,2.866677 -0.994514,0.419945 -3.803984,0.320872 -4.898617,-0.172754 -3.347913,-1.509774 -5.582204,-6.143704 -6.696551,-13.888775 -1.141452,-7.933474 -0.81879,-15.700747 0.900605,-21.679716 1.274449,-4.431718 2.933484,-7.7718 5.377801,-10.826946 1.499062,-1.873671 3.436345,-3.4656 6.364182,-5.229659 2.536863,-1.52849 3.5814,-2.431248 3.5814,-3.095284 0,-0.271646 -0.321421,-0.795575 -0.775142,-1.263509 l -0.775624,-0.799425 0.566799,-1.385875 c 1.166334,-2.851781 0.648092,-2.952173 -2.032366,-0.39371 -0.797278,0.760992 -1.775895,1.685457 -2.174706,2.054367 l -0.725112,0.670743 -0.952319,-0.843281 c -1.2318,-1.09074 -6.105036,-3.458898 -11.148432,-5.41759 -2.123362,-0.824646 -5.4928,-2.130854 -7.487642,-2.902687 -7.243366,-2.802557 -12.362598,-5.1849184 -16.369242,-7.6178197 -3.909257,-2.3737699 -6.591938,-4.5504861 -11.057745,-8.9722032 -5.945026,-5.8863325 -11.258244,-12.8201571 -12.326554,-16.0863291 -0.659562,-2.016497 -0.277237,-1.864906 7.114937,2.82104 13.819999,8.7605835 21.513588,12.3488258 32.179094,15.0081259 8.783558,2.19006199 16.947822,3.1870797 32.397981,3.9564346 4.355616,0.2168915 8.5246851,0.4494869 9.2646035,0.51688 l 1.3453073,0.1225273 -1.2463158,0.9089295 c -5.97463,4.3572514 -8.270798,6.3744417 -7.256035,6.3744417 0.373703,0 3.627067,-1.6994523 6.7962221,-3.5501272 C -1.111511,2.3890568 2.213955,0.66942361 6.2536283,-0.89973899 12.32617,-3.2585474 22.458434,-6.3815913 28.735376,-7.8292484 c 5.896235,-1.3598512 7.043666,-1.6653238 8.138998,-2.1667822 1.304493,-0.5972184 3.381425,-2.6175714 6.477902,-6.3014664 1.303323,-1.550558 2.26231,-2.524276 2.486112,-2.524276 0.40717,0 0.460957,0.205271 1.374985,5.246534 l 0.538432,2.969737 12.07188,0.01618 c 15.694314,0.02103 19.247116,0.320563 27.118544,2.2863676 9.7399,2.4324399 16.760221,5.7482411 29.499371,13.9329369 8.53459,5.4833435 15.62868,8.9921125 23.04489,11.3981405 8.92409,2.895221 18.17476,4.618756 29.17297,5.435363 l 1.73234,0.128621 v 7.406572 c 0,4.073611 -0.077,7.406567 -0.1713,7.406567 -0.0942,0 -1.45288,0.171722 -3.01924,0.381609 -7.97816,1.069037 -13.9749,1.207704 -46.40405,1.073038 -34.896482,-0.144917 -38.988831,-1.85e-4 -42.377366,1.498723 -1.55289,0.686923 -0.973739,0.896551 2.691415,0.974177 1.737004,0.03678 3.158196,0.137031 3.158196,0.222746 0,0.171101 -9.355398,3.935216 -16.531541,6.651414 -5.91965,2.24061 -8.463786,3.341425 -10.887707,4.710954 -1.088176,0.614825 -2.038808,1.117863 -2.1125,1.117863 -0.07362,0 0.125617,-0.95774 0.442976,-2.12831 0.71201,-2.626467 0.801338,-5.076945 0.211595,-5.805238 l -0.367669,-0.454079 -0.327049,0.499123 c -0.179875,0.274515 -0.508344,1.329816 -0.729941,2.345107 -1.358243,6.223267 -3.191344,8.665529 -8.898691,11.855787 -0.816672,0.456503 -2.37578,1.49788 -3.464685,2.314172 -1.088917,0.816292 -2.313291,1.584106 -2.720844,1.706252 -0.565837,0.169579 -0.691606,0.281624 -0.53202,0.473921 0.319482,0.38495 -0.319813,1.447776 -1.066067,1.772345 l -0.630641,0.274282 0.647224,0.0079 c 0.601797,0.0072 0.638841,0.04595 0.527871,0.552202 -0.524929,2.394752 -6.223079,10.210658 -11.486566,15.755627 -1.505409,1.585909 -1.923365,1.922294 -2.256936,1.81642 -0.225164,-0.07142 -0.396595,-0.05644 -0.380965,0.03346 0.07676,0.441423 -0.132345,0.656218 -1.575187,1.617952 -2.608575,1.738782 -3.071325,1.855154 -7.649469,1.923728 -2.17781,0.03256 -4.360565,-0.0054 -4.8505703,-0.08471 z M 24.280778,82.264413 c 0,-0.160032 -1.336681,-0.906963 -1.607229,-0.898121 -0.150488,0.0053 0.127313,0.223624 0.617311,0.486013 0.985641,0.527774 0.989918,0.529561 0.989918,0.412108 z m 9.754393,-14.301755 c -0.13404,-0.05422 -0.401314,-0.05753 -0.593943,-0.0073 -0.192643,0.0502 -0.08297,0.09457 0.243708,0.0986 0.326672,0.004 0.484289,-0.03702 0.350235,-0.09127 z m -5.052319,-1.199835 c -0.299447,-0.04536 -0.789449,-0.04536 -1.088894,0 -0.299459,0.04536 -0.05442,0.08249 0.544441,0.08249 0.598902,0 0.843909,-0.03711 0.544453,-0.08249 z m 9.202379,-18.099656 c 3.946548,-1.256639 6.899344,-1.97291 9.6927,-2.351183 0.946049,-0.128103 1.874687,-0.345978 2.063636,-0.484143 0.316379,-0.231336 0.29977,-0.279894 -0.209901,-0.613848 -1.409507,-0.92354 -4.497673,-0.463401 -10.727374,1.598373 -5.096268,1.686658 -6.682671,2.529096 -5.795309,3.077517 0.36167,0.223517 0.627538,0.157975 4.976248,-1.226716 z m -6.892756,-1.754764 c -0.01944,-1.505348 -0.444241,-2.461208 -2.331273,-5.246537 -1.420391,-2.096565 -5.213213,-6.01051 -6.404892,-6.609442 -1.125201,-0.565524 -1.641236,-0.550963 -1.641236,0.04631 0,0.514219 0.485962,1.231231 2.821262,4.162553 0.866659,1.087869 2.378886,3.177919 3.360475,4.644555 2.135443,3.190625 3.219872,4.431288 3.800703,4.348272 0.370646,-0.05298 0.40998,-0.186973 0.394961,-1.345719 z m -59.495283,-1.633358 c 0.245572,-0.408337 0.401948,-0.742433 0.347503,-0.742433 -0.128176,0 -0.923216,1.284622 -0.923216,1.491739 0,0.197637 0.02868,0.160303 0.575713,-0.749306 z m 1.585595,-1.264206 c 0.271697,-0.23771 -0.372709,-0.01694 -0.688095,0.235722 -0.362369,0.290315 -0.356051,0.294437 0.110656,0.07217 0.272225,-0.129642 0.532078,-0.2682 0.577448,-0.307894 z m 85.870027,-1.385678 c 1.789163,-0.849019 4.030507,-5.329183 4.030507,-8.056523 0,-1.00451 -0.0043,-1.009762 -0.38358,-0.622586 -0.369192,0.375853 -3.499549,5.721624 -4.493511,7.673741 -0.677719,1.33096 -0.438426,1.615134 0.846584,1.005368 z"
       id="path1276" />
    <path
       style="fill:#ffffff;fill-opacity:1;stroke:#000000;stroke-width:0.197982;stroke-opacity:0"
       d="m 9.5310813,88.511378 c -0.967239,-0.179964 -1.6831047,-0.552366 -1.6821105,-0.875053 0.0022,-0.724243 2.0240511,-3.060987 3.8101332,-4.403612 1.080896,-0.81252 1.295348,-0.900132 1.917525,-0.783409 0.6807,0.127687 0.690792,0.120671 0.356802,-0.248383 -0.464353,-0.513107 -0.433318,-0.645591 0.151249,-0.645591 0.488698,0 0.726637,-0.388439 0.247475,-0.404016 -0.304256,-0.0096 0.926358,-1.096752 1.710269,-1.510494 0.347609,-0.183461 0.813461,-0.25756 1.187894,-0.188945 l 0.616029,0.11288 -0.544453,-0.297915 c -0.299446,-0.163864 -0.544453,-0.34666 -0.544453,-0.406229 0,-0.05955 1.002287,-1.174135 2.227299,-2.476808 2.630662,-2.797431 3.626094,-4.200012 3.806271,-5.363134 0.188504,-1.216943 0.505109,-2.183843 0.841246,-2.569199 0.160239,-0.183697 0.239137,-0.418465 0.175323,-0.521709 -0.06381,-0.103247 -0.01924,-0.465226 0.09899,-0.804405 0.165037,-0.473444 0.332577,-0.616691 0.721249,-0.616691 0.466056,0 0.482113,-0.02751 0.202093,-0.346468 -0.276696,-0.315153 -0.233501,-0.521721 0.477837,-2.285356 1.526159,-3.783787 1.786346,-5.208261 1.887922,-10.336024 0.07216,-3.64386 0.02812,-4.85025 -0.220684,-6.038465 C 26.143341,43.530343 22.755463,39.178677 18.152559,36.170119 13.75455,33.295484 8.5995634,31.694315 -2.3958496,29.787657 -8.150545,28.789765 -10.02864,28.376854 -12.390586,27.590254 c -1.411642,-0.47012 -1.802049,-0.519022 -3.398383,-0.425686 -2.946954,0.172309 -7.176958,1.462529 -11.588398,3.534654 -3.097987,1.455176 -7.104888,4.235983 -6.69471,4.64616 0.209017,0.20902 1.528534,-0.320469 5.49156,-2.203626 5.951295,-2.827951 9.013822,-3.741815 12.110491,-3.6138 1.656796,0.06848 1.668032,0.06078 -1.518432,1.041749 -3.814533,1.174317 -8.810217,3.763931 -8.810217,4.566954 0,0.549555 0.611932,1.251443 2.34593,2.69078 2.288032,1.899227 3.395561,2.970921 3.395561,3.2857 0,0.289476 -2.457128,1.944519 -3.347916,2.25505 -0.314282,0.109544 -1.048225,0.638504 -1.630984,1.175433 -0.582762,0.536931 -1.521403,1.35548 -2.085873,1.818997 -0.564469,0.463518 -1.130696,1.084365 -1.258281,1.379659 -0.364452,0.843516 -2.069126,2.333845 -2.669506,2.333845 -0.750562,0 -1.189476,-0.282158 -3.064194,-1.969831 -2.184707,-1.966703 -2.745824,-2.385783 -3.19445,-2.385783 -0.287016,0 -0.369265,0.148006 -0.369265,0.66447 0,0.893789 0.826268,1.940969 3.548871,4.497701 l 2.198109,2.064189 0.703702,3.440918 c 0.387036,1.892501 1.330304,5.723462 2.096157,8.513243 0.765849,2.789782 1.605339,6.007795 1.865529,7.151146 0.512017,2.24992 0.631088,4.987973 0.253001,5.81778 -0.329255,0.722641 -1.235285,1.013139 -3.145922,1.008671 -1.43706,-0.0031 -1.852908,-0.08521 -2.809385,-0.553211 -4.02082,-1.967207 -6.384327,-8.5756 -7.081965,-19.801265 -0.334918,-5.38915 0.222401,-11.1967 1.501238,-15.643686 2.073785,-7.211304 5.415655,-12.086481 10.472813,-15.277899 2.970478,-1.874577 4.480031,-2.941735 4.674041,-3.304245 0.303788,-0.567632 0.08998,-1.160117 -0.692278,-1.918304 l -0.686611,-0.665491 0.587572,-1.593574 c 0.987437,-2.678075 0.558383,-2.689218 -2.199868,-0.05712 -0.925567,0.883228 -1.919584,1.813181 -2.208926,2.066557 l -0.526074,0.460686 -1.061083,-0.864262 c -2.008243,-1.635747 -5.398834,-3.188042 -15.42065,-7.059951 -7.812594,-3.018381 -9.579831,-3.756792 -13.597431,-5.6814729 -7.0354,-3.3703968 -10.788619,-6.0513753 -16.85011,-12.0362759 -6.349886,-6.2696509 -12.039157,-13.8020652 -12.620598,-16.7092742 -0.268677,-1.343383 0.337607,-1.065352 7.443737,3.413569 12.817521,8.0787518 19.748408,11.4630522 28.765838,14.0461431 9.703901,2.77973419 18.607007,3.982303 35.974419,4.8591675 4.301169,0.2171614 8.397643,0.4525804 9.103277,0.5231523 1.2634218,0.126351 1.2755678,0.1331631 0.7970612,0.4468344 -0.2672531,0.1751898 -1.8691494,1.3557676 -3.5597702,2.6235068 -3.060377,2.2948727 -4.948994,4.0031569 -4.700483,4.2516649 0.218406,0.218407 3.13779,-1.2882619 8.7937271,-4.5383676 8.7916684,-5.05201151 11.8729127,-6.46166881 20.0359189,-9.1663552 6.664054,-2.2080314 11.980488,-3.6961266 19.025881,-5.3254347 2.123358,-0.4910457 4.306127,-1.1131006 4.850566,-1.3823435 1.484947,-0.734338 2.58247,-1.777231 5.748712,-5.462533 1.779659,-2.071406 3.01733,-3.350602 3.241832,-3.350602 0.396512,0 0.606401,0.819633 1.470249,5.741491 l 0.434343,2.474781 11.875896,0.0094 c 12.774461,0.01016 15.938035,0.159977 21.024206,0.9957619 7.624487,1.2529013 14.642396,3.4961116 21.584811,6.8993916 3.74247,1.83462908 6.96819,3.7085333 12.82303,7.4492329 7.35199,4.6972576 13.02593,7.7929966 18.43878,10.0603466 7.4046,3.101652 17.07858,5.550528 27.09718,6.859381 1.95771,0.255762 8.64746,0.876126 9.55265,0.885856 0.19352,0.0022 0.24746,1.620935 0.24746,7.427001 0,4.083389 -0.0522,7.424343 -0.1159,7.424343 -0.0638,0 -1.82815,0.220347 -3.92094,0.489661 -7.29603,0.9389 -9.8501,0.995281 -42.19211,0.931365 -38.270834,-0.07563 -42.422347,0.06344 -45.743057,1.532344 -1.551123,0.686138 -0.973209,0.896006 2.691729,0.977526 1.736818,0.03865 3.157881,0.139387 3.157881,0.223891 0,0.174715 -10.691892,4.462056 -17.521452,7.025927 -2.662235,0.999422 -6.065805,2.465689 -8.194352,3.530139 -2.002426,1.001372 -3.709739,1.847809 -3.794044,1.880967 -0.08422,0.03316 0.106248,-0.94429 0.423547,-2.172111 0.704955,-2.728223 0.788246,-5.007568 0.209123,-5.722734 l -0.367621,-0.454128 -0.327036,0.499124 c -0.179876,0.274516 -0.507432,1.33763 -0.727911,2.362475 -0.54876,2.550834 -0.899548,3.588391 -1.814536,5.367003 -1.386153,2.694536 -2.79146,3.977934 -7.209357,6.583991 -0.884432,0.521712 -2.440057,1.560663 -3.456979,2.308784 -1.016897,0.74812 -2.148051,1.458939 -2.51365,1.579602 -0.456577,0.150682 -0.629929,0.310101 -0.553587,0.509067 0.165226,0.430552 -0.408723,1.401093 -1.026918,1.736522 l -0.541966,0.294067 0.539503,0.008 c 0.500427,0.0073 0.530318,0.05385 0.412688,0.641974 -0.362472,1.812404 -5.208004,8.76279 -9.219745,13.224732 -3.584636,3.986895 -4.027054,4.407462 -4.483935,4.262458 -0.233354,-0.07409 -0.411498,-0.06116 -0.395869,0.02876 0.07997,0.459928 -0.142362,0.689774 -1.580854,1.63417 -2.645467,1.736804 -3.064984,1.840272 -7.74279,1.90971 -2.23226,0.03315 -4.4150113,-0.0065 -4.8505748,-0.08714 z M 24.280778,82.25229 c 0,-0.05229 -0.356376,-0.276769 -0.791941,-0.498983 -0.435552,-0.222202 -0.791928,-0.359777 -0.791928,-0.305722 0,0.0541 0.334095,0.274654 0.742442,0.490228 0.840037,0.443476 0.841427,0.44399 0.841427,0.314477 z m 9.647521,-14.279381 c -0.06574,-0.06579 -0.236555,-0.07282 -0.379473,-0.01565 -0.157937,0.0632 -0.111048,0.110107 0.11967,0.119608 0.208708,0.0084 0.325638,-0.0382 0.259859,-0.10398 z m -5.345527,-1.187896 c -0.06575,-0.06579 -0.236552,-0.07282 -0.379468,-0.01565 -0.157941,0.0632 -0.111012,0.110108 0.119608,0.119609 0.20871,0.0084 0.325638,-0.0382 0.259856,-0.10398 z M 38.078545,48.69633 c 4.251319,-1.349271 6.246837,-1.848031 9.09824,-2.274001 2.550683,-0.381046 3.172546,-0.600146 2.840161,-1.000658 -0.397064,-0.478426 -1.775017,-0.745804 -3.166168,-0.614361 -1.688767,0.159564 -4.550154,0.900425 -8.216283,2.127328 -3.475642,1.163159 -5.51164,2.106464 -5.605351,2.597032 -0.117435,0.614825 1.130835,0.408321 5.049401,-0.83534 z m -6.751071,-0.899544 c 0.519706,-2.070649 -1.871297,-6.202773 -5.957802,-10.296281 -2.144133,-2.147814 -3.485507,-3.053336 -4.146984,-2.799503 -0.626155,0.240279 -0.251367,0.95324 2.117672,4.028419 1.333901,1.731509 3.118154,4.181228 3.965002,5.443821 2.576534,3.841443 3.710928,4.86342 4.022112,3.623544 z m -59.71003,-2.274261 c 0.116548,-0.217781 0.16737,-0.395966 0.112927,-0.395966 -0.05444,0 -0.194353,0.178185 -0.310906,0.395966 -0.116548,0.217781 -0.167369,0.395964 -0.112926,0.395964 0.05444,0 0.194354,-0.178183 0.310905,-0.395964 z m 87.924909,-3.138298 c 1.780928,-1.129432 3.740968,-5.276691 3.740968,-7.915564 0,-0.737102 -0.04441,-0.836678 -0.28455,-0.637415 -0.274937,0.228162 -3.76835,6.159332 -4.645361,7.886906 -0.686083,1.351506 -0.264387,1.587755 1.188943,0.666073 z"
       id="path1277" />
    <path
       style="display:inline;fill:#004455;filter:url(#filter6)"
       d="m 94.75,115.28251 c -2.780324,-3.08217 -2.099944,-5.74291 2.5,-9.77668 11.9508,-10.479834 16.29174,-16.136325 16.93293,-22.064563 l 0.31707,-2.931469 -8,-0.722596 C 96.124201,78.850014 90.366506,77.439942 80.197534,73.345673 72.420016,70.21426 71.713685,70.096699 69.026372,71.486363 65.608391,73.253869 62,78.027324 62,80.781382 c 0,1.084953 1.319397,6.258911 2.931993,11.497687 1.612596,5.238775 2.680399,10.487141 2.372896,11.663041 -0.307504,1.17589 -1.845999,2.80347 -3.41888,3.61684 -5.334049,2.75834 -11.809277,-1.83806 -14.733057,-10.458173 -1.574115,-4.640928 -1.451181,-15.791942 0.233418,-21.172638 0.762503,-2.435477 1.886741,-6.277802 2.498305,-8.538502 0.611564,-2.260699 2.462698,-5.810076 4.11363,-7.887504 C 59.15584,55.528891 59.84647,51.894909 57.75,50.284991 57.0625,49.757048 52,47.915336 46.5,46.192298 34.917669,42.56379 22.361794,35.734736 16.192113,29.708046 8.9869423,22.669864 2.5748666,11.623553 3.7363158,8.25 4.507858,6.0089733 7.1184087,6.9194816 13.348037,11.602378 c 10.10132,7.593298 22.50261,13.14127 35.922765,16.070786 5.988343,1.307209 12.449931,1.788958 23.729198,1.769152 14.890966,-0.02615 15.833986,-0.151074 24,-3.179352 4.675,-1.733673 12.99722,-4.281987 18.49383,-5.66292 9.6322,-2.419936 10.15109,-2.693325 14.34003,-7.555416 C 132.22427,10.270083 134.8254,8 135.61414,8 c 0.78874,0 3.7019,1.559988 6.47368,3.46664 2.77179,1.906652 6.69844,3.709454 8.7259,4.006226 11.15084,1.632223 22.45407,3.885717 28.25499,5.633122 l 6.56871,1.978685 7.59788,-3.042336 C 197.41413,18.369051 201.59817,17 202.53316,17 c 1.73184,0 1.71699,0.95353 -0.10742,6.896702 -0.73533,2.395385 -0.73237,2.396322 5.37583,1.705258 7.6313,-0.863384 18.51095,-3.079642 27.90937,-5.685329 9.35893,-2.594737 51.54438,-10.9946444 52.15416,-10.3848624 1.01252,1.0125204 -1.13862,1.6612294 -14.9911,4.5207844 -21.66585,4.472461 -38.62865,8.734337 -45.874,11.525764 -15.29547,5.892913 -19.84988,8.76455 -18.69085,11.784922 0.30344,0.790751 4.07051,2.777422 8.37128,4.414823 23.13027,8.806235 54.90907,9.112647 76.28486,0.735542 6.41714,-2.514857 8.9152,-2.250516 7.73741,0.818759 -0.85856,2.237382 -12.24517,10.008444 -21.24561,14.499574 -8.62335,4.302969 -21.64211,8.362806 -32.95709,10.277508 -5.01959,0.849406 -15.70097,0.985162 -37.75457,0.479843 l -30.75456,-0.704686 -13.84711,5.557699 C 156.52785,76.499035 149.77481,79 149.13702,79 c -0.6378,0 -3.80628,1.806583 -7.04107,4.014629 -3.23479,2.208045 -7.27798,4.501467 -8.98487,5.096492 -2.39373,0.834459 -3.92588,2.646974 -6.69985,7.925846 -3.9709,7.556643 -11.30778,15.823933 -16.36308,18.438133 -1.80025,0.93095 -5.58505,1.92995 -8.41067,2.22002 -4.239436,0.43519 -5.443384,0.18827 -6.88748,-1.41261 z M 113.50735,109.25 C 118.13235,105.6633 126,95.072786 126,92.433857 c 0,-1.638277 4.90711,-5.738525 8.79518,-7.349018 C 137.91091,83.794263 141,78.236177 141,73.920747 c 0,-1.221522 0.43861,-1.767708 1.09417,-1.362547 1.10064,0.680231 0.85601,3.278375 -0.64874,6.890322 -0.75933,1.822642 -0.6123,1.806491 2.27577,-0.25 C 145.41935,77.989335 147.21471,77 147.71089,77 c 1.17357,0 21.58432,-7.952345 22.26718,-8.67564 0.28706,-0.304063 -1.50307,-0.230119 -3.97807,0.164319 -3.12311,0.497727 -4.19402,0.396859 -3.5,-0.329663 2.29429,-2.401715 18.29435,-3.234655 41.77984,-2.174996 36.921,1.665863 55.61059,-0.901157 74.15456,-10.185152 8.11219,-4.061343 18.03173,-10.666072 17.22733,-11.470469 -0.23774,-0.237746 -3.97139,0.707484 -8.297,2.100509 C 259.07976,55.537855 221.06574,50.777023 200,35.48745 182.57398,22.839596 167.00826,18.524774 143.31463,19.774248 l -8.18538,0.431652 -0.64652,-3.85295 c -0.35558,-2.119122 -0.74533,-4.25994 -0.8661,-4.757373 -0.12077,-0.497433 -1.88484,1.364111 -3.92015,4.136763 -3.30821,4.506691 -4.20397,5.111624 -8.44852,5.705537 -6.66238,0.932224 -23.75077,6.277787 -29.73235,9.300824 -2.758585,1.394164 -7.427259,4.074147 -10.37483,5.955518 -6.704384,4.279262 -8.011348,3.581158 -1.661355,-0.887399 L 84.178545,32.5 69.339272,31.871551 C 45.719974,30.871264 31.08559,26.367319 14.310797,14.935735 10.195999,12.131608 6.6314412,10.035226 6.3895581,10.277109 c -1.1679939,1.167993 4.8422699,9.962033 11.1082689,16.253289 8.105603,8.138275 14.967052,12.048343 30.866008,17.589315 6.124891,2.134596 11.727218,4.668404 12.449616,5.630685 1.222764,1.6288 1.478372,1.559728 3.702034,-1.000398 2.875918,-3.311073 3.992976,-3.568584 2.376301,-0.547799 -0.878051,1.640652 -0.887023,2.299387 -0.03518,2.583333 2.122909,0.707636 1.162863,2.189496 -2.563345,3.956596 -8.874986,4.208834 -13.84242,16.954419 -12.37724,31.75787 1.253002,12.659701 4.310739,17.78988 10.307479,17.29357 3.242658,-0.26837 3.299116,-2.93729 0.259137,-12.250013 C 61.117186,87.360614 60,82.708818 60,81.206232 c 0,-1.832439 -0.713908,-3.056999 -2.168205,-3.719104 -2.525783,-1.149924 -4.573648,-4.078609 -3.56043,-5.091827 0.385345,-0.385344 1.639589,0.493072 2.787211,1.952037 2.626893,3.339553 3.50718,3.322183 6.409029,-0.12647 1.286167,-1.528522 3.507115,-3.404563 4.93544,-4.168979 C 71.685685,68.295073 71.654325,67.940895 68,65.5 66.353163,64.4 65.004457,63.174056 65.002875,62.77568 64.998481,61.668815 71.071645,58.728891 75,57.936228 l 3.5,-0.70623 -3.100777,-0.114999 C 71.556264,56.972475 66.657145,58.610938 61.75,61.679851 59.6875,62.969732 58,63.60247 58,63.085935 c 0,-0.516534 2.418879,-2.323096 5.375286,-4.014581 5.589838,-3.198181 14.32789,-5.113073 15.473337,-3.390889 0.358257,0.538641 5.070835,1.513048 10.472396,2.165349 13.060121,1.577159 21.508051,6.055383 25.316561,13.420246 2.3886,4.619037 1.90601,12.861216 -1.10391,18.853836 -1.39758,2.782524 -2.27537,5.489033 -1.95063,6.014465 0.58709,0.949929 -5.06582,6.970709 -11.39812,12.139879 -1.823287,1.48838 -3.034229,3.16057 -2.690978,3.71596 0.34325,0.55539 2.998688,1.0098 5.900968,1.0098 4.57139,0 5.92335,-0.50135 10.11244,-3.75 z M 121,76.223566 c 0,-0.544726 1.0125,-1.236424 2.25,-1.537106 1.2375,-0.300682 4.35264,-1.295009 6.92254,-2.209615 3.46677,-1.233797 5.14413,-1.388705 6.5,-0.600292 1.54872,0.900551 1.29362,1.073963 -1.67254,1.136931 -3.10168,0.06585 -6.53515,1.035188 -12.25,3.458445 -0.98819,0.419022 -1.75,0.310905 -1.75,-0.248363 z M 116.41373,71.75 c -0.9007,-1.7875 -3.02553,-4.7125 -4.72185,-6.5 C 109.61854,63.065206 109.0993,62 110.10767,62 112.74255,62 120,70.755498 120,73.934259 120,76.11386 117.9983,74.894706 116.41373,71.75 Z m 29.35545,-4.5 c 1.04795,-1.5125 2.21419,-3.601908 2.59163,-4.643128 0.37745,-1.041221 0.96125,-1.61815 1.29733,-1.282065 0.75549,0.755485 -1.65556,6.90473 -3.10137,7.90988 -2.24701,1.562162 -2.61047,0.646261 -0.78759,-1.984687 z m -39.64162,34 c 1.24387,-1.586056 1.2085,-1.621426 -0.37756,-0.37756 -0.9625,0.75485 -1.75,1.54235 -1.75,1.75 0,0.82304 0.82119,0.29331 2.12756,-1.37244 z M 113,74.448973 c 0,-2.279788 -5.8553,-4.371086 -20.801075,-7.429379 -7.315592,-1.496959 -13.840592,-3.304991 -14.5,-4.017848 -0.961759,-1.039714 -0.803294,-1.155181 0.801075,-0.583711 1.1,0.391816 7.625,1.829828 14.5,3.195583 6.875,1.365754 13.625,2.75379 15,3.084523 2.48109,0.596784 2.48573,0.585231 0.61398,-1.527448 C 103.07356,60.91715 78.629216,57.2729 73.680276,61.962654 72.299217,63.271385 79.762702,68.592572 86.81904,71.330104 98.282984,75.777584 113,77.530783 113,74.448973 Z M 74,65.5 c -3.347094,-3.453325 -5,-4.324505 -5,-2.635297 0,0.754532 6.748145,5.913778 7.946167,6.075186 C 77.191559,68.97295 75.865783,67.425 74,65.5 Z M 207.2592,33.727163 c 0.81907,-1.25006 4.02083,-3.553712 7.11501,-5.119226 6.2705,-3.172583 6.99496,-3.860999 2.79581,-2.656697 -1.5565,0.446396 -6.0565,1.135655 -10,1.531686 -7.8652,0.789871 -8.24573,0.476595 -6.14204,-5.056515 0.56539,-1.487083 0.83601,-2.895756 0.60138,-3.130384 -0.5139,-0.513897 -13.61867,4.99036 -13.58027,5.703973 0.0301,0.559563 16.09015,10.840864 17.0859,10.938034 0.34924,0.03408 1.30514,-0.96081 2.12421,-2.210871 z M 143,15.215608 C 143,14.445806 137.76518,11 136.59571,11 c -0.81362,0 -0.75621,3.506166 0.071,4.333333 C 137.60218,16.268849 143,16.168512 143,15.215608 Z"
       id="path1"
       sodipodi:insensitive="true"
       transform="matrix(1.0691052,0,0,1.0691052,-96.587507,-31.789618)" />
  </g>
</svg>
