<?xml version="1.0" encoding="UTF-8" standalone="no"?>
<!-- Created with Inkscape (http://www.inkscape.org/) -->

<svg
   version="1.1"
   id="svg1"
   width="150.00003"
   height="59.901001"
   viewBox="0 0 150.00003 59.901001"
   sodipodi:docname="wray.svg"
   inkscape:version="1.4.4 (dcaf3e7, 2026-05-05)"
   xmlns:inkscape="http://www.inkscape.org/namespaces/inkscape"
   xmlns:sodipodi="http://sodipodi.sourceforge.net/DTD/sodipodi-0.dtd"
   xmlns:xlink="http://www.w3.org/1999/xlink"
   xmlns="http://www.w3.org/2000/svg"
   xmlns:svg="http://www.w3.org/2000/svg">
  <defs
     id="defs1" />
  <sodipodi:namedview
     id="namedview1"
     pagecolor="#ffffff"
     bordercolor="#666666"
     borderopacity="1.0"
     inkscape:showpageshadow="2"
     inkscape:pageopacity="0.0"
     inkscape:pagecheckerboard="true"
     inkscape:deskcolor="#d1d1d1"
     inkscape:zoom="2.71"
     inkscape:cx="151.47601"
     inkscape:cy="31.549815"
     inkscape:window-width="1920"
     inkscape:window-height="1009"
     inkscape:window-x="-8"
     inkscape:window-y="-8"
     inkscape:window-maximized="1"
     inkscape:current-layer="g1" />
  <g
     inkscape:groupmode="layer"
     inkscape:label="Image"
     id="g1"
     style="display:inline">
    <image
       width="145.03659"
       height="57.918903"
       preserveAspectRatio="none"
       xlink:href="wray.png"
       id="image1"
       x="2.5359795"
       y="1.3613868" />
    <path
       style="fill:#004455;stroke-width:0.478669"
       d="m 47.889834,56.543503 c -1.330853,-1.475337 -1.005181,-2.748946 1.196672,-4.679788 5.720466,-5.016367 7.798338,-7.723955 8.105262,-10.561609 l 0.151767,-1.403202 -3.829347,-0.345888 c -4.966573,-0.448602 -7.722598,-1.12356 -12.59017,-3.083357 -3.722849,-1.49891 -4.06095,-1.555183 -5.347277,-0.889994 -1.636087,0.846049 -3.363307,3.130953 -3.363307,4.449231 0,0.519335 0.631556,2.995943 1.403453,5.503587 0.771896,2.507635 1.28302,5.019859 1.135832,5.582727 -0.147196,0.562867 -0.883624,1.341935 -1.636514,1.73127 -2.553238,1.320327 -5.652725,-0.879825 -7.052248,-5.005999 -0.753484,-2.221464 -0.694634,-7.559108 0.111728,-10.134678 0.364986,-1.165786 0.903124,-3.004986 1.195863,-4.087112 0.29273,-1.082126 1.178817,-2.781102 1.969061,-3.775501 1.511418,-1.901866 1.841995,-3.641339 0.838486,-4.411956 -0.329091,-0.25271 -2.752347,-1.13428 -5.385022,-1.959045 C 19.249973,21.735337 13.23987,18.466483 10.286632,15.581695 6.8377481,12.212738 3.7684911,6.9252167 4.3244371,5.3104022 4.6937521,4.2376935 5.9433381,4.6735251 8.9252631,6.9150807 13.760451,10.549754 19.69656,13.205394 26.120365,14.607662 c 2.866433,0.625719 5.959389,0.856317 11.35842,0.846837 7.127839,-0.01251 7.579238,-0.07231 11.48805,-1.521857 2.237776,-0.829854 6.221361,-2.049652 8.85242,-2.710662 4.610627,-1.158347 4.859007,-1.2892093 6.864121,-3.6165403 1.144212,-1.328087 2.389293,-2.4147046 2.766839,-2.4147046 0.377545,0 1.771977,0.7467176 3.098743,1.6593716 1.326775,0.912655 3.206337,1.775599 4.176812,1.917655 5.33756,0.781294 10.748064,1.8599703 13.524777,2.6963983 l 3.144237,0.947134 3.63687,-1.45627 c 2.00028,-0.80095 4.00304,-1.4562723 4.45059,-1.4562723 0.828986,0 0.821866,0.456426 -0.0515,3.3012363 -0.35198,1.146595 -0.35056,1.147043 2.573236,0.816253 3.65287,-0.413275 8.86061,-1.474128 13.35934,-2.721389 4.47983,-1.2420183 24.67268,-5.2627903 24.96456,-4.9709073 0.48467,0.484662 -0.54502,0.795178 -7.17576,2.163958 -10.37077,2.1408263 -18.49033,4.1808523 -21.95846,5.5170203 -7.32145,2.820753 -9.50151,4.195316 -8.94672,5.641073 0.14525,0.378508 1.94843,1.329465 4.00707,2.113237 11.07174,4.215268 26.28325,4.361938 36.51517,0.352082 3.07169,-1.203784 4.26743,-1.077252 3.70365,0.391914 -0.41096,1.070964 -5.86137,4.790728 -10.16959,6.940491 -4.12774,2.059696 -10.35941,4.003013 -15.77554,4.91952 -2.40271,0.406584 -7.51555,0.471566 -18.07192,0.229686 l -14.721245,-0.337311 -6.628179,2.660296 c -3.645493,1.463163 -6.877963,2.660296 -7.183253,2.660296 -0.30529,0 -1.821947,0.864756 -3.370339,1.921672 -1.548392,1.056926 -3.48374,2.154717 -4.300775,2.439532 -1.145801,0.399433 -1.879191,1.267023 -3.207007,3.79386 -1.900743,3.617122 -5.412677,7.574417 -7.832496,8.82575 -0.861719,0.445621 -2.673383,0.923812 -4.025918,1.062657 -2.029286,0.208314 -2.605577,0.09011 -3.29682,-0.676175 z m 8.978548,-2.887568 c 2.213846,-1.716843 5.979846,-6.786189 5.979846,-8.049366 0,-0.784187 2.348873,-2.746847 4.209977,-3.51774 1.491399,-0.617761 2.970052,-3.27824 2.970052,-5.343901 0,-0.584704 0.209949,-0.846147 0.523739,-0.652209 0.526841,0.325606 0.409753,1.569256 -0.31053,3.298181 -0.363462,0.872442 -0.293083,0.864713 1.089338,-0.119667 0.812855,-0.578799 1.672233,-1.052363 1.909745,-1.052363 0.561753,0 10.331733,-3.806538 10.658594,-4.152756 0.137414,-0.145546 -0.719465,-0.110151 -1.904171,0.07866 -1.494939,0.238246 -2.007548,0.189964 -1.675346,-0.157799 1.098209,-1.149626 8.756931,-1.548328 19.998694,-1.041102 17.67293,0.797396 26.61905,-0.431356 35.49547,-4.875313 3.88305,-1.944038 8.63122,-5.105514 8.24618,-5.490554 -0.1138,-0.113801 -1.90098,0.338651 -3.97151,1.005448 -13.53913,4.360168 -31.73525,2.081306 -41.818746,-5.237333 -8.341303,-6.05413 -15.79212,-8.1195 -27.133522,-7.521417 L 67.21811,11.033323 66.908639,9.1890377 c -0.170198,-1.014358 -0.356764,-2.0391 -0.414574,-2.277206 -0.05778,-0.238106 -0.902214,0.652957 -1.876451,1.980139 -1.583535,2.1572113 -2.012304,2.4467743 -4.044043,2.7310613 -3.189068,0.446226 -11.368751,3.004979 -14.231942,4.452013 -1.320449,0.667342 -3.555197,1.950166 -4.9661,2.850719 -3.20918,2.048349 -3.834781,1.714188 -0.795242,-0.42477 l 2.249324,-1.582871 -7.1031,-0.300818 C 24.420698,16.138495 17.415679,13.982597 9.3861101,8.5106567 c -1.969627,-1.342248 -3.675871,-2.34572 -3.791649,-2.229939 -0.559087,0.559082 2.317845,4.7685133 5.3171779,7.7799403 3.879902,3.895537 7.164255,5.767163 14.774587,8.419453 2.931796,1.021764 5.613457,2.234618 5.959241,2.695232 0.585302,0.779655 0.707657,0.746593 1.772052,-0.478859 1.376614,-1.584907 1.911315,-1.708169 1.137458,-0.262214 -0.420297,0.785329 -0.424589,1.100644 -0.01681,1.236561 1.016171,0.338723 0.556634,1.048042 -1.226993,1.893898 -4.248177,2.014637 -6.625932,8.115548 -5.924591,15.201492 0.599767,6.059803 2.063417,8.515461 4.933864,8.277894 1.552163,-0.128468 1.579187,-1.405989 0.124046,-5.863705 -0.6536,-2.002244 -1.188366,-4.228909 -1.188366,-4.948152 0,-0.877125 -0.341724,-1.463284 -1.037854,-1.780213 -1.209008,-0.550432 -2.189255,-1.952302 -1.704264,-2.437297 0.184458,-0.184453 0.784818,0.236017 1.334151,0.934379 1.257417,1.598539 1.678782,1.590224 3.067799,-0.06054 0.615652,-0.731656 1.678745,-1.629658 2.362445,-1.99556 1.571291,-0.840933 1.556288,-1.010466 -0.19293,-2.178846 -0.788284,-0.526536 -1.433867,-1.113357 -1.434629,-1.304047 -0.0019,-0.529821 2.904931,-1.93707 4.785311,-2.316493 l 1.675346,-0.338051 -1.484246,-0.05504 c -1.839505,-0.06822 -4.18456,0.71606 -6.533461,2.185052 -0.987252,0.617425 -1.795007,0.920298 -1.795007,0.673049 0,-0.24725 1.15784,-1.111994 2.572989,-1.921654 2.675677,-1.530869 6.858305,-2.447468 7.406597,-1.623113 0.171489,0.257831 2.42725,0.724249 5.012808,1.036485 6.25147,0.754936 10.295225,2.898522 12.11824,6.423851 1.143349,2.210987 0.912349,6.156255 -0.528402,9.024732 -0.668984,1.331912 -1.089152,2.627427 -0.933706,2.878938 0.281016,0.454698 -2.424854,3.336664 -5.455921,5.810977 -0.872756,0.712442 -1.452391,1.512867 -1.288092,1.778713 0.164308,0.265854 1.435381,0.483365 2.824611,0.483365 2.188179,0 2.835323,-0.239983 4.840502,-1.795007 z m 3.586503,-15.80872 c 0,-0.260743 0.484647,-0.591837 1.077001,-0.735764 0.592353,-0.143928 2.083473,-0.619881 3.313606,-1.057673 1.659432,-0.59058 2.462329,-0.66473 3.11134,-0.287341 0.741324,0.431065 0.61922,0.514072 -0.800592,0.544213 -1.484673,0.03152 -3.128164,0.495512 -5.863687,1.655449 -0.473017,0.200573 -0.837668,0.14882 -0.837668,-0.118884 z M 58.259581,35.70586 c -0.431138,-0.855621 -1.448229,-2.255726 -2.260202,-3.111346 -0.992445,-1.045793 -1.240993,-1.555674 -0.758314,-1.555674 1.261235,0 4.735146,4.190983 4.735146,5.712556 0,1.043307 -0.958147,0.459736 -1.71663,-1.045536 z m 14.051526,-2.154009 c 0.501629,-0.723986 1.059871,-1.724121 1.240538,-2.22252 0.180668,-0.4984 0.460123,-0.774558 0.620994,-0.613684 0.361623,0.361627 -0.792465,3.305078 -1.484534,3.786211 -1.07557,0.747758 -1.249549,0.309345 -0.376998,-0.950007 z M 53.335908,49.826588 c 0.59541,-0.759197 0.578475,-0.776133 -0.180723,-0.180733 -0.460717,0.361326 -0.837668,0.738277 -0.837668,0.837669 0,0.39397 0.393078,0.140405 1.018391,-0.656936 z m 3.289621,-12.828815 c 0,-1.091262 -2.802744,-2.092301 -9.956817,-3.55621 -3.501743,-0.716547 -6.625058,-1.581996 -6.940696,-1.923218 -0.460364,-0.497678 -0.384513,-0.552949 0.383454,-0.279404 0.526535,0.18755 3.64984,0.875881 6.940687,1.529625 3.290846,0.653744 6.521867,1.318153 7.180029,1.476465 1.187623,0.285661 1.189843,0.280131 0.2939,-0.731142 -2.652026,-2.993375 -14.352765,-4.737763 -16.721667,-2.492925 -0.661069,0.626448 2.911462,3.173534 6.289112,4.483904 5.487432,2.12887 12.531998,2.968071 12.531998,1.492905 z m -18.66807,-4.283592 c -1.602151,-1.652999 -2.393343,-2.070005 -2.393343,-1.261434 0,0.361171 3.23012,2.83074 3.803577,2.908001 0.11746,0.01583 -0.517143,-0.72513 -1.410234,-1.646567 z m 63.786991,-15.20866 c 0.39207,-0.598365 1.92465,-1.70105 3.40574,-2.450413 3.00149,-1.518616 3.34826,-1.848139 1.33826,-1.271678 -0.74505,0.213676 -2.89906,0.543602 -4.78668,0.73317 -3.764826,0.378087 -3.946976,0.228131 -2.939996,-2.420394 0.27063,-0.711821 0.40016,-1.386108 0.28786,-1.498418 -0.24599,-0.245985 -6.51883,2.388729 -6.50046,2.730313 0.0144,0.267846 7.701856,5.189182 8.178486,5.235694 0.16717,0.01631 0.62473,-0.459909 1.01679,-1.058274 z M 70.985596,8.6446197 c 0,-0.36848 -2.505749,-2.017879 -3.065533,-2.017879 -0.389455,0 -0.361976,1.678292 0.034,2.074231 0.447776,0.447801 3.03155,0.399773 3.03155,-0.05635 z"
       id="path1" />
  </g>
</svg>
